<svg width="15" height="20" viewBox="0 0 15 20" fill="none" xmlns="http://www.w3.org/2000/svg">
<path d="M10.2172 0.925781H0V19.334H14.4V5.13338L10.2172 0.925781ZM7.5739 17.0124H2.59928C2.38334 17.0124 2.19539 16.8508 2.19539 16.6329C2.19539 16.43 2.36734 16.2535 2.59928 16.2535H7.5739C7.78984 16.2535 7.97779 16.415 7.97779 16.6329C7.97779 16.8358 7.80983 17.0124 7.5739 17.0124ZM11.8047 14.6155H2.59928C2.38334 14.6155 2.19539 14.454 2.19539 14.2361C2.19539 14.0332 2.36734 13.8566 2.59928 13.8566H11.8047C12.0207 13.8566 12.2086 14.0182 12.2086 14.2361C12.2086 14.454 12.0247 14.6155 11.8047 14.6155ZM11.8047 12.2337H2.59928C2.38334 12.2337 2.19539 12.0722 2.19539 11.8543C2.19539 11.6514 2.36734 11.4748 2.59928 11.4748H11.8047C12.0207 11.4748 12.2086 11.6364 12.2086 11.8543C12.2086 12.0722 12.0247 12.2337 11.8047 12.2337ZM11.8047 9.85191H2.59928C2.38334 9.85191 2.19539 9.69037 2.19539 9.47248C2.19539 9.25458 2.36734 9.09304 2.59928 9.09304H11.8047C12.0207 9.09304 12.2086 9.25458 12.2086 9.47248C12.2086 9.69037 12.0247 9.85191 11.8047 9.85191ZM11.8047 7.45508H2.59928C2.38334 7.45508 2.19539 7.29354 2.19539 7.07564C2.19539 6.87278 2.36734 6.69621 2.59928 6.69621H11.8047C12.0207 6.69621 12.2086 6.85775 12.2086 7.07564C12.2086 7.29729 12.0247 7.45508 11.8047 7.45508ZM9.40939 5.87723V1.66963L13.5922 5.87723H9.40939Z" fill="#469BD3"/>
</svg>
