<svg width="13" height="16" viewBox="0 0 13 16" fill="none" xmlns="http://www.w3.org/2000/svg">
<path d="M3.82412 6.77953C3.69419 6.89086 3.54319 6.93396 3.32899 6.9555V5.77038C3.58533 5.85657 3.7574 5.94636 3.86626 6.03255C3.95054 6.11874 4.01726 6.25161 4.01726 6.40604C3.99623 6.56046 3.93302 6.68975 3.82412 6.77953ZM2.9006 3.68026C2.70746 3.70181 2.55646 3.76645 2.4476 3.85623C2.33874 3.96756 2.27553 4.09685 2.27553 4.22973C2.27553 4.38415 2.31767 4.49189 2.40546 4.58167C2.48974 4.66786 2.66181 4.75764 2.9006 4.84383V3.68026ZM13 6.18697V13.4844C13 14.3859 12.2907 15.1113 11.4093 15.1113H1.59077C0.709348 15.1113 0 14.3859 0 13.4844V2.34072C0 1.4393 0.709348 0.713867 1.59077 0.713867H7.73611C8.35763 0.713867 8.65963 0.88984 9.04591 1.30643L12.3995 4.77919C12.849 5.21733 13 5.50463 13 6.18697ZM5.9311 4.56012H8.29439C8.57532 4.56012 8.7896 4.34106 8.7896 4.0753V3.70181C8.7896 3.43965 8.57532 3.21699 8.29439 3.21699H5.9311V4.56012ZM2.9006 5.65905V6.9555C2.51432 6.89086 2.14911 6.71489 1.78391 6.38449L1.30984 6.9555C1.78391 7.37209 2.32118 7.6163 2.9006 7.68094V8.16217H3.30795V7.67735C3.76095 7.6558 4.10158 7.52293 4.38251 7.28231C4.63886 7.0417 4.78986 6.7113 4.78986 6.33781C4.78986 5.94277 4.681 5.65546 4.44572 5.45794C4.21044 5.26042 3.84523 5.08445 3.35009 4.97312H3.32902V3.71976C3.67316 3.76286 3.97516 3.91729 4.25258 4.11481L4.681 3.5007C4.25258 3.2134 3.79958 3.03742 3.32551 3.01588V2.64238H2.91816V2.97278C2.51081 2.99433 2.16667 3.1272 1.90681 3.36782C1.65046 3.60844 1.49946 3.93883 1.49946 4.31233C1.49946 4.68582 1.62939 4.97312 1.8436 5.19219C2.06132 5.37175 2.40546 5.54772 2.9006 5.65905ZM11.7323 12.7806C11.7323 12.5184 11.5181 12.2957 11.2372 12.2957H1.71715C1.43622 12.2957 1.24308 12.5148 1.24308 12.7806V13.154C1.24308 13.4162 1.45729 13.6389 1.71715 13.6389H11.2372C11.4935 13.6389 11.7323 13.4198 11.7323 13.154V12.7806ZM11.7323 9.74593C11.7323 9.48373 11.5181 9.2611 11.2372 9.2611H1.71715C1.43622 9.2611 1.24308 9.48017 1.24308 9.74593V10.1194C1.24308 10.3815 1.45729 10.6042 1.71715 10.6042H11.2372C11.4935 10.6042 11.7323 10.3852 11.7323 10.1194V9.74593ZM11.7323 6.7113C11.7323 6.44913 11.5181 6.22648 11.2372 6.22648H5.9311V7.56602H11.2407C11.4971 7.56602 11.7358 7.34695 11.7358 7.0812V6.7113H11.7323Z" fill="#989898"/>
</svg>
