<svg width="104" height="71" viewBox="0 0 104 71" fill="none" xmlns="http://www.w3.org/2000/svg">
<path opacity="0.3" d="M5.93659 10.3122L5.07986 9.7964L5.07831 9.79899L5.93659 10.3122ZM43.2878 10.3122L42.4272 10.8215L42.4334 10.8319L43.2878 10.3122ZM43.2878 60.7317L42.4288 60.2198L42.4272 60.2224L43.2878 60.7317ZM5.93659 60.7317L5.0737 61.2372L5.07987 61.2475L5.93659 60.7317ZM37.3561 22.639L36.3717 22.8148L36.3732 22.8233L36.3749 22.8318L37.3561 22.639ZM33.4634 14.2049L32.7159 14.8693L32.7254 14.8796L33.4634 14.2049ZM15.8537 14.2049L16.5918 14.8797L16.6011 14.8692L15.8537 14.2049ZM11.8683 22.639L10.887 22.4463L10.8854 22.4547L10.8839 22.4632L11.8683 22.639ZM11.8683 48.4049L12.8533 48.2321L11.8683 48.4049ZM15.761 56.9317L15.0229 57.6065L15.0281 57.6121L15.0334 57.6177L15.761 56.9317ZM33.4634 56.9317L32.7358 56.2457L32.7306 56.2513L32.7254 56.2569L33.4634 56.9317ZM37.4488 48.4049L38.4337 48.5777L37.4488 48.4049ZM1.56098 35.3366C1.56098 24.7395 3.34061 16.6023 6.79486 10.8254L5.07831 9.79899C1.36508 16.0091 -0.439024 24.5548 -0.439024 35.3366H1.56098ZM6.79331 10.828C10.2112 5.15087 16.0721 2.22926 24.6585 2.22926V0.229262C15.5734 0.229262 8.95307 3.36294 5.07987 9.79641L6.79331 10.828ZM24.6585 2.22926C33.2455 2.22926 39.0711 5.15074 42.4272 10.8215L44.1484 9.80287C40.3371 3.36307 33.7431 0.229262 24.6585 0.229262V2.22926ZM42.4334 10.8319C45.9463 16.6072 47.7561 24.7417 47.7561 35.3366H49.7561C49.7561 24.5526 47.9204 16.0042 44.1422 9.79252L42.4334 10.8319ZM47.7561 35.3366C47.7561 46.0557 45.9461 54.3178 42.4288 60.2198L44.1468 61.2436C47.9206 54.9114 49.7561 46.2435 49.7561 35.3366H47.7561ZM42.4272 60.2224C39.0711 65.8932 33.2455 68.8146 24.6585 68.8146V70.8146C33.7431 70.8146 40.3371 67.6808 44.1484 61.241L42.4272 60.2224ZM24.6585 68.8146C16.0721 68.8146 10.2112 65.893 6.79331 60.2159L5.07987 61.2475C8.95307 67.681 15.5734 70.8146 24.6585 70.8146V68.8146ZM6.79942 60.2262C3.34076 54.3226 1.56098 46.0578 1.56098 35.3366H-0.439024C-0.439024 46.2413 1.36493 54.9066 5.07376 61.2372L6.79942 60.2262ZM39.3756 35.3366C39.3756 30.2915 39.0335 25.9902 38.3373 22.4463L36.3749 22.8318C37.0381 26.2082 37.3756 30.3719 37.3756 35.3366H39.3756ZM38.3405 22.4632C37.6961 18.8543 36.3299 15.8581 34.2014 13.5301L32.7254 14.8796C34.5514 16.8769 35.7804 19.5034 36.3717 22.8148L38.3405 22.4632ZM34.2108 13.5405C31.9896 11.0416 28.7436 9.86829 24.6585 9.86829V11.8683C28.3588 11.8683 30.9827 12.9193 32.716 14.8692L34.2108 13.5405ZM24.6585 9.86829C20.5735 9.86829 17.3275 11.0416 15.1063 13.5405L16.6011 14.8692C18.3343 12.9193 20.9582 11.8683 24.6585 11.8683V9.86829ZM15.1156 13.5301C12.9916 15.8533 11.5948 18.843 10.887 22.4463L12.8495 22.8318C13.5011 19.5148 14.7612 16.8817 16.5917 14.8796L15.1156 13.5301ZM10.8839 22.4632C10.2523 26 9.94146 30.2953 9.94146 35.3366H11.9415C11.9415 30.3681 12.2485 26.1983 12.8527 22.8148L10.8839 22.4632ZM9.94146 35.3366C9.94146 40.5613 10.2521 44.9795 10.8833 48.5777L12.8533 48.2321C12.2487 44.7864 11.9415 40.4923 11.9415 35.3366H9.94146ZM10.8833 48.5777C11.5268 52.2456 12.8916 55.2753 15.0229 57.6065L16.499 56.2569C14.6759 54.2629 13.4455 51.6081 12.8533 48.2321L10.8833 48.5777ZM15.0334 57.6177C17.315 60.0377 20.5799 61.1756 24.6585 61.1756V59.1756C20.9518 59.1756 18.285 58.151 16.4886 56.2457L15.0334 57.6177ZM24.6585 61.1756C28.7352 61.1756 31.9781 60.0383 34.2014 57.6065L32.7254 56.2569C30.9943 58.1503 28.3672 59.1756 24.6585 59.1756V61.1756ZM34.191 57.6177C36.3893 55.2862 37.789 52.2526 38.4337 48.5777L36.4638 48.2321C35.8728 51.6011 34.6156 54.252 32.7358 56.2457L34.191 57.6177ZM38.4337 48.5777C39.065 44.9795 39.3756 40.5613 39.3756 35.3366H37.3756C37.3756 40.4923 37.0683 44.7864 36.4638 48.2321L38.4337 48.5777ZM59.7506 19.1171L58.7527 19.0527L58.684 20.1171H59.7506V19.1171ZM66.3311 5.67805L65.7122 4.89253L65.7064 4.89718L66.3311 5.67805ZM93.1165 3.17561L92.6763 4.07353V4.07353L93.1165 3.17561ZM100.253 9.47804L101.109 8.96062V8.96062L100.253 9.47804ZM99.6043 28.2927L100.404 28.8927L99.6043 28.2927ZM92.2823 33.761L91.9723 32.8102L91.2823 33.0352V33.761H92.2823ZM92.2823 34.1317H91.2823V34.8721L91.9905 35.0882L92.2823 34.1317ZM100.809 40.2488L99.9851 40.8153L99.9907 40.8234L100.809 40.2488ZM101.365 61.1951L100.503 60.6889L101.365 61.1951ZM93.9506 67.961L94.391 68.8588L94.3978 68.8554L94.4045 68.852L93.9506 67.961ZM65.6823 65.2732L65.0522 66.0496L65.0583 66.0546L65.0645 66.0595L65.6823 65.2732ZM58.8238 50.4439V49.4439H57.7746L57.8249 50.4919L58.8238 50.4439ZM69.0189 50.4439L70.0161 50.3686L69.9463 49.4439H69.0189V50.4439ZM72.8189 58.5073L72.1423 59.2436L72.1478 59.2487L72.1533 59.2536L72.8189 58.5073ZM90.7994 58.5073L91.5065 59.2144L91.5118 59.2091L91.517 59.2038L90.7994 58.5073ZM89.6872 41.2683L89.1239 42.0945L89.1346 42.1018L89.1455 42.1089L89.6872 41.2683ZM74.6726 38.4878H73.6726V39.4878H74.6726V38.4878ZM74.6726 29.7756V28.7756H73.6726V29.7756H74.6726ZM77.175 29.7756V30.7757L77.1873 30.7755L77.175 29.7756ZM88.575 27.2732L88.0576 26.4174L88.0487 26.4229L88.575 27.2732ZM89.6872 12.6293L89.004 13.3595L89.0104 13.3655L89.0169 13.3714L89.6872 12.6293ZM73.4677 12.6293L74.138 13.3714L74.1445 13.3655L74.1508 13.3595L73.4677 12.6293ZM70.0384 19.1171V20.1171H70.9057L71.0284 19.2585L70.0384 19.1171ZM60.7485 19.1815C61.1036 13.6786 63.1867 9.47418 66.9558 6.45891L65.7064 4.89718C61.443 8.30793 59.1391 13.0629 58.7527 19.0527L60.7485 19.1815ZM66.95 6.46354C70.8164 3.4173 75.7744 1.85853 81.9018 1.85853V-0.14147C75.4244 -0.14147 70.002 1.51277 65.7122 4.89255L66.95 6.46354ZM81.9018 1.85853C86.1092 1.85853 89.6902 2.60976 92.6763 4.07353L93.5566 2.27769C90.2403 0.65202 86.3449 -0.14147 81.9018 -0.14147V1.85853ZM92.6763 4.07353C95.6785 5.54518 97.9025 7.5233 99.3973 9.99546L101.109 8.96062C99.3906 6.11896 96.8569 3.89546 93.5566 2.27769L92.6763 4.07353ZM99.3973 9.99546C100.902 12.4846 101.663 15.3 101.663 18.4683H103.663C103.663 14.9634 102.817 11.7853 101.109 8.96062L99.3973 9.99546ZM101.663 18.4683C101.663 22.1117 100.697 25.1688 98.8043 27.6927L100.404 28.8927C102.589 25.9791 103.663 22.4867 103.663 18.4683H101.663ZM98.8043 27.6927C96.8711 30.2702 94.5931 31.9556 91.9723 32.8102L92.5923 34.7117C95.6561 33.7126 98.2594 31.7525 100.404 28.8927L98.8043 27.6927ZM91.2823 33.761V34.1317H93.2823V33.761H91.2823ZM91.9905 35.0882C95.4333 36.1385 98.0822 38.0474 99.9851 40.8153L101.633 39.6823C99.4581 36.5185 96.4224 34.3493 92.5741 33.1752L91.9905 35.0882ZM99.9907 40.8234C101.882 43.5165 102.868 47.0375 102.868 51.4634H104.868C104.868 46.7446 103.815 42.7892 101.628 39.6741L99.9907 40.8234ZM102.868 51.4634C102.868 54.9504 102.072 58.016 100.503 60.6889L102.228 61.7013C103.995 58.6897 104.868 55.2675 104.868 51.4634H102.868ZM100.503 60.6889C98.9421 63.348 96.6216 65.478 93.4967 67.0699L94.4045 68.852C97.8292 67.1074 100.452 64.7268 102.228 61.7013L100.503 60.6889ZM93.5102 67.0632C90.4027 68.5876 86.6373 69.3707 82.1799 69.3707V71.3707C86.8672 71.3707 90.9489 70.5474 94.391 68.8588L93.5102 67.0632ZM82.1799 69.3707C75.6815 69.3707 70.414 67.7192 66.3001 64.4869L65.0645 66.0595C69.601 69.6239 75.3319 71.3707 82.1799 71.3707V69.3707ZM66.3125 64.4967C62.3085 61.2471 60.1205 56.5913 59.8226 50.3959L57.8249 50.4919C58.145 57.1486 60.5293 62.3789 65.0522 66.0496L66.3125 64.4967ZM58.8238 51.4439H69.0189V49.4439H58.8238V51.4439ZM68.0217 50.5192C68.2868 54.0309 69.6577 56.9605 72.1423 59.2436L73.4955 57.771C71.4077 55.8525 70.2453 53.4065 70.0161 50.3686L68.0217 50.5192ZM72.1533 59.2536C74.6681 61.4966 78.0177 62.5659 82.0872 62.5659V60.5659C78.3714 60.5659 75.542 59.5961 73.4845 57.761L72.1533 59.2536ZM82.0872 62.5659C86.0368 62.5659 89.2275 61.4934 91.5065 59.2144L90.0923 57.8002C88.2932 59.5993 85.6758 60.5659 82.0872 60.5659V62.5659ZM91.517 59.2038C93.7592 56.8936 94.8579 53.9452 94.8579 50.4439H92.8579C92.8579 53.4922 91.9176 55.9194 90.0818 57.8108L91.517 59.2038ZM94.8579 50.4439C94.8579 45.8962 93.3814 42.4594 90.2289 40.4277L89.1455 42.1089C91.5539 43.661 92.8579 46.3412 92.8579 50.4439H94.8579ZM90.2505 40.4421C87.2838 38.4193 82.8382 37.4878 77.0823 37.4878V39.4878C82.6956 39.4878 86.6532 40.41 89.1239 42.0945L90.2505 40.4421ZM77.0823 37.4878H74.6726V39.4878H77.0823V37.4878ZM75.6726 38.4878V29.7756H73.6726V38.4878H75.6726ZM74.6726 30.7756H77.175V28.7756H74.6726V30.7756ZM77.1873 30.7755C82.2698 30.7128 86.2822 29.8686 89.1014 28.1234L88.0487 26.4229C85.6776 27.8907 82.09 28.7149 77.1627 28.7757L77.1873 30.7755ZM89.0924 28.1289C92.0878 26.3178 93.5604 23.4354 93.5604 19.6732H91.5604C91.5604 22.8312 90.3761 25.0156 88.0576 26.4174L89.0924 28.1289ZM93.5604 19.6732C93.5604 16.4709 92.515 13.8359 90.3575 11.8872L89.0169 13.3714C90.6903 14.8828 91.5604 16.9437 91.5604 19.6732H93.5604ZM90.3704 11.899C88.2137 9.88147 85.218 8.94146 81.5311 8.94146V10.9415C84.8881 10.9415 87.3298 11.7933 89.004 13.3595L90.3704 11.899ZM81.5311 8.94146C77.9004 8.94146 74.9381 9.88433 72.7845 11.899L74.1508 13.3595C75.8281 11.7905 78.2415 10.9415 81.5311 10.9415V8.94146ZM72.7974 11.8872C70.7055 13.7766 69.4517 16.153 69.0485 18.9756L71.0284 19.2585C71.3666 16.8909 72.399 14.9421 74.138 13.3714L72.7974 11.8872ZM70.0384 18.1171H59.7506V20.1171H70.0384V18.1171Z" fill="url(#paint0_linear_805_7585)"/>
<defs>
<linearGradient id="paint0_linear_805_7585" x1="52.5" y1="3" x2="52.5" y2="72" gradientUnits="userSpaceOnUse">
<stop stop-color="#989898"/>
<stop offset="1" stop-color="#989898" stop-opacity="0"/>
</linearGradient>
</defs>
</svg>
