<svg width="78" height="69" viewBox="0 0 78 69" fill="none" xmlns="http://www.w3.org/2000/svg">
<path opacity="0.3" d="M5.93659 9.31219L5.07986 8.7964L5.07831 8.79899L5.93659 9.31219ZM43.2878 9.31219L42.4272 9.82155L42.4334 9.83186L43.2878 9.31219ZM43.2878 59.7317L42.4288 59.2198L42.4272 59.2224L43.2878 59.7317ZM5.93659 59.7317L5.0737 60.2372L5.07987 60.2475L5.93659 59.7317ZM37.3561 21.639L36.3717 21.8148L36.3732 21.8233L36.3749 21.8318L37.3561 21.639ZM33.4634 13.2049L32.7159 13.8693L32.7254 13.8796L33.4634 13.2049ZM15.8537 13.2049L16.5918 13.8797L16.6011 13.8692L15.8537 13.2049ZM11.8683 21.639L10.887 21.4463L10.8854 21.4547L10.8839 21.4632L11.8683 21.639ZM11.8683 47.4049L12.8533 47.2321L11.8683 47.4049ZM15.761 55.9317L15.0229 56.6065L15.0281 56.6121L15.0334 56.6177L15.761 55.9317ZM33.4634 55.9317L32.7358 55.2457L32.7306 55.2513L32.7254 55.2569L33.4634 55.9317ZM37.4488 47.4049L38.4337 47.5777L37.4488 47.4049ZM1.56098 34.3366C1.56098 23.7395 3.34061 15.6023 6.79486 9.82538L5.07831 8.79899C1.36508 15.0091 -0.439024 23.5548 -0.439024 34.3366H1.56098ZM6.79331 9.82797C10.2112 4.15087 16.0721 1.22926 24.6585 1.22926V-0.770738C15.5734 -0.770738 8.95307 2.36294 5.07987 8.79641L6.79331 9.82797ZM24.6585 1.22926C33.2455 1.22926 39.0711 4.15074 42.4272 9.82151L44.1484 8.80287C40.3371 2.36307 33.7431 -0.770738 24.6585 -0.770738V1.22926ZM42.4334 9.83186C45.9463 15.6072 47.7561 23.7417 47.7561 34.3366H49.7561C49.7561 23.5526 47.9204 15.0042 44.1422 8.79252L42.4334 9.83186ZM47.7561 34.3366C47.7561 45.0557 45.9461 53.3178 42.4288 59.2198L44.1468 60.2436C47.9206 53.9114 49.7561 45.2435 49.7561 34.3366H47.7561ZM42.4272 59.2224C39.0711 64.8932 33.2455 67.8146 24.6585 67.8146V69.8146C33.7431 69.8146 40.3371 66.6808 44.1484 60.241L42.4272 59.2224ZM24.6585 67.8146C16.0721 67.8146 10.2112 64.893 6.79331 59.2159L5.07987 60.2475C8.95307 66.681 15.5734 69.8146 24.6585 69.8146V67.8146ZM6.79942 59.2262C3.34076 53.3226 1.56098 45.0578 1.56098 34.3366H-0.439024C-0.439024 45.2413 1.36493 53.9066 5.07376 60.2372L6.79942 59.2262ZM39.3756 34.3366C39.3756 29.2915 39.0335 24.9902 38.3373 21.4463L36.3749 21.8318C37.0381 25.2082 37.3756 29.3719 37.3756 34.3366H39.3756ZM38.3405 21.4632C37.6961 17.8543 36.3299 14.8581 34.2014 12.5301L32.7254 13.8796C34.5514 15.8769 35.7804 18.5034 36.3717 21.8148L38.3405 21.4632ZM34.2108 12.5405C31.9896 10.0416 28.7436 8.86829 24.6585 8.86829V10.8683C28.3588 10.8683 30.9827 11.9193 32.716 13.8692L34.2108 12.5405ZM24.6585 8.86829C20.5735 8.86829 17.3275 10.0416 15.1063 12.5405L16.6011 13.8692C18.3343 11.9193 20.9582 10.8683 24.6585 10.8683V8.86829ZM15.1156 12.5301C12.9916 14.8533 11.5948 17.843 10.887 21.4463L12.8495 21.8318C13.5011 18.5148 14.7612 15.8817 16.5917 13.8796L15.1156 12.5301ZM10.8839 21.4632C10.2523 25 9.94146 29.2953 9.94146 34.3366H11.9415C11.9415 29.3681 12.2485 25.1983 12.8527 21.8148L10.8839 21.4632ZM9.94146 34.3366C9.94146 39.5613 10.2521 43.9795 10.8833 47.5777L12.8533 47.2321C12.2487 43.7864 11.9415 39.4923 11.9415 34.3366H9.94146ZM10.8833 47.5777C11.5268 51.2456 12.8916 54.2753 15.0229 56.6065L16.499 55.2569C14.6759 53.2629 13.4455 50.6081 12.8533 47.2321L10.8833 47.5777ZM15.0334 56.6177C17.315 59.0377 20.5799 60.1756 24.6585 60.1756V58.1756C20.9518 58.1756 18.285 57.151 16.4886 55.2457L15.0334 56.6177ZM24.6585 60.1756C28.7352 60.1756 31.9781 59.0383 34.2014 56.6065L32.7254 55.2569C30.9943 57.1503 28.3672 58.1756 24.6585 58.1756V60.1756ZM34.191 56.6177C36.3893 54.2862 37.789 51.2526 38.4337 47.5777L36.4638 47.2321C35.8728 50.6011 34.6156 53.252 32.7358 55.2457L34.191 56.6177ZM38.4337 47.5777C39.065 43.9795 39.3756 39.5613 39.3756 34.3366H37.3756C37.3756 39.4923 37.0683 43.7864 36.4638 47.2321L38.4337 47.5777ZM58.5457 11.0732H57.5457V12.0732H58.5457V11.0732ZM58.5457 1.43414V0.434141H57.5457V1.43414H58.5457ZM77.8238 1.43414H78.8238V0.434141H77.8238V1.43414ZM77.8238 69V70H78.8238V69H77.8238ZM67.1653 69H66.1653V70H67.1653V69ZM67.1653 11.0732H68.1653V10.0732H67.1653V11.0732ZM59.5457 11.0732V1.43414H57.5457V11.0732H59.5457ZM58.5457 2.43414H77.8238V0.434141H58.5457V2.43414ZM76.8238 1.43414V69H78.8238V1.43414H76.8238ZM77.8238 68H67.1653V70H77.8238V68ZM68.1653 69V11.0732H66.1653V69H68.1653ZM67.1653 10.0732H58.5457V12.0732H67.1653V10.0732Z" fill="url(#paint0_linear_805_7579)"/>
<defs>
<linearGradient id="paint0_linear_805_7579" x1="42.5" y1="2" x2="42.5" y2="69.1951" gradientUnits="userSpaceOnUse">
<stop stop-color="#989898"/>
<stop offset="1" stop-color="#989898" stop-opacity="0"/>
</linearGradient>
</defs>
</svg>
