<svg width="23" height="24" viewBox="0 0 23 24" fill="none" xmlns="http://www.w3.org/2000/svg">
<path d="M12.3774 17.7929C14.1786 17.7929 15.715 17.0906 16.5934 16.1247L21.8653 19.1543C19.7129 22.1407 16.4628 23.6795 12.2887 23.6795C4.77945 23.6795 0.122375 18.6282 0.122375 12.0824C0.122375 5.53666 4.86693 0.486572 11.8057 0.486572C18.2197 0.486572 22.963 5.44919 22.963 12.0812C22.9663 12.9668 22.8779 13.8504 22.6993 14.7177H7.10553C7.94084 17.0032 9.96877 17.7929 12.3774 17.7929ZM16.4172 9.79949C15.7149 7.25165 13.7388 6.32886 11.7626 6.32886C9.25789 6.32886 7.58971 7.56089 6.97493 9.79949H16.4172Z" fill="#469BD3"/>
</svg>
