<svg width="11" height="11" viewBox="0 0 11 11" fill="none" xmlns="http://www.w3.org/2000/svg">
<path d="M2.29199 8.25005H4.23533C4.29565 8.2504 4.35544 8.23884 4.41128 8.21603C4.46712 8.19322 4.51792 8.15962 4.56074 8.11714L7.73241 4.94089L9.03408 3.66672C9.07703 3.62411 9.11113 3.57342 9.1344 3.51757C9.15767 3.46172 9.16965 3.40181 9.16965 3.3413C9.16965 3.2808 9.15767 3.22089 9.1344 3.16504C9.11113 3.10919 9.07703 3.0585 9.03408 3.01589L7.09074 1.04964C7.04813 1.00668 6.99744 0.97258 6.94159 0.949312C6.88574 0.926043 6.82583 0.914062 6.76533 0.914062C6.70482 0.914063 6.64491 0.926043 6.58906 0.949312C6.53321 0.97258 6.48252 1.00668 6.43991 1.04964L5.14741 2.34672L1.96658 5.52297C1.9241 5.5658 1.89049 5.61659 1.86768 5.67243C1.84487 5.72827 1.83331 5.78807 1.83366 5.84839V7.79172C1.83366 7.91328 1.88195 8.02986 1.9679 8.11581C2.05386 8.20177 2.17043 8.25005 2.29199 8.25005ZM6.76533 2.0213L8.06241 3.31839L7.41158 3.96922L6.11449 2.67214L6.76533 2.0213ZM2.75033 6.0363L5.46824 3.31839L6.76533 4.61547L4.04741 7.33339H2.75033V6.0363ZM9.62533 9.16672H1.37533C1.25377 9.16672 1.13719 9.21501 1.05123 9.30096C0.965281 9.38692 0.916992 9.5035 0.916992 9.62505C0.916992 9.74661 0.965281 9.86319 1.05123 9.94915C1.13719 10.0351 1.25377 10.0834 1.37533 10.0834H9.62533C9.74688 10.0834 9.86346 10.0351 9.94942 9.94915C10.0354 9.86319 10.0837 9.74661 10.0837 9.62505C10.0837 9.5035 10.0354 9.38692 9.94942 9.30096C9.86346 9.21501 9.74688 9.16672 9.62533 9.16672Z" fill="#3E4A3D"/>
</svg>
