<svg width="14" height="15" viewBox="0 0 14 15" fill="none" xmlns="http://www.w3.org/2000/svg">
<path d="M9.24775 12.7501V12.7501C9.24775 12.8284 9.17924 12.9 9.08692 12.9H2.30439C2.21207 12.9 2.14356 12.8284 2.14356 12.7501V4.75014L2.14356 4.75004C2.14349 4.67182 2.21204 4.60005 2.30439 4.60005H3.50879V10.2499C3.50879 10.9987 4.14248 11.6 4.91319 11.6H9.24812L9.24775 12.7501ZM4.75218 2.25018L4.75218 2.25008C4.7521 2.17186 4.82066 2.10009 4.913 2.10009H11.6955C11.7879 2.10009 11.8564 2.17173 11.8564 2.25005L11.8565 10.2501C11.8565 10.3285 11.788 10.4001 11.6957 10.4001H9.87228H9.86952H9.86691H4.913C4.82068 10.4001 4.75218 10.3285 4.75218 10.2501L4.75218 2.25018ZM11.6956 0.9H4.91306C4.14235 0.9 3.50866 1.5013 3.50866 2.25005V3.39996H2.3044C1.53369 3.39996 0.9 4.00125 0.9 4.75V12.75C0.9 13.4987 1.53369 14.1 2.3044 14.1H9.08694C9.85765 14.1 10.4913 13.4987 10.4913 12.75V11.6H11.6956C12.4663 11.6 13.1 10.9987 13.1 10.25V2.25005C13.1 1.50183 12.4663 0.9 11.6956 0.9Z" fill="#469BD3" stroke="#469BD3" stroke-width="0.2"/>
</svg>
