<svg width="14" height="14" viewBox="0 0 14 14" fill="none" xmlns="http://www.w3.org/2000/svg">
<path d="M2.33334 11.0001H5.16C5.24774 11.0006 5.33472 10.9838 5.41594 10.9506C5.49717 10.9175 5.57104 10.8686 5.63334 10.8068L10.2467 6.18679L12.14 4.33346C12.2025 4.27148 12.2521 4.19775 12.2859 4.11651C12.3198 4.03527 12.3372 3.94813 12.3372 3.86012C12.3372 3.77211 12.3198 3.68498 12.2859 3.60374C12.2521 3.5225 12.2025 3.44876 12.14 3.38679L9.31334 0.526789C9.25136 0.464303 9.17763 0.414707 9.09639 0.380861C9.01515 0.347015 8.92801 0.32959 8.84 0.32959C8.752 0.32959 8.66486 0.347015 8.58362 0.380861C8.50238 0.414707 8.42865 0.464303 8.36667 0.526789L6.48667 2.41346L1.86 7.03346C1.79822 7.09575 1.74933 7.16963 1.71616 7.25085C1.68298 7.33208 1.66616 7.41905 1.66667 7.50679V10.3335C1.66667 10.5103 1.73691 10.6798 1.86193 10.8049C1.98696 10.9299 2.15652 11.0001 2.33334 11.0001ZM8.84 1.94012L10.7267 3.82679L9.78 4.77346L7.89334 2.88679L8.84 1.94012ZM3 7.78012L6.95334 3.82679L8.84 5.71346L4.88667 9.66679H3V7.78012ZM13 12.3335H1C0.823192 12.3335 0.653622 12.4037 0.528598 12.5287C0.403574 12.6537 0.333336 12.8233 0.333336 13.0001C0.333336 13.1769 0.403574 13.3465 0.528598 13.4715C0.653622 13.5966 0.823192 13.6668 1 13.6668H13C13.1768 13.6668 13.3464 13.5966 13.4714 13.4715C13.5964 13.3465 13.6667 13.1769 13.6667 13.0001C13.6667 12.8233 13.5964 12.6537 13.4714 12.5287C13.3464 12.4037 13.1768 12.3335 13 12.3335Z" fill="#3E4A3D"/>
</svg>
