<svg width="24" height="33" viewBox="0 0 24 33" fill="none" xmlns="http://www.w3.org/2000/svg">
<path d="M23.863 1.10259V21.9658C23.863 29.3444 18.1106 32.4639 12.2684 32.4639C7.70122 32.4639 3.87946 30.7502 1.85893 27.1489L7.48069 23.8951C8.31477 25.4315 9.58869 26.6623 12.4877 26.6623C15.5677 26.6623 17.4515 25.0804 17.4515 21.9621V19.9416C16.0014 21.7428 13.8934 22.7974 11.0388 22.7974C4.80102 22.7974 0.233887 17.7017 0.233887 11.6401C0.233887 5.57855 4.80102 0.486572 11.0388 0.486572C13.8934 0.486572 16.0014 1.53996 17.4515 3.34119V1.10259H23.863ZM17.4564 11.6438C17.4564 8.61304 15.261 6.54816 12.1415 6.54816C9.02196 6.54816 6.82278 8.61797 6.82278 11.6438C6.82278 14.6697 9.01826 16.7395 12.1365 16.7395C15.2548 16.7395 17.4515 14.6746 17.4515 11.6438H17.4564Z" fill="#F27A30"/>
</svg>
