<svg width="24" height="23" viewBox="0 0 24 23" fill="none" xmlns="http://www.w3.org/2000/svg">
<path fill-rule="evenodd" clip-rule="evenodd" d="M6.37472 1.30713C5.60702 1.30974 4.87162 1.61636 4.32946 2.1599C3.78731 2.70344 3.48256 3.43962 3.48191 4.20733C3.48061 4.70322 3.60796 5.19097 3.85152 5.62293C2.39011 7.22885 1.50696 9.27688 1.34224 11.442C1.17751 13.607 1.74066 15.7651 2.94228 17.5736C2.46032 18.1682 2.23427 18.9298 2.31387 19.691C2.39346 20.4522 2.77219 21.1506 3.36672 21.6325C3.96125 22.1145 4.72288 22.3406 5.48408 22.261C6.24528 22.1814 6.94368 21.8026 7.42564 21.2081C9.50009 22.031 11.7953 22.1111 13.9221 21.4347C16.0488 20.7584 17.8761 19.3672 19.0942 17.4972C19.3408 17.5666 19.5957 17.6023 19.8519 17.6032C20.548 17.6048 21.2214 17.3554 21.7485 16.9006C22.2755 16.4458 22.6209 15.8162 22.7213 15.1273C22.8216 14.4385 22.6702 13.7365 22.2947 13.1503C21.9193 12.564 21.345 12.1329 20.6774 11.9359C20.645 10.4998 20.2936 9.08896 19.6486 7.80552C19.0036 6.52207 18.0812 5.39819 16.9482 4.51531C15.8151 3.63242 14.4999 3.01265 13.0977 2.70091C11.6956 2.38916 10.2416 2.39325 8.84124 2.71287C8.58625 2.28574 8.22511 1.93183 7.79292 1.68551C7.36073 1.43919 6.87217 1.30884 6.37472 1.30713ZM6.37472 2.27674C7.55131 2.34573 8.28929 3.15394 8.29792 4.20733C8.29759 4.45945 8.24757 4.70903 8.15072 4.9418C8.05386 5.17457 7.91207 5.38597 7.73345 5.5639C7.55484 5.74183 7.3429 5.88281 7.10975 5.97877C6.87661 6.07472 6.62684 6.12378 6.37472 6.12313C6.12146 6.12796 5.86982 6.08176 5.63479 5.98728C5.39976 5.8928 5.18616 5.75199 5.0067 5.57322C4.82724 5.39445 4.6856 5.18139 4.59022 4.94672C4.49484 4.71206 4.44767 4.4606 4.45152 4.20733C4.4494 3.95383 4.49764 3.70243 4.59344 3.46773C4.68925 3.23302 4.83071 3.01968 5.00962 2.84008C5.18853 2.66048 5.40133 2.5182 5.63567 2.4215C5.87 2.32479 6.12121 2.27559 6.37472 2.27674ZM10.9936 3.44347C13.2466 3.44308 15.4123 4.31547 17.0359 5.87753C18.6595 7.4396 19.6149 9.56989 19.7016 11.8213C19.0999 11.855 18.5237 12.0757 18.0535 12.4526C17.5833 12.8296 17.2424 13.3439 17.0786 13.9238C16.9147 14.5038 16.9359 15.1204 17.1394 15.6877C17.3428 16.2549 17.7182 16.7446 18.2133 17.0882C17.1159 18.7112 15.5034 19.9169 13.6363 20.5104C11.7692 21.1039 9.75649 21.0507 7.92338 20.3592C8.04323 20.0393 8.10457 19.7005 8.10449 19.3588C8.10701 18.8405 7.96982 18.3312 7.70736 17.8842C7.44489 17.4373 7.06684 17.0694 6.61297 16.8191C6.1591 16.5689 5.64618 16.4455 5.12815 16.4621C4.61013 16.4787 4.10613 16.6345 3.66918 16.9133C2.76556 15.4979 2.28747 13.8528 2.29177 12.1736C2.28316 10.0399 3.0623 7.97796 4.47985 6.38309C4.89796 6.74762 5.41206 6.98425 5.96089 7.06479C6.50972 7.14532 7.07013 7.06637 7.57534 6.83733C8.08055 6.60829 8.50925 6.23882 8.81037 5.77296C9.11148 5.3071 9.27231 4.76449 9.27368 4.20979C9.27334 4.01393 9.2527 3.81864 9.21208 3.62704C9.798 3.50457 10.395 3.44305 10.9936 3.44347ZM19.8531 12.7798C20.994 12.7638 21.7468 13.6964 21.7689 14.703C21.771 14.9559 21.7231 15.2068 21.6277 15.4411C21.5324 15.6753 21.3916 15.8884 21.2135 16.068C21.0354 16.2476 20.8235 16.3902 20.59 16.4875C20.3565 16.5847 20.1061 16.6348 19.8531 16.6348C18.8022 16.6016 17.9509 15.6492 17.9299 14.703C17.9289 14.4501 17.978 14.1995 18.0743 13.9657C18.1706 13.7318 18.3122 13.5194 18.491 13.3405C18.6697 13.1616 18.8821 13.0199 19.1159 12.9234C19.3497 12.827 19.6002 12.7777 19.8531 12.7786V12.7798ZM5.21538 17.4282C5.46821 17.4282 5.71855 17.4783 5.95195 17.5755C6.18536 17.6727 6.39722 17.8151 6.57531 17.9946C6.7534 18.1741 6.89421 18.387 6.98962 18.6211C7.08502 18.8553 7.13313 19.106 7.13118 19.3588C7.07451 20.4196 6.28108 21.2537 5.21538 21.2746C4.96326 21.2753 4.71349 21.2262 4.48034 21.1303C4.2472 21.0343 4.03526 20.8933 3.85664 20.7154C3.67802 20.5375 3.53623 20.3261 3.43938 20.0933C3.34252 19.8605 3.2925 19.611 3.29218 19.3588C3.31189 18.2488 4.05604 17.4443 5.21538 17.4282Z" fill="#F27A30" stroke="#F27A30" stroke-miterlimit="10"/>
</svg>
