<svg width="20" height="24" viewBox="0 0 20 24" fill="none" xmlns="http://www.w3.org/2000/svg">
<path d="M19.1486 16.4759C19.1486 21.5272 14.7564 23.6796 10.0131 23.6796C5.61967 23.6796 2.2821 22.0102 0.56958 18.4521L6.2788 15.202C6.85046 16.8714 8.08004 17.7892 10.0131 17.7892C11.5938 17.7892 12.3848 17.3063 12.3848 16.4278C12.3848 14.0118 1.57984 15.2857 1.57984 7.68781C1.57984 2.90014 5.61967 0.484131 10.1893 0.484131C13.7461 0.484131 16.9088 2.06482 18.7531 5.18432L13.1314 8.21389C12.5153 7.07179 11.6369 6.28206 10.1893 6.28206C9.04594 6.28206 8.34122 6.72066 8.34122 7.51409C8.34368 10.0188 19.1486 8.34941 19.1486 16.4759Z" fill="#469BD3"/>
</svg>
