<svg width="182" height="131" viewBox="0 0 182 131" fill="none" xmlns="http://www.w3.org/2000/svg">
<path d="M20.9168 122.584L19.5895 124.3L20.9168 122.584ZM5.45397 100.249L3.40686 100.967L3.41251 100.983L3.41841 100.999L5.45397 100.249ZM6.02667 32.2886L8.04448 33.0851L8.04798 33.0761L6.02667 32.2886ZM21.6804 9.18978L23.0817 10.8458L23.0845 10.8434L21.6804 9.18978ZM84.6773 30.9523L82.6301 31.6701L82.6358 31.6862L82.6417 31.7023L84.6773 30.9523ZM84.2955 98.9125L86.3133 99.709L86.3168 99.7001L84.2955 98.9125ZM68.4508 122.011L69.8365 123.68L69.8457 123.673L69.8548 123.665L68.4508 122.011ZM57.7604 114.757L55.8906 113.657L55.8785 113.678L55.8667 113.699L57.7604 114.757ZM63.4874 97.0035L65.6262 97.3661L63.4874 97.0035ZM62.9147 39.7337L60.7781 40.109L60.779 40.114L62.9147 39.7337ZM55.2787 17.5894L53.4342 18.7312L53.444 18.7469L53.454 18.7624L55.2787 17.5894ZM32.7526 15.8713L30.9224 14.7066L30.9097 14.7266L30.8974 14.7469L32.7526 15.8713ZM26.8347 33.434L24.7021 33.0364L24.6994 33.0509L24.6969 33.0654L26.8347 33.434ZM27.4074 91.2766L25.2708 91.6519L25.2717 91.6569L27.4074 91.2766ZM35.0434 113.23L33.2186 114.403L33.2284 114.418L33.2384 114.433L35.0434 113.23ZM45.1611 128.242C36.1707 128.242 28.5693 125.761 22.2442 120.868L19.5895 124.3C26.7546 129.843 35.316 132.58 45.1611 132.58V128.242ZM22.2442 120.868C15.8826 115.947 10.9418 108.869 7.48953 99.4989L3.41841 100.999C7.09306 110.973 12.4608 118.785 19.5895 124.3L22.2442 120.868ZM7.50108 99.531C4.1652 90.0176 2.469 78.6902 2.469 65.5051H-1.86963C-1.86963 79.046 -0.129643 90.8811 3.40686 100.967L7.50108 99.531ZM2.469 65.5051C2.469 53.2526 4.34438 42.4586 8.04446 33.0851L4.00887 31.4921C0.0729709 41.4631 -1.86963 52.8134 -1.86963 65.5051H2.469ZM8.04798 33.0761C11.7626 23.542 16.7926 16.1673 23.0817 10.8458L20.2792 7.53376C13.3326 13.4117 7.92674 21.4362 4.00535 31.5011L8.04798 33.0761ZM23.0845 10.8434C29.4346 5.45183 36.7629 2.76861 45.1611 2.76861V-1.57001C35.7419 -1.57001 27.4165 1.47376 20.2764 7.53613L23.0845 10.8434ZM45.1611 2.76861C54.1514 2.76861 61.7528 5.24897 68.0779 10.142L70.7326 6.71035C63.5676 1.16756 55.0062 -1.57001 45.1611 -1.57001V2.76861ZM68.0779 10.142C74.426 15.0528 79.3021 22.1791 82.6301 31.6701L86.7244 30.2345C83.18 20.1265 77.8748 12.2354 70.7326 6.71035L68.0779 10.142ZM82.6417 31.7023C86.0948 41.075 87.8531 52.3261 87.8531 65.5051H92.1917C92.1917 51.9582 90.3866 40.1741 86.7128 30.2024L82.6417 31.7023ZM87.8531 65.5051C87.8531 77.7568 85.978 88.6185 82.2741 98.125L86.3168 99.7001C90.2489 89.6076 92.1917 78.1976 92.1917 65.5051H87.8531ZM82.2777 98.116C78.5677 107.515 73.4759 114.899 67.0468 120.358L69.8548 123.665C76.9159 117.67 82.3872 109.655 86.3133 99.709L82.2777 98.116ZM67.0651 120.342C60.7101 125.618 53.4373 128.242 45.1611 128.242V132.58C54.4476 132.58 62.7012 129.604 69.8365 123.68L67.0651 120.342ZM48.5973 123.417C53.3399 123.417 57.0029 120.56 59.6541 115.815L55.8667 113.699C53.6818 117.609 51.236 119.078 48.5973 119.078V123.417ZM59.6302 115.857C62.3598 111.217 64.3299 105.014 65.6262 97.3661L61.3486 96.641C60.0996 104.01 58.2517 109.644 55.8906 113.657L59.6302 115.857ZM65.6262 97.3661C66.9235 89.712 67.5657 81.0605 67.5657 71.423H63.2271C63.2271 80.8755 62.5966 89.2776 61.3486 96.641L65.6262 97.3661ZM67.5657 71.423C67.5657 59.4903 66.732 48.7962 65.0504 39.3534L60.779 40.114C62.4063 49.252 63.2271 59.6842 63.2271 71.423H67.5657ZM65.0513 39.3583C63.3697 29.7864 60.7538 22.0945 57.1035 16.4163L53.454 18.7624C56.676 23.7746 59.1508 30.8456 60.7781 40.109L65.0513 39.3583ZM57.1232 16.4475C53.5005 10.5955 48.5371 7.40226 42.2976 7.40226V11.7409C46.7484 11.7409 50.4391 13.8929 53.4342 18.7312L57.1232 16.4475ZM42.2976 7.40226C37.6169 7.40226 33.8386 10.124 30.9224 14.7066L34.5828 17.0359C37.0118 13.2189 39.5968 11.7409 42.2976 11.7409V7.40226ZM30.8974 14.7469C28.1628 19.2589 26.1263 25.3975 24.7021 33.0364L28.9673 33.8316C30.3429 26.4531 32.2517 20.8831 34.6078 16.9956L30.8974 14.7469ZM24.6969 33.0654C23.398 40.5991 22.7564 49.3178 22.7564 59.2054H27.095C27.095 49.4941 27.7261 41.0318 28.9725 33.8026L24.6969 33.0654ZM22.7564 59.2054C22.7564 71.2645 23.59 82.084 25.2708 91.6519L29.544 90.9012C27.9159 81.6337 27.095 71.0724 27.095 59.2054H22.7564ZM25.2717 91.6569C26.9543 101.105 29.5712 108.729 33.2186 114.403L36.8682 112.057C33.6432 107.04 31.1695 100.029 29.5431 90.8962L25.2717 91.6569ZM33.2384 114.433C37.1233 120.261 42.2648 123.417 48.5973 123.417V119.078C43.9848 119.078 40.0904 116.89 36.8484 112.027L33.2384 114.433ZM124.982 128.502H122.813V130.671H124.982V128.502ZM124.982 125.448L124.18 123.432L122.813 123.976V125.448H124.982ZM142.736 118.384L143.538 120.4L144.905 119.856V118.384H142.736ZM142.736 23.1254H144.905V19.7071L141.812 21.1626L142.736 23.1254ZM110.283 38.3974H108.114V41.8158L111.207 40.3602L110.283 38.3974ZM110.283 31.1432L109.154 29.2911L108.114 29.9252V31.1432H110.283ZM157.244 2.50829V0.338982H156.635L156.115 0.656144L157.244 2.50829ZM165.835 2.50829H168.004V0.338982H165.835V2.50829ZM165.835 118.384H163.666V119.792L164.952 120.366L165.835 118.384ZM181.68 125.448H183.849V124.04L182.563 123.466L181.68 125.448ZM181.68 128.502V130.671H183.849V128.502H181.68ZM127.152 128.502V125.448H122.813V128.502H127.152ZM125.784 127.463L143.538 120.4L141.934 116.369L124.18 123.432L125.784 127.463ZM144.905 118.384V23.1254H140.567V118.384H144.905ZM141.812 21.1626L109.359 36.4346L111.207 40.3602L143.66 25.0883L141.812 21.1626ZM112.452 38.3974V31.1432H108.114V38.3974H112.452ZM111.412 32.9954L158.374 4.36045L156.115 0.656144L109.154 29.2911L111.412 32.9954ZM157.244 4.67761H165.835V0.338982H157.244V4.67761ZM163.666 2.50829V118.384H168.004V2.50829H163.666ZM164.952 120.366L180.796 127.429L182.563 123.466L166.718 116.403L164.952 120.366ZM179.51 125.448V128.502H183.849V125.448H179.51ZM181.68 126.333H124.982V130.671H181.68V126.333Z" fill="url(#paint0_linear_806_7978)"/>
<defs>
<linearGradient id="paint0_linear_806_7978" x1="96.5" y1="-5.49805" x2="96.5" y2="128.999" gradientUnits="userSpaceOnUse">
<stop stop-color="white"/>
<stop offset="1" stop-color="white" stop-opacity="0"/>
</linearGradient>
</defs>
</svg>
