<svg width="192" height="131" viewBox="0 0 192 131" fill="none" xmlns="http://www.w3.org/2000/svg">
<path d="M20.9168 122.584L19.5895 124.3L20.9168 122.584ZM5.45397 100.249L3.40686 100.967L3.41251 100.983L3.41841 100.999L5.45397 100.249ZM6.02667 32.2886L8.04448 33.0851L8.04798 33.0761L6.02667 32.2886ZM21.6804 9.18978L23.0817 10.8458L23.0845 10.8434L21.6804 9.18978ZM84.6773 30.9523L82.6301 31.6701L82.6358 31.6862L82.6417 31.7023L84.6773 30.9523ZM84.2955 98.9125L86.3133 99.709L86.3168 99.7001L84.2955 98.9125ZM68.4508 122.011L69.8365 123.68L69.8457 123.673L69.8548 123.665L68.4508 122.011ZM57.7604 114.757L55.8906 113.657L55.8785 113.678L55.8667 113.699L57.7604 114.757ZM63.4874 97.0035L65.6262 97.3661L63.4874 97.0035ZM62.9147 39.7337L60.7781 40.109L60.779 40.114L62.9147 39.7337ZM55.2787 17.5894L53.4342 18.7312L53.444 18.7469L53.454 18.7624L55.2787 17.5894ZM32.7526 15.8713L30.9224 14.7066L30.9097 14.7266L30.8974 14.7469L32.7526 15.8713ZM26.8347 33.434L24.7021 33.0364L24.6994 33.0509L24.6969 33.0654L26.8347 33.434ZM27.4074 91.2766L25.2708 91.6519L25.2717 91.6569L27.4074 91.2766ZM35.0434 113.23L33.2186 114.403L33.2284 114.418L33.2384 114.433L35.0434 113.23ZM45.1611 128.242C36.1707 128.242 28.5693 125.761 22.2442 120.868L19.5895 124.3C26.7546 129.843 35.316 132.58 45.1611 132.58V128.242ZM22.2442 120.868C15.8826 115.947 10.9418 108.869 7.48953 99.4989L3.41841 100.999C7.09306 110.973 12.4608 118.785 19.5895 124.3L22.2442 120.868ZM7.50108 99.531C4.1652 90.0176 2.469 78.6902 2.469 65.5051H-1.86963C-1.86963 79.046 -0.129643 90.8811 3.40686 100.967L7.50108 99.531ZM2.469 65.5051C2.469 53.2526 4.34438 42.4586 8.04446 33.0851L4.00887 31.4921C0.0729709 41.4631 -1.86963 52.8134 -1.86963 65.5051H2.469ZM8.04798 33.0761C11.7626 23.542 16.7926 16.1673 23.0817 10.8458L20.2792 7.53376C13.3326 13.4117 7.92674 21.4362 4.00535 31.5011L8.04798 33.0761ZM23.0845 10.8434C29.4346 5.45183 36.7629 2.76861 45.1611 2.76861V-1.57001C35.7419 -1.57001 27.4165 1.47376 20.2764 7.53613L23.0845 10.8434ZM45.1611 2.76861C54.1514 2.76861 61.7528 5.24897 68.0779 10.142L70.7326 6.71035C63.5676 1.16756 55.0062 -1.57001 45.1611 -1.57001V2.76861ZM68.0779 10.142C74.426 15.0528 79.3021 22.1791 82.6301 31.6701L86.7244 30.2345C83.18 20.1265 77.8748 12.2354 70.7326 6.71035L68.0779 10.142ZM82.6417 31.7023C86.0948 41.075 87.8531 52.3261 87.8531 65.5051H92.1917C92.1917 51.9582 90.3866 40.1741 86.7128 30.2024L82.6417 31.7023ZM87.8531 65.5051C87.8531 77.7568 85.978 88.6185 82.2741 98.125L86.3168 99.7001C90.2489 89.6076 92.1917 78.1976 92.1917 65.5051H87.8531ZM82.2777 98.116C78.5677 107.515 73.4759 114.899 67.0468 120.358L69.8548 123.665C76.9159 117.67 82.3872 109.655 86.3133 99.709L82.2777 98.116ZM67.0651 120.342C60.7101 125.618 53.4373 128.242 45.1611 128.242V132.58C54.4476 132.58 62.7012 129.604 69.8365 123.68L67.0651 120.342ZM48.5973 123.417C53.3399 123.417 57.0029 120.56 59.6541 115.815L55.8667 113.699C53.6818 117.609 51.236 119.078 48.5973 119.078V123.417ZM59.6302 115.857C62.3598 111.217 64.3299 105.014 65.6262 97.3661L61.3486 96.641C60.0996 104.01 58.2517 109.644 55.8906 113.657L59.6302 115.857ZM65.6262 97.3661C66.9235 89.712 67.5657 81.0605 67.5657 71.423H63.2271C63.2271 80.8755 62.5966 89.2776 61.3486 96.641L65.6262 97.3661ZM67.5657 71.423C67.5657 59.4903 66.732 48.7962 65.0504 39.3534L60.779 40.114C62.4063 49.252 63.2271 59.6842 63.2271 71.423H67.5657ZM65.0513 39.3583C63.3697 29.7864 60.7538 22.0945 57.1035 16.4163L53.454 18.7624C56.676 23.7746 59.1508 30.8456 60.7781 40.109L65.0513 39.3583ZM57.1232 16.4475C53.5005 10.5955 48.5371 7.40226 42.2976 7.40226V11.7409C46.7484 11.7409 50.4391 13.8929 53.4342 18.7312L57.1232 16.4475ZM42.2976 7.40226C37.6169 7.40226 33.8386 10.124 30.9224 14.7066L34.5828 17.0359C37.0118 13.2189 39.5968 11.7409 42.2976 11.7409V7.40226ZM30.8974 14.7469C28.1628 19.2589 26.1263 25.3975 24.7021 33.0364L28.9673 33.8316C30.3429 26.4531 32.2517 20.8831 34.6078 16.9956L30.8974 14.7469ZM24.6969 33.0654C23.398 40.5991 22.7564 49.3178 22.7564 59.2054H27.095C27.095 49.4941 27.7261 41.0318 28.9725 33.8026L24.6969 33.0654ZM22.7564 59.2054C22.7564 71.2645 23.59 82.084 25.2708 91.6519L29.544 90.9012C27.9159 81.6337 27.095 71.0724 27.095 59.2054H22.7564ZM25.2717 91.6569C26.9543 101.105 29.5712 108.729 33.2186 114.403L36.8682 112.057C33.6432 107.04 31.1695 100.029 29.5431 90.8962L25.2717 91.6569ZM33.2384 114.433C37.1233 120.261 42.2648 123.417 48.5973 123.417V119.078C43.9848 119.078 40.0904 116.89 36.8484 112.027L33.2384 114.433ZM106.274 128.502H104.105V130.671H106.274V128.502ZM106.274 122.393L104.656 120.949L104.105 121.566V122.393H106.274ZM132.427 92.6129L130.793 91.1862L130.787 91.1936L130.78 91.2011L132.427 92.6129ZM148.845 72.3775L147.105 71.0824L147.095 71.0956L147.085 71.1089L148.845 72.3775ZM157.817 58.06L159.781 58.9808L157.817 58.06ZM161.444 46.2243L163.594 46.511L163.596 46.5019L161.444 46.2243ZM157.244 16.444L155.521 17.7617V17.7617L157.244 16.444ZM124.219 40.3064L125.954 41.608L126.388 41.0295V40.3064H124.219ZM123.073 41.8336V44.0029H124.158L124.809 43.1352L123.073 41.8336ZM107.42 23.1254L105.577 21.9814L105.571 21.9905L105.565 21.9996L107.42 23.1254ZM117.919 12.4351L116.684 10.6515L116.662 10.6668L116.64 10.6827L117.919 12.4351ZM127.464 6.32628L126.371 4.45247L127.464 6.32628ZM137.582 2.12649L137.023 0.0304232L137.014 0.0328174L137.005 0.0352883L137.582 2.12649ZM169.844 5.18089L168.787 7.07513L168.796 7.08027L168.805 7.08532L169.844 5.18089ZM182.825 17.3985L180.965 18.5146L180.975 18.5315L180.985 18.5482L182.825 17.3985ZM186.07 45.6516L183.99 45.0353L183.98 45.0711L183.97 45.1072L186.07 45.6516ZM181.107 56.3419L182.921 57.5308L181.107 56.3419ZM170.798 68.9413L169.222 67.4506L169.212 67.462L169.201 67.4735L170.798 68.9413ZM154.19 85.9314L155.694 87.4945L155.702 87.4872L155.709 87.4798L154.19 85.9314ZM129.373 109.412L127.891 107.827L123.877 111.581H129.373V109.412ZM177.862 109.412V111.581H179.132L179.753 110.474L177.862 109.412ZM188.361 90.7039V88.5345H187.091L186.469 89.6422L188.361 90.7039ZM191.415 90.7039L193.582 90.8133L193.697 88.5345H191.415V90.7039ZM189.506 128.502V130.671H191.569L191.673 128.611L189.506 128.502ZM108.444 128.502V122.393H104.105V128.502H108.444ZM107.893 123.838C118.461 111.996 127.189 102.057 134.075 94.0246L130.78 91.2011C123.921 99.2039 115.213 109.119 104.656 120.949L107.893 123.838ZM134.062 94.0395C141.083 85.9963 146.604 79.1949 150.605 73.6461L147.085 71.1089C143.195 76.505 137.771 83.1938 130.793 91.1862L134.062 94.0395ZM150.585 73.6726C154.705 68.1366 157.787 63.2343 159.781 58.9808L155.853 57.1393C154.029 61.0308 151.13 65.6736 147.105 71.0824L150.585 73.6726ZM159.781 58.9808C161.769 54.7405 163.052 50.5818 163.594 46.511L159.294 45.9376C158.819 49.5027 157.683 53.2346 155.853 57.1393L159.781 58.9808ZM163.596 46.5019C164.119 42.4475 164.377 37.9621 164.377 33.0522H160.038C160.038 37.8145 159.788 42.1106 159.293 45.9467L163.596 46.5019ZM164.377 33.0522C164.377 25.9466 162.629 19.9143 158.968 15.1262L155.521 17.7617C158.478 21.6277 160.038 26.6676 160.038 33.0522H164.377ZM158.968 15.1262C155.224 10.2311 150.053 7.78406 143.691 7.78406V12.1227C148.782 12.1227 152.647 14.0027 155.521 17.7617L158.968 15.1262ZM143.691 7.78406C136.805 7.78406 131.26 9.7013 127.476 13.8927C123.731 18.0419 122.049 24.0518 122.049 31.525H126.388C126.388 24.6171 127.952 19.8412 130.697 16.7998C133.404 13.8007 137.595 12.1227 143.691 12.1227V7.78406ZM122.049 31.525V40.3064H126.388V31.525H122.049ZM122.483 39.0048L121.338 40.532L124.809 43.1352L125.954 41.608L122.483 39.0048ZM123.073 39.6643H111.81V44.0029H123.073V39.6643ZM111.81 39.6643C109.452 39.6643 108.069 39.2395 107.327 38.7201L104.839 42.2745C106.643 43.5369 109.078 44.0029 111.81 44.0029V39.6643ZM107.327 38.7201C107.257 38.6708 106.983 38.4238 106.737 37.5628C106.496 36.7176 106.344 35.4919 106.344 33.8158H102.005C102.005 35.7032 102.171 37.3728 102.566 38.7547C102.956 40.1209 103.637 41.4329 104.839 42.2745L107.327 38.7201ZM106.344 33.8158C106.344 30.7126 107.281 27.5338 109.274 24.2513L105.565 21.9996C103.231 25.844 102.005 29.7921 102.005 33.8158H106.344ZM109.263 24.2694C111.365 20.8819 114.642 17.512 119.198 14.1874L116.64 10.6827C111.779 14.2305 108.056 17.9875 105.577 21.9814L109.263 24.2694ZM119.154 14.2187C122.423 11.9555 125.557 9.95005 128.557 8.20009L126.371 4.45247C123.262 6.26597 120.033 8.33305 116.684 10.6515L119.154 14.2187ZM128.557 8.20009C131.437 6.52027 134.634 5.19006 138.159 4.21769L137.005 0.0352883C133.148 1.09919 129.6 2.56883 126.371 4.45247L128.557 8.20009ZM138.141 4.22256C141.733 3.26468 145.992 2.76861 150.945 2.76861V-1.57001C145.717 -1.57001 141.067 -1.04795 137.023 0.0304232L138.141 4.22256ZM150.945 2.76861C157.753 2.76861 163.679 4.22466 168.787 7.07513L170.901 3.28665C165.063 0.0283356 158.39 -1.57001 150.945 -1.57001V2.76861ZM168.805 7.08532C174.092 9.969 178.124 13.7797 180.965 18.5146L184.685 16.2824C181.417 10.8359 176.795 6.50155 170.883 3.27646L168.805 7.08532ZM180.985 18.5482C183.943 23.2803 185.428 28.5424 185.428 34.3885H189.767C189.767 27.7625 188.07 21.6979 184.665 16.2487L180.985 18.5482ZM185.428 34.3885C185.428 38.2803 184.942 41.8243 183.99 45.0353L188.15 46.2679C189.235 42.6065 189.767 38.6418 189.767 34.3885H185.428ZM183.97 45.1072C183.151 48.2666 181.611 51.6141 179.292 55.1531L182.921 57.5308C185.439 53.6883 187.208 49.909 188.17 46.196L183.97 45.1072ZM179.292 55.1531C176.969 58.6991 173.625 62.796 169.222 67.4506L172.374 70.4321C176.88 65.6689 180.409 61.3662 182.921 57.5308L179.292 55.1531ZM169.201 67.4735C164.908 72.1452 159.4 77.7802 152.671 84.3829L155.709 87.4798C162.47 80.8469 168.034 75.1551 172.396 70.4091L169.201 67.4735ZM152.686 84.3682C145.951 90.8493 137.686 98.6686 127.891 107.827L130.855 110.997C140.659 101.829 148.939 93.9946 155.694 87.4945L152.686 84.3682ZM129.373 111.581H177.862V107.243H129.373V111.581ZM179.753 110.474L190.253 91.7655L186.469 89.6422L175.97 108.35L179.753 110.474ZM188.361 92.8732H191.415V88.5345H188.361V92.8732ZM189.249 90.5944L187.34 128.393L191.673 128.611L193.582 90.8133L189.249 90.5944ZM189.506 126.333H106.274V130.671H189.506V126.333Z" fill="url(#paint0_linear_806_7979)"/>
<defs>
<linearGradient id="paint0_linear_806_7979" x1="96.5" y1="-5.49805" x2="96.5" y2="128.999" gradientUnits="userSpaceOnUse">
<stop stop-color="white"/>
<stop offset="1" stop-color="white" stop-opacity="0"/>
</linearGradient>
</defs>
</svg>
