<svg width="188" height="131" viewBox="0 0 188 131" fill="none" xmlns="http://www.w3.org/2000/svg">
<path d="M20.9168 122.584L19.5895 124.3L20.9168 122.584ZM5.45397 100.249L3.40686 100.967L3.41251 100.983L3.41841 100.999L5.45397 100.249ZM6.02667 32.2886L8.04448 33.0851L8.04798 33.0761L6.02667 32.2886ZM21.6804 9.18978L23.0817 10.8458L23.0845 10.8434L21.6804 9.18978ZM84.6773 30.9523L82.6301 31.6701L82.6358 31.6862L82.6417 31.7023L84.6773 30.9523ZM84.2955 98.9125L86.3133 99.709L86.3168 99.7001L84.2955 98.9125ZM68.4508 122.011L69.8365 123.68L69.8457 123.673L69.8548 123.665L68.4508 122.011ZM57.7604 114.757L55.8906 113.657L55.8785 113.678L55.8667 113.699L57.7604 114.757ZM63.4874 97.0035L65.6262 97.3661L63.4874 97.0035ZM62.9147 39.7337L60.7781 40.109L60.779 40.114L62.9147 39.7337ZM55.2787 17.5894L53.4342 18.7312L53.444 18.7469L53.454 18.7624L55.2787 17.5894ZM32.7526 15.8713L30.9224 14.7066L30.9097 14.7266L30.8974 14.7469L32.7526 15.8713ZM26.8347 33.434L24.7021 33.0364L24.6994 33.0509L24.6969 33.0654L26.8347 33.434ZM27.4074 91.2766L25.2708 91.6519L25.2717 91.6569L27.4074 91.2766ZM35.0434 113.23L33.2186 114.403L33.2284 114.418L33.2384 114.433L35.0434 113.23ZM45.1611 128.242C36.1707 128.242 28.5693 125.761 22.2442 120.868L19.5895 124.3C26.7546 129.843 35.316 132.58 45.1611 132.58V128.242ZM22.2442 120.868C15.8826 115.947 10.9418 108.869 7.48953 99.4989L3.41841 100.999C7.09306 110.973 12.4608 118.785 19.5895 124.3L22.2442 120.868ZM7.50108 99.531C4.1652 90.0176 2.469 78.6902 2.469 65.5051H-1.86963C-1.86963 79.046 -0.129643 90.8811 3.40686 100.967L7.50108 99.531ZM2.469 65.5051C2.469 53.2526 4.34438 42.4586 8.04446 33.0851L4.00887 31.4921C0.0729709 41.4631 -1.86963 52.8134 -1.86963 65.5051H2.469ZM8.04798 33.0761C11.7626 23.542 16.7926 16.1673 23.0817 10.8458L20.2792 7.53376C13.3326 13.4117 7.92674 21.4362 4.00535 31.5011L8.04798 33.0761ZM23.0845 10.8434C29.4346 5.45183 36.7629 2.76861 45.1611 2.76861V-1.57001C35.7419 -1.57001 27.4165 1.47376 20.2764 7.53613L23.0845 10.8434ZM45.1611 2.76861C54.1514 2.76861 61.7528 5.24897 68.0779 10.142L70.7326 6.71035C63.5676 1.16756 55.0062 -1.57001 45.1611 -1.57001V2.76861ZM68.0779 10.142C74.426 15.0528 79.3021 22.1791 82.6301 31.6701L86.7244 30.2345C83.18 20.1265 77.8748 12.2354 70.7326 6.71035L68.0779 10.142ZM82.6417 31.7023C86.0948 41.075 87.8531 52.3261 87.8531 65.5051H92.1917C92.1917 51.9582 90.3866 40.1741 86.7128 30.2024L82.6417 31.7023ZM87.8531 65.5051C87.8531 77.7568 85.978 88.6185 82.2741 98.125L86.3168 99.7001C90.2489 89.6076 92.1917 78.1976 92.1917 65.5051H87.8531ZM82.2777 98.116C78.5677 107.515 73.4759 114.899 67.0468 120.358L69.8548 123.665C76.9159 117.67 82.3872 109.655 86.3133 99.709L82.2777 98.116ZM67.0651 120.342C60.7101 125.618 53.4373 128.242 45.1611 128.242V132.58C54.4476 132.58 62.7012 129.604 69.8365 123.68L67.0651 120.342ZM48.5973 123.417C53.3399 123.417 57.0029 120.56 59.6541 115.815L55.8667 113.699C53.6818 117.609 51.236 119.078 48.5973 119.078V123.417ZM59.6302 115.857C62.3598 111.217 64.3299 105.014 65.6262 97.3661L61.3486 96.641C60.0996 104.01 58.2517 109.644 55.8906 113.657L59.6302 115.857ZM65.6262 97.3661C66.9235 89.712 67.5657 81.0605 67.5657 71.423H63.2271C63.2271 80.8755 62.5966 89.2776 61.3486 96.641L65.6262 97.3661ZM67.5657 71.423C67.5657 59.4903 66.732 48.7962 65.0504 39.3534L60.779 40.114C62.4063 49.252 63.2271 59.6842 63.2271 71.423H67.5657ZM65.0513 39.3583C63.3697 29.7864 60.7538 22.0945 57.1035 16.4163L53.454 18.7624C56.676 23.7746 59.1508 30.8456 60.7781 40.109L65.0513 39.3583ZM57.1232 16.4475C53.5005 10.5955 48.5371 7.40226 42.2976 7.40226V11.7409C46.7484 11.7409 50.4391 13.8929 53.4342 18.7312L57.1232 16.4475ZM42.2976 7.40226C37.6169 7.40226 33.8386 10.124 30.9224 14.7066L34.5828 17.0359C37.0118 13.2189 39.5968 11.7409 42.2976 11.7409V7.40226ZM30.8974 14.7469C28.1628 19.2589 26.1263 25.3975 24.7021 33.0364L28.9673 33.8316C30.3429 26.4531 32.2517 20.8831 34.6078 16.9956L30.8974 14.7469ZM24.6969 33.0654C23.398 40.5991 22.7564 49.3178 22.7564 59.2054H27.095C27.095 49.4941 27.7261 41.0318 28.9725 33.8026L24.6969 33.0654ZM22.7564 59.2054C22.7564 71.2645 23.59 82.084 25.2708 91.6519L29.544 90.9012C27.9159 81.6337 27.095 71.0724 27.095 59.2054H22.7564ZM25.2717 91.6569C26.9543 101.105 29.5712 108.729 33.2186 114.403L36.8682 112.057C33.6432 107.04 31.1695 100.029 29.5431 90.8962L25.2717 91.6569ZM33.2384 114.433C37.1233 120.261 42.2648 123.417 48.5973 123.417V119.078C43.9848 119.078 40.0904 116.89 36.8484 112.027L33.2384 114.433ZM119.637 127.929L118.887 129.965L118.919 129.977L118.951 129.987L119.637 127.929ZM108.756 120.293L110.507 119.013L110.446 118.93L110.377 118.852L108.756 120.293ZM110.665 111.321L109.333 109.609L110.665 111.321ZM119.255 104.64V102.47H118.511L117.924 102.927L119.255 104.64ZM121.546 104.64L123.468 103.633L122.859 102.47H121.546V104.64ZM123.646 108.648L125.574 107.653L125.568 107.642L123.646 108.648ZM160.49 113.994L158.877 112.542L158.875 112.545L160.49 113.994ZM163.926 78.8681L161.997 79.8602L162.003 79.8717L162.009 79.8831L163.926 78.8681ZM152.472 68.3686L151.521 70.3183L151.53 70.3228L151.539 70.3272L152.472 68.3686ZM122.692 65.1233L122.88 67.2845L122.926 67.2804L122.972 67.2744L122.692 65.1233ZM113.147 66.2687H110.977V68.7831L113.465 68.4146L113.147 66.2687ZM113.147 2.50829V0.338982H110.977V2.50829H113.147ZM178.243 2.50829H180.413V0.338982H178.243V2.50829ZM178.243 19.8801V22.0495H180.413V19.8801H178.243ZM122.883 19.8801V17.7108H120.713V19.8801H122.883ZM122.883 45.8425H120.713V48.1516L123.018 48.0076L122.883 45.8425ZM129.182 45.4607L129.055 43.2951L129.182 45.4607ZM166.026 50.8059L165.069 52.7527L165.075 52.7559L165.082 52.759L166.026 50.8059ZM182.634 65.3142L180.753 66.3948L180.762 66.4097L180.77 66.4245L182.634 65.3142ZM181.489 108.648L179.653 107.493L181.489 108.648ZM163.544 124.684L162.574 122.744L163.544 124.684ZM137.391 128.242C130.683 128.242 125.008 127.433 120.323 125.871L118.951 129.987C124.193 131.734 130.354 132.58 137.391 132.58V128.242ZM120.387 125.894C115.849 124.222 112.615 121.898 110.507 119.013L107.004 121.573C109.733 125.306 113.753 128.073 118.887 129.965L120.387 125.894ZM110.377 118.852C109.676 118.063 109.398 117.292 109.398 116.475H105.059C105.059 118.458 105.8 120.233 107.135 121.734L110.377 118.852ZM109.398 116.475C109.398 115.859 109.851 114.702 111.997 113.033L109.333 109.609C106.897 111.503 105.059 113.782 105.059 116.475H109.398ZM111.997 113.033L120.587 106.352L117.924 102.927L109.333 109.609L111.997 113.033ZM119.255 106.809H121.546V102.47H119.255V106.809ZM119.625 105.646L121.724 109.655L125.568 107.642L123.468 103.633L119.625 105.646ZM121.718 109.643C123.88 113.832 126.625 117.221 129.98 119.738L132.584 116.267C129.831 114.202 127.484 111.355 125.574 107.653L121.718 109.643ZM129.98 119.738C133.518 122.391 138.095 123.608 143.5 123.608V119.269C138.723 119.269 135.155 118.195 132.584 116.267L129.98 119.738ZM143.5 123.608C150.967 123.608 157.224 120.88 162.104 115.442L158.875 112.545C154.846 117.034 149.777 119.269 143.5 119.269V123.608ZM162.102 115.445C167.114 109.877 169.531 102.64 169.531 93.9492H165.193C165.193 101.803 163.029 107.929 158.877 112.542L162.102 115.445ZM169.531 93.9492C169.531 87.9285 168.325 82.542 165.843 77.8531L162.009 79.8831C164.108 83.8483 165.193 88.5158 165.193 93.9492H169.531ZM165.855 77.876C163.309 72.9258 159.098 69.1212 153.405 66.41L151.539 70.3272C156.536 72.7067 159.961 75.9017 161.997 79.8602L165.855 77.876ZM153.423 66.4189C147.796 63.6741 140.43 62.3813 131.473 62.3813V66.7199C140.079 66.7199 146.712 67.9725 151.521 70.3183L153.423 66.4189ZM131.473 62.3813C128.451 62.3813 125.43 62.5784 122.411 62.9722L122.972 67.2744C125.807 66.9046 128.64 66.7199 131.473 66.7199V62.3813ZM122.504 62.9622C119.526 63.2211 116.301 63.6085 112.829 64.1228L113.465 68.4146C116.865 67.9108 120.003 67.5346 122.88 67.2845L122.504 62.9622ZM115.316 66.2687V2.50829H110.977V66.2687H115.316ZM113.147 4.67761H178.243V0.338982H113.147V4.67761ZM176.074 2.50829V19.8801H180.413V2.50829H176.074ZM178.243 17.7108H122.883V22.0495H178.243V17.7108ZM120.713 19.8801V45.8425H125.052V19.8801H120.713ZM123.018 48.0076C125.051 47.8805 127.149 47.7534 129.31 47.6262L129.055 43.2951C126.889 43.4225 124.786 43.5499 122.747 43.6774L123.018 48.0076ZM129.31 47.6262C131.424 47.5019 133.736 47.4391 136.245 47.4391V43.1005C133.665 43.1005 131.267 43.165 129.055 43.2951L129.31 47.6262ZM136.245 47.4391C148.404 47.4391 157.965 49.2612 165.069 52.7527L166.983 48.859C159.069 44.9691 148.777 43.1005 136.245 43.1005V47.4391ZM165.082 52.759C172.416 56.3038 177.58 60.8709 180.753 66.3948L184.515 64.2336C180.816 57.7945 174.908 52.6894 166.97 48.8527L165.082 52.759ZM180.77 66.4245C184.129 72.062 185.81 78.2311 185.81 84.9769H190.149C190.149 77.4688 188.266 70.5295 184.498 64.204L180.77 66.4245ZM185.81 84.9769C185.81 93.5176 183.741 101 179.653 107.493L183.324 109.804C187.89 102.553 190.149 94.2534 190.149 84.9769H185.81ZM179.653 107.493C175.548 114.012 169.874 119.094 162.574 122.744L164.514 126.624C172.486 122.638 178.775 117.03 183.324 109.804L179.653 107.493ZM162.574 122.744C155.281 126.39 146.904 128.242 137.391 128.242V132.58C147.477 132.58 156.535 130.614 164.514 126.624L162.574 122.744Z" fill="url(#paint0_linear_806_8114)"/>
<defs>
<linearGradient id="paint0_linear_806_8114" x1="96.5" y1="-5.49805" x2="96.5" y2="128.999" gradientUnits="userSpaceOnUse">
<stop stop-color="white"/>
<stop offset="1" stop-color="white" stop-opacity="0"/>
</linearGradient>
</defs>
</svg>
