<svg width="201" height="50" viewBox="0 0 201 50" fill="none" xmlns="http://www.w3.org/2000/svg">
<path d="M31.802 40.222H13.454L10.418 49H0.716L17.282 2.866H28.04L44.606 49H34.838L31.802 40.222ZM29.294 32.83L22.628 13.558L15.962 32.83H29.294ZM60.0381 17.782C61.2261 16.022 62.8541 14.592 64.9221 13.492C67.0341 12.392 69.4321 11.842 72.1161 11.842C75.2401 11.842 78.0561 12.612 80.5641 14.152C83.1161 15.692 85.1181 17.892 86.5701 20.752C88.0661 23.568 88.8141 26.846 88.8141 30.586C88.8141 34.326 88.0661 37.648 86.5701 40.552C85.1181 43.412 83.1161 45.634 80.5641 47.218C78.0561 48.802 75.2401 49.594 72.1161 49.594C69.3881 49.594 66.9901 49.066 64.9221 48.01C62.8981 46.91 61.2701 45.502 60.0381 43.786V49H50.7981V0.159999H60.0381V17.782ZM79.3761 30.586C79.3761 28.386 78.9141 26.494 77.9901 24.91C77.1101 23.282 75.9221 22.05 74.4261 21.214C72.9741 20.378 71.3901 19.96 69.6741 19.96C68.0021 19.96 66.4181 20.4 64.9221 21.28C63.4701 22.116 62.2821 23.348 61.3581 24.976C60.4781 26.604 60.0381 28.518 60.0381 30.718C60.0381 32.918 60.4781 34.832 61.3581 36.46C62.2821 38.088 63.4701 39.342 64.9221 40.222C66.4181 41.058 68.0021 41.476 69.6741 41.476C71.3901 41.476 72.9741 41.036 74.4261 40.156C75.9221 39.276 77.1101 38.022 77.9901 36.394C78.9141 34.766 79.3761 32.83 79.3761 30.586ZM111.765 49.594C108.245 49.594 105.077 48.824 102.261 47.284C99.4446 45.7 97.2226 43.478 95.5946 40.618C94.0106 37.758 93.2186 34.458 93.2186 30.718C93.2186 26.978 94.0326 23.678 95.6606 20.818C97.3326 17.958 99.5986 15.758 102.459 14.218C105.319 12.634 108.509 11.842 112.029 11.842C115.549 11.842 118.739 12.634 121.599 14.218C124.459 15.758 126.703 17.958 128.331 20.818C130.003 23.678 130.839 26.978 130.839 30.718C130.839 34.458 129.981 37.758 128.265 40.618C126.593 43.478 124.305 45.7 121.401 47.284C118.541 48.824 115.329 49.594 111.765 49.594ZM111.765 41.542C113.437 41.542 114.999 41.146 116.451 40.354C117.947 39.518 119.135 38.286 120.015 36.658C120.895 35.03 121.335 33.05 121.335 30.718C121.335 27.242 120.411 24.58 118.563 22.732C116.759 20.84 114.537 19.894 111.897 19.894C109.257 19.894 107.035 20.84 105.231 22.732C103.471 24.58 102.591 27.242 102.591 30.718C102.591 34.194 103.449 36.878 105.165 38.77C106.925 40.618 109.125 41.542 111.765 41.542ZM172.135 12.436V49H162.829V44.38C161.641 45.964 160.079 47.218 158.143 48.142C156.251 49.022 154.183 49.462 151.939 49.462C149.079 49.462 146.549 48.868 144.349 47.68C142.149 46.448 140.411 44.666 139.135 42.334C137.903 39.958 137.287 37.142 137.287 33.886V12.436H146.527V32.566C146.527 35.47 147.253 37.714 148.705 39.298C150.157 40.838 152.137 41.608 154.645 41.608C157.197 41.608 159.199 40.838 160.651 39.298C162.103 37.714 162.829 35.47 162.829 32.566V12.436H172.135ZM192.009 20.026V37.714C192.009 38.946 192.295 39.848 192.867 40.42C193.483 40.948 194.495 41.212 195.903 41.212H200.193V49H194.385C186.597 49 182.703 45.216 182.703 37.648V20.026H178.347V12.436H182.703V3.394H192.009V12.436H200.193V20.026H192.009Z" fill="white"/>
</svg>
