<svg width="32" height="31" viewBox="0 0 32 31" fill="none" xmlns="http://www.w3.org/2000/svg">
<mask id="path-1-outside-1_764_8930" maskUnits="userSpaceOnUse" x="0" y="0" width="32" height="31" fill="black">
<rect fill="white" width="32" height="31"/>
<path d="M31.2041 18.3182C31.1881 18.2283 31.11 18.1629 31.0187 18.1629H5.16131V4.10836C5.16131 3.67811 5.32771 3.27644 5.63005 2.97717C5.93364 2.67609 6.34053 2.51026 6.77574 2.51026C7.13509 2.51026 7.47511 2.62498 7.75874 2.84173C7.97882 3.01083 8.1525 3.23744 8.26144 3.491C7.74618 3.69758 7.35028 4.10384 7.35028 4.73395C7.35028 4.838 7.43461 4.92232 7.53865 4.92232H10.755C10.859 4.92232 10.9433 4.838 10.9433 4.73395C10.9433 4.29196 10.7408 3.92193 10.3577 3.66386C10.1996 3.55743 10.0155 3.4748 9.81503 3.41784C9.81069 3.38657 9.80486 3.35543 9.79594 3.3246C9.621 2.66397 9.22473 2.06871 8.67982 1.64826C8.12751 1.22417 7.46902 1 6.77567 1C5.93942 1 5.15453 1.32256 4.5658 1.90803C3.97411 2.49399 3.64823 3.27537 3.64823 4.1083V18.1628H1.3149C1.22322 18.1628 1.14486 18.2289 1.12922 18.3191C1.04351 18.8167 1 19.3214 1 19.8195C1 23.5117 3.33107 26.669 6.5981 27.8977V29.8116C6.5981 29.9156 6.68243 29.9999 6.78647 29.9999H10.777C10.881 29.9999 10.9654 29.9156 10.9654 29.8116V28.4466H21.3711V29.8116C21.3711 29.9157 21.4555 30 21.5595 30H25.55C25.6541 30 25.7384 29.9157 25.7384 29.8116V27.8968C26.873 27.469 27.9156 26.7991 28.8023 25.9123C30.4366 24.2781 31.3366 22.1143 31.3366 19.8196C31.3366 19.3152 31.2921 18.8101 31.2041 18.3182ZM9.59614 3.75258C9.80448 3.79805 9.99499 3.8739 10.1473 3.97644C10.3678 4.125 10.5022 4.31589 10.5484 4.54564H7.74568C7.82624 4.15351 8.15859 3.90586 8.55782 3.78731C8.55794 3.78725 8.55807 3.78725 8.55826 3.78725C8.87755 3.69306 9.25662 3.68012 9.5903 3.75196C9.59224 3.7524 9.59419 3.75221 9.59614 3.75258ZM4.02497 4.10836C4.02497 3.37678 4.31118 2.69041 4.83115 2.17552C5.34912 1.6605 6.03963 1.37681 6.77567 1.37681C7.38532 1.37681 7.96444 1.57404 8.45007 1.94683C8.9065 2.29896 9.24444 2.79062 9.40939 3.34187C9.32312 3.33301 9.23578 3.32717 9.1468 3.32717C8.97287 3.32717 8.79636 3.34532 8.62519 3.38155C8.49233 3.05315 8.27049 2.75985 7.98786 2.54266C7.63755 2.27498 7.21842 2.13351 6.77567 2.13351C6.2405 2.13351 5.73943 2.33808 5.36488 2.70949C4.99064 3.0799 4.7845 3.57671 4.7845 4.1083V18.1628H4.02497V4.10836ZM10.5887 29.6233H6.97491V28.0295C7.49909 28.1992 8.045 28.3199 8.6073 28.3863C8.61364 28.3873 8.61992 28.3878 8.6262 28.3885C8.83372 28.4126 9.04351 28.4292 9.25518 28.4382C9.27722 28.4393 9.29926 28.4399 9.3213 28.4407C9.42208 28.4444 9.52311 28.4467 9.62471 28.4467H10.5887V29.6233ZM25.3616 29.6233H21.748V28.4467H22.7095C22.7122 28.4467 22.715 28.4465 22.7178 28.4465C22.8162 28.4465 22.9146 28.4443 23.0124 28.4408C23.0331 28.44 23.0538 28.4394 23.0746 28.4385C23.1772 28.4344 23.2796 28.4283 23.3816 28.4204C23.384 28.4202 23.3864 28.42 23.3888 28.4198C24.0651 28.3669 24.7262 28.2352 25.3615 28.029V29.6233H25.3616ZM25.5004 27.5837C25.4958 27.5849 25.4911 27.585 25.4866 27.5868C24.8267 27.823 24.1457 27.973 23.4539 28.0358C23.4344 28.0375 23.4152 28.0395 23.3957 28.041C23.3582 28.0442 23.3209 28.047 23.2835 28.0496C23.2521 28.0516 23.2207 28.0536 23.1893 28.0556C23.1593 28.0573 23.1291 28.0591 23.099 28.0604C23.0567 28.0624 23.0143 28.064 22.972 28.0653C22.9504 28.066 22.9289 28.0667 22.9076 28.0672C22.8418 28.0687 22.776 28.0697 22.7099 28.0697H10.7771H9.62471C9.55928 28.0697 9.49404 28.0687 9.42899 28.0672C9.40506 28.0667 9.38114 28.0658 9.35722 28.0651C9.31678 28.0638 9.2764 28.0623 9.23615 28.0605C9.20582 28.0591 9.1755 28.0573 9.14517 28.0556C9.11308 28.0538 9.081 28.0516 9.04897 28.0494C9.01318 28.0469 8.97733 28.0443 8.9416 28.0413C8.91874 28.0395 8.89595 28.0373 8.87309 28.0351C8.82927 28.0311 8.78544 28.027 8.74161 28.0223C8.73973 28.0221 8.7379 28.0219 8.73602 28.0217C8.0936 27.952 7.46223 27.8064 6.85021 27.5866C6.84431 27.5845 6.83809 27.584 6.83206 27.5825C3.6545 26.4353 1.37681 23.3886 1.37681 19.8194C1.37681 19.3947 1.40984 18.9652 1.47508 18.5394H3.83597C3.83616 18.5394 3.83635 18.5395 3.8366 18.5395H4.97293C4.97312 18.5395 4.97331 18.5394 4.97356 18.5394H30.8595C30.9262 18.9602 30.9601 19.3901 30.9601 19.8194C30.9599 23.3898 28.6803 26.4372 25.5004 27.5837Z"/>
</mask>
<path d="M31.2041 18.3182C31.1881 18.2283 31.11 18.1629 31.0187 18.1629H5.16131V4.10836C5.16131 3.67811 5.32771 3.27644 5.63005 2.97717C5.93364 2.67609 6.34053 2.51026 6.77574 2.51026C7.13509 2.51026 7.47511 2.62498 7.75874 2.84173C7.97882 3.01083 8.1525 3.23744 8.26144 3.491C7.74618 3.69758 7.35028 4.10384 7.35028 4.73395C7.35028 4.838 7.43461 4.92232 7.53865 4.92232H10.755C10.859 4.92232 10.9433 4.838 10.9433 4.73395C10.9433 4.29196 10.7408 3.92193 10.3577 3.66386C10.1996 3.55743 10.0155 3.4748 9.81503 3.41784C9.81069 3.38657 9.80486 3.35543 9.79594 3.3246C9.621 2.66397 9.22473 2.06871 8.67982 1.64826C8.12751 1.22417 7.46902 1 6.77567 1C5.93942 1 5.15453 1.32256 4.5658 1.90803C3.97411 2.49399 3.64823 3.27537 3.64823 4.1083V18.1628H1.3149C1.22322 18.1628 1.14486 18.2289 1.12922 18.3191C1.04351 18.8167 1 19.3214 1 19.8195C1 23.5117 3.33107 26.669 6.5981 27.8977V29.8116C6.5981 29.9156 6.68243 29.9999 6.78647 29.9999H10.777C10.881 29.9999 10.9654 29.9156 10.9654 29.8116V28.4466H21.3711V29.8116C21.3711 29.9157 21.4555 30 21.5595 30H25.55C25.6541 30 25.7384 29.9157 25.7384 29.8116V27.8968C26.873 27.469 27.9156 26.7991 28.8023 25.9123C30.4366 24.2781 31.3366 22.1143 31.3366 19.8196C31.3366 19.3152 31.2921 18.8101 31.2041 18.3182ZM9.59614 3.75258C9.80448 3.79805 9.99499 3.8739 10.1473 3.97644C10.3678 4.125 10.5022 4.31589 10.5484 4.54564H7.74568C7.82624 4.15351 8.15859 3.90586 8.55782 3.78731C8.55794 3.78725 8.55807 3.78725 8.55826 3.78725C8.87755 3.69306 9.25662 3.68012 9.5903 3.75196C9.59224 3.7524 9.59419 3.75221 9.59614 3.75258ZM4.02497 4.10836C4.02497 3.37678 4.31118 2.69041 4.83115 2.17552C5.34912 1.6605 6.03963 1.37681 6.77567 1.37681C7.38532 1.37681 7.96444 1.57404 8.45007 1.94683C8.9065 2.29896 9.24444 2.79062 9.40939 3.34187C9.32312 3.33301 9.23578 3.32717 9.1468 3.32717C8.97287 3.32717 8.79636 3.34532 8.62519 3.38155C8.49233 3.05315 8.27049 2.75985 7.98786 2.54266C7.63755 2.27498 7.21842 2.13351 6.77567 2.13351C6.2405 2.13351 5.73943 2.33808 5.36488 2.70949C4.99064 3.0799 4.7845 3.57671 4.7845 4.1083V18.1628H4.02497V4.10836ZM10.5887 29.6233H6.97491V28.0295C7.49909 28.1992 8.045 28.3199 8.6073 28.3863C8.61364 28.3873 8.61992 28.3878 8.6262 28.3885C8.83372 28.4126 9.04351 28.4292 9.25518 28.4382C9.27722 28.4393 9.29926 28.4399 9.3213 28.4407C9.42208 28.4444 9.52311 28.4467 9.62471 28.4467H10.5887V29.6233ZM25.3616 29.6233H21.748V28.4467H22.7095C22.7122 28.4467 22.715 28.4465 22.7178 28.4465C22.8162 28.4465 22.9146 28.4443 23.0124 28.4408C23.0331 28.44 23.0538 28.4394 23.0746 28.4385C23.1772 28.4344 23.2796 28.4283 23.3816 28.4204C23.384 28.4202 23.3864 28.42 23.3888 28.4198C24.0651 28.3669 24.7262 28.2352 25.3615 28.029V29.6233H25.3616ZM25.5004 27.5837C25.4958 27.5849 25.4911 27.585 25.4866 27.5868C24.8267 27.823 24.1457 27.973 23.4539 28.0358C23.4344 28.0375 23.4152 28.0395 23.3957 28.041C23.3582 28.0442 23.3209 28.047 23.2835 28.0496C23.2521 28.0516 23.2207 28.0536 23.1893 28.0556C23.1593 28.0573 23.1291 28.0591 23.099 28.0604C23.0567 28.0624 23.0143 28.064 22.972 28.0653C22.9504 28.066 22.9289 28.0667 22.9076 28.0672C22.8418 28.0687 22.776 28.0697 22.7099 28.0697H10.7771H9.62471C9.55928 28.0697 9.49404 28.0687 9.42899 28.0672C9.40506 28.0667 9.38114 28.0658 9.35722 28.0651C9.31678 28.0638 9.2764 28.0623 9.23615 28.0605C9.20582 28.0591 9.1755 28.0573 9.14517 28.0556C9.11308 28.0538 9.081 28.0516 9.04897 28.0494C9.01318 28.0469 8.97733 28.0443 8.9416 28.0413C8.91874 28.0395 8.89595 28.0373 8.87309 28.0351C8.82927 28.0311 8.78544 28.027 8.74161 28.0223C8.73973 28.0221 8.7379 28.0219 8.73602 28.0217C8.0936 27.952 7.46223 27.8064 6.85021 27.5866C6.84431 27.5845 6.83809 27.584 6.83206 27.5825C3.6545 26.4353 1.37681 23.3886 1.37681 19.8194C1.37681 19.3947 1.40984 18.9652 1.47508 18.5394H3.83597C3.83616 18.5394 3.83635 18.5395 3.8366 18.5395H4.97293C4.97312 18.5395 4.97331 18.5394 4.97356 18.5394H30.8595C30.9262 18.9602 30.9601 19.3901 30.9601 19.8194C30.9599 23.3898 28.6803 26.4372 25.5004 27.5837Z" fill="black"/>
<path d="M31.2041 18.3182C31.1881 18.2283 31.11 18.1629 31.0187 18.1629H5.16131V4.10836C5.16131 3.67811 5.32771 3.27644 5.63005 2.97717C5.93364 2.67609 6.34053 2.51026 6.77574 2.51026C7.13509 2.51026 7.47511 2.62498 7.75874 2.84173C7.97882 3.01083 8.1525 3.23744 8.26144 3.491C7.74618 3.69758 7.35028 4.10384 7.35028 4.73395C7.35028 4.838 7.43461 4.92232 7.53865 4.92232H10.755C10.859 4.92232 10.9433 4.838 10.9433 4.73395C10.9433 4.29196 10.7408 3.92193 10.3577 3.66386C10.1996 3.55743 10.0155 3.4748 9.81503 3.41784C9.81069 3.38657 9.80486 3.35543 9.79594 3.3246C9.621 2.66397 9.22473 2.06871 8.67982 1.64826C8.12751 1.22417 7.46902 1 6.77567 1C5.93942 1 5.15453 1.32256 4.5658 1.90803C3.97411 2.49399 3.64823 3.27537 3.64823 4.1083V18.1628H1.3149C1.22322 18.1628 1.14486 18.2289 1.12922 18.3191C1.04351 18.8167 1 19.3214 1 19.8195C1 23.5117 3.33107 26.669 6.5981 27.8977V29.8116C6.5981 29.9156 6.68243 29.9999 6.78647 29.9999H10.777C10.881 29.9999 10.9654 29.9156 10.9654 29.8116V28.4466H21.3711V29.8116C21.3711 29.9157 21.4555 30 21.5595 30H25.55C25.6541 30 25.7384 29.9157 25.7384 29.8116V27.8968C26.873 27.469 27.9156 26.7991 28.8023 25.9123C30.4366 24.2781 31.3366 22.1143 31.3366 19.8196C31.3366 19.3152 31.2921 18.8101 31.2041 18.3182ZM9.59614 3.75258C9.80448 3.79805 9.99499 3.8739 10.1473 3.97644C10.3678 4.125 10.5022 4.31589 10.5484 4.54564H7.74568C7.82624 4.15351 8.15859 3.90586 8.55782 3.78731C8.55794 3.78725 8.55807 3.78725 8.55826 3.78725C8.87755 3.69306 9.25662 3.68012 9.5903 3.75196C9.59224 3.7524 9.59419 3.75221 9.59614 3.75258ZM4.02497 4.10836C4.02497 3.37678 4.31118 2.69041 4.83115 2.17552C5.34912 1.6605 6.03963 1.37681 6.77567 1.37681C7.38532 1.37681 7.96444 1.57404 8.45007 1.94683C8.9065 2.29896 9.24444 2.79062 9.40939 3.34187C9.32312 3.33301 9.23578 3.32717 9.1468 3.32717C8.97287 3.32717 8.79636 3.34532 8.62519 3.38155C8.49233 3.05315 8.27049 2.75985 7.98786 2.54266C7.63755 2.27498 7.21842 2.13351 6.77567 2.13351C6.2405 2.13351 5.73943 2.33808 5.36488 2.70949C4.99064 3.0799 4.7845 3.57671 4.7845 4.1083V18.1628H4.02497V4.10836ZM10.5887 29.6233H6.97491V28.0295C7.49909 28.1992 8.045 28.3199 8.6073 28.3863C8.61364 28.3873 8.61992 28.3878 8.6262 28.3885C8.83372 28.4126 9.04351 28.4292 9.25518 28.4382C9.27722 28.4393 9.29926 28.4399 9.3213 28.4407C9.42208 28.4444 9.52311 28.4467 9.62471 28.4467H10.5887V29.6233ZM25.3616 29.6233H21.748V28.4467H22.7095C22.7122 28.4467 22.715 28.4465 22.7178 28.4465C22.8162 28.4465 22.9146 28.4443 23.0124 28.4408C23.0331 28.44 23.0538 28.4394 23.0746 28.4385C23.1772 28.4344 23.2796 28.4283 23.3816 28.4204C23.384 28.4202 23.3864 28.42 23.3888 28.4198C24.0651 28.3669 24.7262 28.2352 25.3615 28.029V29.6233H25.3616ZM25.5004 27.5837C25.4958 27.5849 25.4911 27.585 25.4866 27.5868C24.8267 27.823 24.1457 27.973 23.4539 28.0358C23.4344 28.0375 23.4152 28.0395 23.3957 28.041C23.3582 28.0442 23.3209 28.047 23.2835 28.0496C23.2521 28.0516 23.2207 28.0536 23.1893 28.0556C23.1593 28.0573 23.1291 28.0591 23.099 28.0604C23.0567 28.0624 23.0143 28.064 22.972 28.0653C22.9504 28.066 22.9289 28.0667 22.9076 28.0672C22.8418 28.0687 22.776 28.0697 22.7099 28.0697H10.7771H9.62471C9.55928 28.0697 9.49404 28.0687 9.42899 28.0672C9.40506 28.0667 9.38114 28.0658 9.35722 28.0651C9.31678 28.0638 9.2764 28.0623 9.23615 28.0605C9.20582 28.0591 9.1755 28.0573 9.14517 28.0556C9.11308 28.0538 9.081 28.0516 9.04897 28.0494C9.01318 28.0469 8.97733 28.0443 8.9416 28.0413C8.91874 28.0395 8.89595 28.0373 8.87309 28.0351C8.82927 28.0311 8.78544 28.027 8.74161 28.0223C8.73973 28.0221 8.7379 28.0219 8.73602 28.0217C8.0936 27.952 7.46223 27.8064 6.85021 27.5866C6.84431 27.5845 6.83809 27.584 6.83206 27.5825C3.6545 26.4353 1.37681 23.3886 1.37681 19.8194C1.37681 19.3947 1.40984 18.9652 1.47508 18.5394H3.83597C3.83616 18.5394 3.83635 18.5395 3.8366 18.5395H4.97293C4.97312 18.5395 4.97331 18.5394 4.97356 18.5394H30.8595C30.9262 18.9602 30.9601 19.3901 30.9601 19.8194C30.9599 23.3898 28.6803 26.4372 25.5004 27.5837Z" stroke="black" stroke-width="0.2" mask="url(#path-1-outside-1_764_8930)"/>
</svg>
