<svg width="33" height="18" viewBox="0 0 33 18" fill="none" xmlns="http://www.w3.org/2000/svg">
<path d="M31.9297 8.74009V1.0707C31.9292 0.929582 31.9002 0.789949 31.8443 0.659771C31.7884 0.529593 31.7068 0.411419 31.6041 0.311996C31.5014 0.212573 31.3796 0.133848 31.2457 0.0803171C31.1118 0.026786 30.9683 -0.00050333 30.8236 7.02824e-06H2.17639C1.88409 7.02824e-06 1.60376 0.113221 1.39707 0.314741C1.19039 0.516262 1.07427 0.789582 1.07427 1.07458V8.74009C0.770351 8.80536 0.498319 8.96966 0.30303 9.20591C0.107742 9.44215 0.000856457 9.73623 0 10.0397V12.216C0.000678767 12.529 0.114233 12.8319 0.320799 13.0716C0.527365 13.3113 0.813791 13.4726 1.12997 13.5272C1.09445 13.631 1.07565 13.7396 1.07427 13.8491V16.9216C1.07532 17.2059 1.1919 17.4782 1.39848 17.6789C1.60505 17.8796 1.88478 17.9922 2.17639 17.9922H3.1313C3.30074 17.992 3.4664 17.9434 3.60781 17.8524C3.74923 17.7614 3.86021 17.632 3.92706 17.4802L4.58753 15.9789C4.61397 15.919 4.65784 15.868 4.7137 15.8321C4.76956 15.7963 4.83498 15.7772 4.90186 15.7772H28.0981C28.165 15.7772 28.2304 15.7963 28.2863 15.8321C28.3422 15.868 28.386 15.919 28.4125 15.9789L29.0769 17.4879C29.1438 17.6397 29.2547 17.7691 29.3962 17.8601C29.5376 17.9511 29.7032 17.9998 29.8727 18H30.8236C31.1159 18 31.3962 17.8868 31.6029 17.6853C31.8096 17.4837 31.9257 17.2104 31.9257 16.9254V13.8491C31.9243 13.7396 31.9056 13.631 31.87 13.5272C32.1862 13.4726 32.4726 13.3113 32.6792 13.0716C32.8858 12.8319 32.9993 12.529 33 12.216V10.0397C32.9993 9.73677 32.893 9.44311 32.6985 9.20693C32.504 8.97076 32.2329 8.80613 31.9297 8.74009ZM1.86605 1.0707C1.86605 0.991474 1.89833 0.915497 1.95578 0.859479C2.01324 0.803461 2.09116 0.771989 2.17241 0.771989H30.8236C30.9049 0.771989 30.9828 0.803461 31.0402 0.859479C31.0977 0.915497 31.13 0.991474 31.13 1.0707V8.70518H28.2135C28.2988 8.5306 28.3436 8.3399 28.3448 8.14656V4.3138C28.3448 3.95987 28.2006 3.62044 27.9439 3.37018C27.6873 3.11991 27.3391 2.97932 26.9761 2.97932H19.4841C19.1211 2.97932 18.7729 3.11991 18.5163 3.37018C18.2596 3.62044 18.1154 3.95987 18.1154 4.3138V8.14656C18.1166 8.3399 18.1615 8.5306 18.2467 8.70518H14.7533C14.8385 8.5306 14.8834 8.3399 14.8846 8.14656V4.3138C14.8846 3.95987 14.7404 3.62044 14.4837 3.37018C14.227 3.11991 13.8789 2.97932 13.5159 2.97932H6.02387C5.66087 2.97932 5.31274 3.11991 5.05606 3.37018C4.79937 3.62044 4.65517 3.95987 4.65517 4.3138V8.14656C4.65642 8.3399 4.70124 8.5306 4.78647 8.70518H1.86605V1.0707ZM18.9111 8.14656V4.3138C18.9111 4.16564 18.9715 4.02356 19.079 3.91879C19.1864 3.81403 19.3321 3.75518 19.4841 3.75518H26.9761C27.1281 3.75518 27.2738 3.81403 27.3813 3.91879C27.4887 4.02356 27.5491 4.16564 27.5491 4.3138V8.14656C27.5491 8.29471 27.4887 8.4368 27.3813 8.54156C27.2738 8.64632 27.1281 8.70518 26.9761 8.70518H19.4841C19.3321 8.70518 19.1864 8.64632 19.079 8.54156C18.9715 8.4368 18.9111 8.29471 18.9111 8.14656ZM5.45093 8.14656V4.3138C5.45093 4.16564 5.51129 4.02356 5.61874 3.91879C5.72619 3.81403 5.87192 3.75518 6.02387 3.75518H13.5159C13.6679 3.75518 13.8136 3.81403 13.921 3.91879C14.0285 4.02356 14.0889 4.16564 14.0889 4.3138V8.14656C14.0889 8.29471 14.0285 8.4368 13.921 8.54156C13.8136 8.64632 13.6679 8.70518 13.5159 8.70518H6.02387C5.87192 8.70518 5.72619 8.64632 5.61874 8.54156C5.51129 8.4368 5.45093 8.29471 5.45093 8.14656ZM31.134 16.9216C31.134 17.0008 31.1017 17.0768 31.0442 17.1328C30.9868 17.1888 30.9088 17.2203 30.8276 17.2203H29.8727C29.8583 17.2206 29.8442 17.2167 29.8321 17.2091C29.8201 17.2015 29.8106 17.1905 29.805 17.1776L29.1446 15.6685C29.0566 15.4691 28.9106 15.2993 28.7246 15.18C28.5386 15.0607 28.3208 14.9972 28.0981 14.9974H4.90186C4.67922 14.9972 4.46142 15.0607 4.27542 15.18C4.08942 15.2993 3.9434 15.4691 3.85544 15.6685L3.19098 17.1776C3.1854 17.1905 3.17596 17.2015 3.1639 17.2091C3.15184 17.2167 3.13771 17.2206 3.12334 17.2203H2.17639C2.09514 17.2203 2.01721 17.1888 1.95976 17.1328C1.9023 17.0768 1.87003 17.0008 1.87003 16.9216V13.8491C1.87003 13.7699 1.9023 13.6939 1.95976 13.6379C2.01721 13.5819 2.09514 13.5504 2.17639 13.5504H30.8236C30.9049 13.5504 30.9828 13.5819 31.0402 13.6379C31.0977 13.6939 31.13 13.7699 31.13 13.8491L31.134 16.9216ZM32.2082 12.216C32.2083 12.2906 32.1929 12.3646 32.1631 12.4334C32.1334 12.5022 32.0897 12.5645 32.0348 12.6165C31.9799 12.6686 31.9149 12.7094 31.8435 12.7366C31.7721 12.7637 31.6959 12.7766 31.6194 12.7746H16.8979V11.7815C16.8979 11.6786 16.856 11.5799 16.7813 11.5072C16.7067 11.4344 16.6055 11.3935 16.5 11.3935C16.3945 11.3935 16.2933 11.4344 16.2187 11.5072C16.144 11.5799 16.1021 11.6786 16.1021 11.7815V12.7746H1.38064C1.22868 12.7746 1.08295 12.7157 0.975504 12.611C0.868056 12.5062 0.807693 12.3641 0.807693 12.216V10.0397C0.807693 9.8915 0.868056 9.74942 0.975504 9.64465C1.08295 9.53989 1.22868 9.48104 1.38064 9.48104H31.6194C31.7713 9.48104 31.917 9.53989 32.0245 9.64465C32.1319 9.74942 32.1923 9.8915 32.1923 10.0397L32.2082 12.216Z" fill="black"/>
</svg>
