<svg width="236" height="289" viewBox="0 0 236 289" fill="none" xmlns="http://www.w3.org/2000/svg">
<path d="M221.727 259.646C211.507 243.258 196.173 231.912 178.282 224.349C174.448 155.016 145.056 89.4644 93.9397 41.5613C41.5472 -8.86284 -28.7361 -37.8567 -102.854 -37.8567C-120.744 -37.8567 -139.912 -36.5961 -157.802 -32.8143C-165.47 -42.8991 -175.693 -51.7233 -185.916 -58.0263C-199.972 -65.5901 -215.307 -70.6323 -231.92 -70.6323C-257.477 -70.6323 -280.479 -60.5474 -298.37 -44.1597C-314.982 -26.5112 -325.205 -3.82041 -325.205 20.131C-325.205 32.737 -322.649 45.3432 -317.538 56.6885C-357.152 102.07 -380.154 157.537 -385.265 216.785C-390.377 276.034 -375.042 335.282 -343.095 385.706C-353.318 400.833 -358.43 418.481 -358.43 436.13C-358.43 455.039 -352.04 472.689 -341.817 487.817C-330.316 502.94 -314.982 514.288 -297.091 520.592C-286.869 524.371 -276.645 525.631 -265.145 525.631C-257.477 525.631 -248.532 524.371 -240.865 523.111C-225.53 519.332 -211.474 510.503 -199.972 500.42C-141.19 520.592 -77.2956 521.851 -18.5132 504.204C40.2696 485.292 91.3849 448.736 127.165 398.312C132.275 399.572 137.389 399.572 142.499 399.572C142.499 399.572 142.499 399.572 143.78 399.572C165.5 399.572 187.225 392.009 203.84 378.142C220.451 364.275 231.951 344.106 234.508 322.676C238.342 299.985 233.227 277.294 221.727 259.646ZM-176.97 455.039C-175.693 448.736 -174.415 441.173 -174.415 434.869C-174.415 410.918 -184.638 388.227 -201.25 370.578C-219.141 352.93 -242.143 344.106 -266.422 344.106C-280.479 344.106 -293.258 346.627 -304.759 352.93C-327.761 313.852 -337.984 267.209 -335.428 221.827C-331.595 176.446 -313.704 132.325 -285.59 97.0278C-274.09 104.592 -261.311 109.634 -247.254 110.895C-229.364 113.416 -211.473 110.895 -196.139 103.331C-179.526 95.7674 -166.748 84.4217 -156.525 70.5553C-147.579 54.1674 -142.468 37.7794 -142.468 20.131C-142.468 17.6098 -142.468 16.3492 -142.468 13.828C-129.689 11.3068 -118.188 11.3068 -104.131 11.3068C-44.0707 11.3068 13.434 33.9976 55.6041 74.3368C96.497 112.155 120.774 163.84 125.889 218.046C110.555 220.567 96.497 226.87 84.9955 236.955C82.4397 239.476 79.8838 240.737 77.328 243.258L76.0503 244.518C65.827 254.603 58.1599 268.47 54.3259 282.337C49.2147 301.246 49.2148 320.155 55.6041 337.803C60.7158 351.669 69.6609 364.275 79.8838 374.36C50.4924 412.178 10.8781 441.173 -35.1255 455.039C-81.1296 470.165 -130.967 470.165 -176.97 455.039ZM-191.027 28.9553C-192.305 36.5191 -196.139 44.0824 -202.528 50.3855C-208.918 56.6885 -215.307 60.4704 -224.252 61.7307C-231.92 62.9915 -240.865 62.9915 -248.532 59.2096C-256.199 55.4277 -262.589 50.3855 -267.7 42.8221C-271.534 36.5191 -274.09 28.9553 -274.09 20.131C-274.09 15.0886 -272.812 8.78559 -271.534 5.00378C-268.978 -0.0385971 -266.422 -5.08101 -262.589 -8.86283C-258.755 -12.6446 -253.644 -15.1658 -248.532 -17.6871C-243.42 -20.2083 -238.309 -20.2083 -233.197 -20.2083C-224.252 -20.2083 -216.585 -17.6871 -208.918 -12.6446C-202.528 -7.60223 -196.139 -1.2992 -193.583 6.26438C-191.027 12.5674 -189.75 20.131 -191.027 28.9553ZM-303.481 419.742C-300.925 414.7 -298.37 409.657 -294.536 405.875C-290.702 402.094 -285.59 399.572 -280.479 397.051C-275.368 394.53 -270.256 394.53 -265.145 394.53H-263.866C-257.477 394.53 -252.365 395.791 -247.254 397.051C-242.143 399.572 -237.031 402.094 -233.197 405.875C-229.364 409.657 -226.808 414.7 -224.252 419.742C-221.696 424.785 -221.696 429.827 -221.696 436.13C-221.696 447.475 -226.808 457.56 -234.475 465.125C-242.143 472.689 -252.365 477.728 -263.866 477.728C-268.978 477.728 -275.368 476.469 -280.479 475.209C-285.59 472.689 -290.702 470.165 -294.536 466.385C-298.37 462.601 -302.203 457.56 -303.481 452.518C-306.037 447.476 -307.315 442.433 -307.315 436.13C-307.315 429.827 -306.037 424.785 -303.481 419.742ZM104.164 291.161C106.721 286.118 109.274 281.076 113.107 277.294C116.941 273.512 122.055 270.991 127.165 268.47C132.275 265.949 137.389 265.949 142.499 265.949C142.499 265.949 142.499 265.949 143.78 265.949H148.89C157.833 267.209 166.781 270.991 173.167 277.294C180.834 284.858 185.949 294.943 185.949 306.288C185.949 317.633 182.115 327.718 173.167 335.282C165.5 342.845 154 347.888 143.78 347.888C132.275 346.627 122.055 342.845 114.388 335.282C106.721 327.718 101.607 317.633 101.607 307.549C100.331 302.506 101.607 296.203 104.164 291.161Z" fill="#FAFBFE" fill-opacity="0.12"/>
</svg>
