<svg width="129" height="575" viewBox="0 0 129 575" fill="none" xmlns="http://www.w3.org/2000/svg">
<path d="M1112.87 441.557C1094.17 411.163 1066.1 390.121 1033.35 376.093C1026.33 247.503 972.527 125.927 878.957 37.0823C783.052 -56.4379 654.398 -110.212 518.726 -110.212C485.977 -110.212 450.89 -107.874 418.141 -100.86C404.106 -119.564 385.393 -135.93 366.68 -147.62C340.949 -161.648 312.879 -171 282.469 -171C235.686 -171 193.58 -152.296 160.832 -121.902C130.423 -89.1699 111.709 -47.0859 111.709 -2.6638C111.709 20.7162 116.388 44.0965 125.745 65.1382C53.2302 149.307 11.125 252.179 1.76833 362.065C-7.58836 471.951 20.4817 581.837 78.9611 675.358C60.2477 703.414 50.891 736.145 50.891 768.877C50.891 803.947 62.5869 836.682 81.3003 864.739C102.353 892.787 130.423 913.834 163.172 925.526C181.885 932.536 200.599 934.873 221.65 934.873C235.686 934.873 252.06 932.536 266.095 930.199C294.166 923.189 319.896 906.816 340.949 888.114C448.551 925.526 565.51 927.863 673.111 895.133C780.714 860.057 874.281 792.257 939.777 698.737C949.13 701.075 958.492 701.075 967.846 701.075C967.846 701.075 967.846 701.075 970.191 701.075C1009.95 701.075 1049.72 687.047 1080.13 661.329C1110.54 635.611 1131.59 598.203 1136.27 558.457C1143.29 516.373 1133.92 474.289 1112.87 441.557ZM383.054 803.947C385.393 792.257 387.732 778.23 387.732 766.54C387.732 722.117 369.019 680.034 338.61 647.301C305.861 614.569 263.756 598.203 219.312 598.203C193.58 598.203 170.189 602.879 149.136 614.569C107.032 542.091 88.3176 455.585 92.9961 371.417C100.013 287.249 132.762 205.419 184.224 139.954C205.276 153.983 228.669 163.334 254.399 165.673C287.147 170.349 319.896 165.673 347.966 151.644C378.376 137.617 401.767 116.574 420.48 90.8567C436.854 60.4624 446.211 30.0681 446.211 -2.6638C446.211 -7.33981 446.211 -9.67783 446.211 -14.3538C469.603 -19.0299 490.656 -19.0299 516.387 -19.0299C626.328 -19.0299 731.591 23.0542 808.784 97.87C883.639 168.01 928.078 263.869 937.441 364.403C909.372 369.078 883.639 380.768 862.585 399.473C857.906 404.148 853.228 406.487 848.549 411.163L846.211 413.501C827.497 432.205 813.462 457.923 806.444 483.641C797.088 518.711 797.088 553.782 808.784 586.513C818.141 612.231 834.515 635.611 853.228 654.315C799.427 724.455 726.912 778.23 642.702 803.947C558.492 832.001 467.264 832.001 383.054 803.947ZM357.323 13.7023C354.984 27.7307 347.966 41.7582 336.27 53.4482C324.574 65.1383 312.879 72.1525 296.504 74.4899C282.469 76.8283 266.095 76.8283 252.06 69.8141C238.025 62.7999 226.329 53.4482 216.973 39.4207C209.955 27.7307 205.276 13.7023 205.276 -2.6638C205.276 -12.0158 207.616 -23.7059 209.955 -30.7199C214.633 -40.0718 219.312 -49.4239 226.329 -56.4379C233.347 -63.4519 242.703 -68.1279 252.06 -72.8039C261.417 -77.48 270.773 -77.48 280.13 -77.48C296.504 -77.48 310.54 -72.8039 324.574 -63.4519C336.27 -54.0999 347.966 -42.4099 352.644 -28.3819C357.323 -16.6918 359.662 -2.6638 357.323 13.7023ZM151.476 738.484C156.154 729.131 160.832 719.78 167.85 712.765C174.867 705.751 184.224 701.075 193.58 696.399C202.937 691.724 212.294 691.724 221.65 691.724H223.99C235.686 691.724 245.043 694.061 254.399 696.399C263.756 701.075 273.113 705.751 280.13 712.765C287.147 719.78 291.826 729.131 296.504 738.484C301.183 747.835 301.183 757.187 301.183 768.877C301.183 789.92 291.826 808.623 277.791 822.654C263.756 836.683 245.043 846.029 223.99 846.029C214.633 846.029 202.937 843.692 193.58 841.356C184.224 836.683 174.867 832 167.85 824.991C160.832 817.972 153.815 808.623 151.476 799.271C146.797 789.92 144.458 780.567 144.458 768.877C144.458 757.187 146.797 747.835 151.476 738.484ZM897.673 500.007C902.354 490.655 907.027 481.303 914.044 474.289C921.061 467.274 930.423 462.599 939.777 457.923C949.13 453.247 958.492 453.247 967.846 453.247C967.846 453.247 967.846 453.247 970.191 453.247H979.544C995.915 455.585 1012.29 462.599 1023.98 474.289C1038.02 488.317 1047.38 507.021 1047.38 528.063C1047.38 549.105 1040.36 567.809 1023.98 581.837C1009.95 595.865 988.898 605.217 970.191 605.217C949.13 602.879 930.423 595.865 916.389 581.837C902.354 567.809 892.992 549.105 892.992 530.401C890.656 521.049 892.992 509.359 897.673 500.007Z" fill="#FAFBFE" fill-opacity="0.12"/>
</svg>
