<svg width="664" height="70" viewBox="0 0 664 70" fill="none" xmlns="http://www.w3.org/2000/svg">
<path d="M9.794 13.39V24.94H25.304V32.266H9.794V44.476H27.284V52H0.554V5.866H27.284V13.39H9.794ZM55.877 52L48.353 40.648L41.687 52H31.787L43.733 33.652L31.655 15.436H42.083L49.541 26.722L56.273 15.436H66.173L54.161 33.652L66.305 52H55.877ZM105.314 32.926C105.314 34.246 105.226 35.434 105.05 36.49H78.3195C78.5395 39.13 79.4635 41.198 81.0915 42.694C82.7195 44.19 84.7215 44.938 87.0975 44.938C90.5295 44.938 92.9715 43.464 94.4235 40.516H104.39C103.334 44.036 101.31 46.94 98.3175 49.228C95.3255 51.472 91.6515 52.594 87.2955 52.594C83.7755 52.594 80.6075 51.824 77.7915 50.284C75.0195 48.7 72.8415 46.478 71.2575 43.618C69.7175 40.758 68.9475 37.458 68.9475 33.718C68.9475 29.934 69.7175 26.612 71.2575 23.752C72.7975 20.892 74.9535 18.692 77.7255 17.152C80.4975 15.612 83.6875 14.842 87.2955 14.842C90.7715 14.842 93.8735 15.59 96.6015 17.086C99.3735 18.582 101.508 20.716 103.004 23.488C104.544 26.216 105.314 29.362 105.314 32.926ZM95.7435 30.286C95.6995 27.91 94.8415 26.018 93.1695 24.61C91.4975 23.158 89.4515 22.432 87.0315 22.432C84.7435 22.432 82.8075 23.136 81.2235 24.544C79.6835 25.908 78.7375 27.822 78.3855 30.286H95.7435ZM109.682 33.718C109.682 29.934 110.452 26.634 111.992 23.818C113.532 20.958 115.666 18.758 118.394 17.218C121.122 15.634 124.246 14.842 127.766 14.842C132.298 14.842 136.038 15.986 138.986 18.274C141.978 20.518 143.98 23.686 144.992 27.778H135.026C134.498 26.194 133.596 24.962 132.32 24.082C131.088 23.158 129.548 22.696 127.7 22.696C125.06 22.696 122.97 23.664 121.43 25.6C119.89 27.492 119.12 30.198 119.12 33.718C119.12 37.194 119.89 39.9 121.43 41.836C122.97 43.728 125.06 44.674 127.7 44.674C131.44 44.674 133.882 43.002 135.026 39.658H144.992C143.98 43.618 141.978 46.764 138.986 49.096C135.994 51.428 132.254 52.594 127.766 52.594C124.246 52.594 121.122 51.824 118.394 50.284C115.666 48.7 113.532 46.5 111.992 43.684C110.452 40.824 109.682 37.502 109.682 33.718ZM186.279 15.436V52H176.973V47.38C175.785 48.964 174.223 50.218 172.287 51.142C170.395 52.022 168.327 52.462 166.083 52.462C163.223 52.462 160.693 51.868 158.493 50.68C156.293 49.448 154.555 47.666 153.279 45.334C152.047 42.958 151.431 40.142 151.431 36.886V15.436H160.671V35.566C160.671 38.47 161.397 40.714 162.849 42.298C164.301 43.838 166.281 44.608 168.789 44.608C171.341 44.608 173.343 43.838 174.795 42.298C176.247 40.714 176.973 38.47 176.973 35.566V15.436H186.279ZM206.154 23.026V40.714C206.154 41.946 206.44 42.848 207.012 43.42C207.628 43.948 208.64 44.212 210.048 44.212H214.338V52H208.53C200.742 52 196.848 48.216 196.848 40.648V23.026H192.492V15.436H196.848V6.394H206.154V15.436H214.338V23.026H206.154ZM225.67 11.08C224.042 11.08 222.678 10.574 221.578 9.562C220.522 8.506 219.994 7.208 219.994 5.668C219.994 4.128 220.522 2.852 221.578 1.84C222.678 0.783997 224.042 0.255997 225.67 0.255997C227.298 0.255997 228.64 0.783997 229.696 1.84C230.796 2.852 231.346 4.128 231.346 5.668C231.346 7.208 230.796 8.506 229.696 9.562C228.64 10.574 227.298 11.08 225.67 11.08ZM230.224 15.436V52H220.984V15.436H230.224ZM254.599 43.486L263.839 15.436H273.673L260.143 52H248.923L235.459 15.436H245.359L254.599 43.486ZM312.853 32.926C312.853 34.246 312.765 35.434 312.589 36.49H285.859C286.079 39.13 287.003 41.198 288.631 42.694C290.259 44.19 292.261 44.938 294.637 44.938C298.069 44.938 300.511 43.464 301.963 40.516H311.929C310.873 44.036 308.849 46.94 305.857 49.228C302.865 51.472 299.191 52.594 294.835 52.594C291.315 52.594 288.147 51.824 285.331 50.284C282.559 48.7 280.381 46.478 278.797 43.618C277.257 40.758 276.487 37.458 276.487 33.718C276.487 29.934 277.257 26.612 278.797 23.752C280.337 20.892 282.493 18.692 285.265 17.152C288.037 15.612 291.227 14.842 294.835 14.842C298.311 14.842 301.413 15.59 304.141 17.086C306.913 18.582 309.047 20.716 310.543 23.488C312.083 26.216 312.853 29.362 312.853 32.926ZM303.283 30.286C303.239 27.91 302.381 26.018 300.709 24.61C299.037 23.158 296.991 22.432 294.571 22.432C292.283 22.432 290.347 23.136 288.763 24.544C287.223 25.908 286.277 27.822 285.925 30.286H303.283ZM351.23 52.462C348.018 52.462 345.114 51.912 342.518 50.812C339.966 49.712 337.942 48.128 336.446 46.06C334.95 43.992 334.18 41.55 334.136 38.734H344.036C344.168 40.626 344.828 42.122 346.016 43.222C347.248 44.322 348.92 44.872 351.032 44.872C353.188 44.872 354.882 44.366 356.114 43.354C357.346 42.298 357.962 40.934 357.962 39.262C357.962 37.898 357.544 36.776 356.708 35.896C355.872 35.016 354.816 34.334 353.54 33.85C352.308 33.322 350.592 32.75 348.392 32.134C345.4 31.254 342.958 30.396 341.066 29.56C339.218 28.68 337.612 27.382 336.248 25.666C334.928 23.906 334.268 21.574 334.268 18.67C334.268 15.942 334.95 13.566 336.314 11.542C337.678 9.518 339.592 7.978 342.056 6.922C344.52 5.822 347.336 5.272 350.504 5.272C355.256 5.272 359.106 6.438 362.054 8.77C365.046 11.058 366.696 14.27 367.004 18.406H356.84C356.752 16.822 356.07 15.524 354.794 14.512C353.562 13.456 351.912 12.928 349.844 12.928C348.04 12.928 346.588 13.39 345.488 14.314C344.432 15.238 343.904 16.58 343.904 18.34C343.904 19.572 344.3 20.606 345.092 21.442C345.928 22.234 346.94 22.894 348.128 23.422C349.36 23.906 351.076 24.478 353.276 25.138C356.268 26.018 358.71 26.898 360.602 27.778C362.494 28.658 364.122 29.978 365.486 31.738C366.85 33.498 367.532 35.808 367.532 38.668C367.532 41.132 366.894 43.42 365.618 45.532C364.342 47.644 362.472 49.338 360.008 50.614C357.544 51.846 354.618 52.462 351.23 52.462ZM410.06 15.436V52H400.754V47.38C399.566 48.964 398.004 50.218 396.068 51.142C394.176 52.022 392.108 52.462 389.864 52.462C387.004 52.462 384.474 51.868 382.274 50.68C380.074 49.448 378.336 47.666 377.06 45.334C375.828 42.958 375.212 40.142 375.212 36.886V15.436H384.452V35.566C384.452 38.47 385.178 40.714 386.63 42.298C388.082 43.838 390.062 44.608 392.57 44.608C395.122 44.608 397.124 43.838 398.576 42.298C400.028 40.714 400.754 38.47 400.754 35.566V15.436H410.06ZM464.585 14.908C469.073 14.908 472.681 16.294 475.409 19.066C478.181 21.794 479.567 25.622 479.567 30.55V52H470.327V31.804C470.327 28.944 469.601 26.766 468.149 25.27C466.697 23.73 464.717 22.96 462.209 22.96C459.701 22.96 457.699 23.73 456.203 25.27C454.751 26.766 454.025 28.944 454.025 31.804V52H444.785V31.804C444.785 28.944 444.059 26.766 442.607 25.27C441.155 23.73 439.175 22.96 436.667 22.96C434.115 22.96 432.091 23.73 430.595 25.27C429.143 26.766 428.417 28.944 428.417 31.804V52H419.177V15.436H428.417V19.858C429.605 18.318 431.123 17.108 432.971 16.228C434.863 15.348 436.931 14.908 439.175 14.908C442.035 14.908 444.587 15.524 446.831 16.756C449.075 17.944 450.813 19.66 452.045 21.904C453.233 19.792 454.949 18.098 457.193 16.822C459.481 15.546 461.945 14.908 464.585 14.908ZM533.743 14.908C538.231 14.908 541.839 16.294 544.567 19.066C547.339 21.794 548.725 25.622 548.725 30.55V52H539.485V31.804C539.485 28.944 538.759 26.766 537.307 25.27C535.855 23.73 533.875 22.96 531.367 22.96C528.859 22.96 526.857 23.73 525.361 25.27C523.909 26.766 523.183 28.944 523.183 31.804V52H513.943V31.804C513.943 28.944 513.217 26.766 511.765 25.27C510.313 23.73 508.333 22.96 505.825 22.96C503.273 22.96 501.249 23.73 499.753 25.27C498.301 26.766 497.575 28.944 497.575 31.804V52H488.335V15.436H497.575V19.858C498.763 18.318 500.281 17.108 502.129 16.228C504.021 15.348 506.089 14.908 508.333 14.908C511.193 14.908 513.745 15.524 515.989 16.756C518.233 17.944 519.971 19.66 521.203 21.904C522.391 19.792 524.107 18.098 526.351 16.822C528.639 15.546 531.103 14.908 533.743 14.908ZM555.117 33.586C555.117 29.89 555.843 26.612 557.295 23.752C558.791 20.892 560.793 18.692 563.301 17.152C565.853 15.612 568.691 14.842 571.815 14.842C574.543 14.842 576.919 15.392 578.943 16.492C581.011 17.592 582.661 18.978 583.893 20.65V15.436H593.199V52H583.893V46.654C582.705 48.37 581.055 49.8 578.943 50.944C576.875 52.044 574.477 52.594 571.749 52.594C568.669 52.594 565.853 51.802 563.301 50.218C560.793 48.634 558.791 46.412 557.295 43.552C555.843 40.648 555.117 37.326 555.117 33.586ZM583.893 33.718C583.893 31.474 583.453 29.56 582.573 27.976C581.693 26.348 580.505 25.116 579.009 24.28C577.513 23.4 575.907 22.96 574.191 22.96C572.475 22.96 570.891 23.378 569.439 24.214C567.987 25.05 566.799 26.282 565.875 27.91C564.995 29.494 564.555 31.386 564.555 33.586C564.555 35.786 564.995 37.722 565.875 39.394C566.799 41.022 567.987 42.276 569.439 43.156C570.935 44.036 572.519 44.476 574.191 44.476C575.907 44.476 577.513 44.058 579.009 43.222C580.505 42.342 581.693 41.11 582.573 39.526C583.453 37.898 583.893 35.962 583.893 33.718ZM611.464 21.112C612.652 19.176 614.192 17.658 616.084 16.558C618.02 15.458 620.22 14.908 622.684 14.908V24.61H620.242C617.338 24.61 615.138 25.292 613.642 26.656C612.19 28.02 611.464 30.396 611.464 33.784V52H602.224V15.436H611.464V21.112ZM663.888 15.436L641.25 69.292H631.416L639.336 51.076L624.684 15.436H635.046L644.484 40.978L654.054 15.436H663.888Z" fill="white"/>
</svg>
