<svg width="456" height="53" viewBox="0 0 456 53" fill="none" xmlns="http://www.w3.org/2000/svg">
<path d="M9.794 13.39V24.94H25.304V32.266H9.794V44.476H27.284V52H0.554V5.866H27.284V13.39H9.794ZM55.877 52L48.353 40.648L41.687 52H31.787L43.733 33.652L31.655 15.436H42.083L49.541 26.722L56.273 15.436H66.173L54.161 33.652L66.305 52H55.877ZM76.0095 11.08C74.3815 11.08 73.0175 10.574 71.9175 9.562C70.8615 8.506 70.3335 7.208 70.3335 5.668C70.3335 4.128 70.8615 2.852 71.9175 1.84C73.0175 0.783997 74.3815 0.255997 76.0095 0.255997C77.6375 0.255997 78.9795 0.783997 80.0355 1.84C81.1355 2.852 81.6855 4.128 81.6855 5.668C81.6855 7.208 81.1355 8.506 80.0355 9.562C78.9795 10.574 77.6375 11.08 76.0095 11.08ZM80.5635 15.436V52H71.3235V15.436H80.5635ZM100.451 23.026V40.714C100.451 41.946 100.737 42.848 101.309 43.42C101.925 43.948 102.937 44.212 104.345 44.212H108.635V52H102.827C95.0387 52 91.1447 48.216 91.1447 40.648V23.026H86.7887V15.436H91.1447V6.394H100.451V15.436H108.635V23.026H100.451ZM146.913 52.462C143.701 52.462 140.797 51.912 138.201 50.812C135.649 49.712 133.625 48.128 132.129 46.06C130.633 43.992 129.863 41.55 129.819 38.734H139.719C139.851 40.626 140.511 42.122 141.699 43.222C142.931 44.322 144.603 44.872 146.715 44.872C148.871 44.872 150.565 44.366 151.797 43.354C153.029 42.298 153.645 40.934 153.645 39.262C153.645 37.898 153.227 36.776 152.391 35.896C151.555 35.016 150.499 34.334 149.223 33.85C147.991 33.322 146.275 32.75 144.075 32.134C141.083 31.254 138.641 30.396 136.749 29.56C134.901 28.68 133.295 27.382 131.931 25.666C130.611 23.906 129.951 21.574 129.951 18.67C129.951 15.942 130.633 13.566 131.997 11.542C133.361 9.518 135.275 7.978 137.739 6.922C140.203 5.822 143.019 5.272 146.187 5.272C150.939 5.272 154.789 6.438 157.737 8.77C160.729 11.058 162.379 14.27 162.687 18.406H152.523C152.435 16.822 151.753 15.524 150.477 14.512C149.245 13.456 147.595 12.928 145.527 12.928C143.723 12.928 142.271 13.39 141.171 14.314C140.115 15.238 139.587 16.58 139.587 18.34C139.587 19.572 139.983 20.606 140.775 21.442C141.611 22.234 142.623 22.894 143.811 23.422C145.043 23.906 146.759 24.478 148.959 25.138C151.951 26.018 154.393 26.898 156.285 27.778C158.177 28.658 159.805 29.978 161.169 31.738C162.533 33.498 163.215 35.808 163.215 38.668C163.215 41.132 162.577 43.42 161.301 45.532C160.025 47.644 158.155 49.338 155.691 50.614C153.227 51.846 150.301 52.462 146.913 52.462ZM168.85 33.718C168.85 29.934 169.62 26.634 171.16 23.818C172.7 20.958 174.834 18.758 177.562 17.218C180.29 15.634 183.414 14.842 186.934 14.842C191.466 14.842 195.206 15.986 198.154 18.274C201.146 20.518 203.148 23.686 204.16 27.778H194.194C193.666 26.194 192.764 24.962 191.488 24.082C190.256 23.158 188.716 22.696 186.868 22.696C184.228 22.696 182.138 23.664 180.598 25.6C179.058 27.492 178.288 30.198 178.288 33.718C178.288 37.194 179.058 39.9 180.598 41.836C182.138 43.728 184.228 44.674 186.868 44.674C190.608 44.674 193.05 43.002 194.194 39.658H204.16C203.148 43.618 201.146 46.764 198.154 49.096C195.162 51.428 191.422 52.594 186.934 52.594C183.414 52.594 180.29 51.824 177.562 50.284C174.834 48.7 172.7 46.5 171.16 43.684C169.62 40.824 168.85 37.502 168.85 33.718ZM244.919 32.926C244.919 34.246 244.831 35.434 244.655 36.49H217.925C218.145 39.13 219.069 41.198 220.697 42.694C222.325 44.19 224.327 44.938 226.703 44.938C230.135 44.938 232.577 43.464 234.029 40.516H243.995C242.939 44.036 240.915 46.94 237.923 49.228C234.931 51.472 231.257 52.594 226.901 52.594C223.381 52.594 220.213 51.824 217.397 50.284C214.625 48.7 212.447 46.478 210.863 43.618C209.323 40.758 208.553 37.458 208.553 33.718C208.553 29.934 209.323 26.612 210.863 23.752C212.403 20.892 214.559 18.692 217.331 17.152C220.103 15.612 223.293 14.842 226.901 14.842C230.377 14.842 233.479 15.59 236.207 17.086C238.979 18.582 241.113 20.716 242.609 23.488C244.149 26.216 244.919 29.362 244.919 32.926ZM235.349 30.286C235.305 27.91 234.447 26.018 232.775 24.61C231.103 23.158 229.057 22.432 226.637 22.432C224.349 22.432 222.413 23.136 220.829 24.544C219.289 25.908 218.343 27.822 217.991 30.286H235.349ZM271.925 14.908C276.281 14.908 279.801 16.294 282.485 19.066C285.169 21.794 286.511 25.622 286.511 30.55V52H277.271V31.804C277.271 28.9 276.545 26.678 275.093 25.138C273.641 23.554 271.661 22.762 269.153 22.762C266.601 22.762 264.577 23.554 263.081 25.138C261.629 26.678 260.903 28.9 260.903 31.804V52H251.663V15.436H260.903V19.99C262.135 18.406 263.697 17.174 265.589 16.294C267.525 15.37 269.637 14.908 271.925 14.908ZM292.922 33.586C292.922 29.89 293.648 26.612 295.1 23.752C296.596 20.892 298.598 18.692 301.106 17.152C303.658 15.612 306.496 14.842 309.62 14.842C312.348 14.842 314.724 15.392 316.748 16.492C318.816 17.592 320.466 18.978 321.698 20.65V15.436H331.004V52H321.698V46.654C320.51 48.37 318.86 49.8 316.748 50.944C314.68 52.044 312.282 52.594 309.554 52.594C306.474 52.594 303.658 51.802 301.106 50.218C298.598 48.634 296.596 46.412 295.1 43.552C293.648 40.648 292.922 37.326 292.922 33.586ZM321.698 33.718C321.698 31.474 321.258 29.56 320.378 27.976C319.498 26.348 318.31 25.116 316.814 24.28C315.318 23.4 313.712 22.96 311.996 22.96C310.28 22.96 308.696 23.378 307.244 24.214C305.792 25.05 304.604 26.282 303.68 27.91C302.8 29.494 302.36 31.386 302.36 33.586C302.36 35.786 302.8 37.722 303.68 39.394C304.604 41.022 305.792 42.276 307.244 43.156C308.74 44.036 310.324 44.476 311.996 44.476C313.712 44.476 315.318 44.058 316.814 43.222C318.31 42.342 319.498 41.11 320.378 39.526C321.258 37.898 321.698 35.962 321.698 33.718ZM349.269 21.112C350.457 19.176 351.997 17.658 353.889 16.558C355.825 15.458 358.025 14.908 360.489 14.908V24.61H358.047C355.143 24.61 352.943 25.292 351.447 26.656C349.995 28.02 349.269 30.396 349.269 33.784V52H340.029V15.436H349.269V21.112ZM371.398 11.08C369.77 11.08 368.406 10.574 367.306 9.562C366.25 8.506 365.722 7.208 365.722 5.668C365.722 4.128 366.25 2.852 367.306 1.84C368.406 0.783997 369.77 0.255997 371.398 0.255997C373.026 0.255997 374.368 0.783997 375.424 1.84C376.524 2.852 377.074 4.128 377.074 5.668C377.074 7.208 376.524 8.506 375.424 9.562C374.368 10.574 373.026 11.08 371.398 11.08ZM375.952 15.436V52H366.712V15.436H375.952ZM401.317 52.594C397.797 52.594 394.629 51.824 391.813 50.284C388.997 48.7 386.775 46.478 385.147 43.618C383.563 40.758 382.771 37.458 382.771 33.718C382.771 29.978 383.585 26.678 385.213 23.818C386.885 20.958 389.151 18.758 392.011 17.218C394.871 15.634 398.061 14.842 401.581 14.842C405.101 14.842 408.291 15.634 411.151 17.218C414.011 18.758 416.255 20.958 417.883 23.818C419.555 26.678 420.391 29.978 420.391 33.718C420.391 37.458 419.533 40.758 417.817 43.618C416.145 46.478 413.857 48.7 410.953 50.284C408.093 51.824 404.881 52.594 401.317 52.594ZM401.317 44.542C402.989 44.542 404.551 44.146 406.003 43.354C407.499 42.518 408.687 41.286 409.567 39.658C410.447 38.03 410.887 36.05 410.887 33.718C410.887 30.242 409.963 27.58 408.115 25.732C406.311 23.84 404.089 22.894 401.449 22.894C398.809 22.894 396.587 23.84 394.783 25.732C393.023 27.58 392.143 30.242 392.143 33.718C392.143 37.194 393.001 39.878 394.717 41.77C396.477 43.618 398.677 44.542 401.317 44.542ZM441.161 52.594C438.169 52.594 435.485 52.066 433.109 51.01C430.733 49.91 428.841 48.436 427.433 46.588C426.069 44.74 425.321 42.694 425.189 40.45H434.495C434.671 41.858 435.353 43.024 436.541 43.948C437.773 44.872 439.291 45.334 441.095 45.334C442.855 45.334 444.219 44.982 445.187 44.278C446.199 43.574 446.705 42.672 446.705 41.572C446.705 40.384 446.089 39.504 444.857 38.932C443.669 38.316 441.755 37.656 439.115 36.952C436.387 36.292 434.143 35.61 432.383 34.906C430.667 34.202 429.171 33.124 427.895 31.672C426.663 30.22 426.047 28.262 426.047 25.798C426.047 23.774 426.619 21.926 427.763 20.254C428.951 18.582 430.623 17.262 432.779 16.294C434.979 15.326 437.553 14.842 440.501 14.842C444.857 14.842 448.333 15.942 450.929 18.142C453.525 20.298 454.955 23.224 455.219 26.92H446.375C446.243 25.468 445.627 24.324 444.527 23.488C443.471 22.608 442.041 22.168 440.237 22.168C438.565 22.168 437.267 22.476 436.343 23.092C435.463 23.708 435.023 24.566 435.023 25.666C435.023 26.898 435.639 27.844 436.871 28.504C438.103 29.12 440.017 29.758 442.613 30.418C445.253 31.078 447.431 31.76 449.147 32.464C450.863 33.168 452.337 34.268 453.569 35.764C454.845 37.216 455.505 39.152 455.549 41.572C455.549 43.684 454.955 45.576 453.767 47.248C452.623 48.92 450.951 50.24 448.751 51.208C446.595 52.132 444.065 52.594 441.161 52.594Z" fill="white"/>
</svg>
