<svg width="652" height="70" viewBox="0 0 652 70" fill="none" xmlns="http://www.w3.org/2000/svg">
<path d="M29 5.932V13.39H9.794V25.204H24.512V32.53H9.794V52H0.554V5.932H29ZM44.792 5.932V52H35.552V5.932H44.792ZM74.1832 14.908C78.5392 14.908 82.0592 16.294 84.7432 19.066C87.4272 21.794 88.7692 25.622 88.7692 30.55V52H79.5292V31.804C79.5292 28.9 78.8032 26.678 77.3512 25.138C75.8992 23.554 73.9192 22.762 71.4112 22.762C68.8592 22.762 66.8352 23.554 65.3392 25.138C63.8872 26.678 63.1612 28.9 63.1612 31.804V52H53.9212V15.436H63.1612V19.99C64.3932 18.406 65.9552 17.174 67.8472 16.294C69.7832 15.37 71.8952 14.908 74.1832 14.908ZM95.18 33.586C95.18 29.89 95.906 26.612 97.358 23.752C98.854 20.892 100.856 18.692 103.364 17.152C105.916 15.612 108.754 14.842 111.878 14.842C114.606 14.842 116.982 15.392 119.006 16.492C121.074 17.592 122.724 18.978 123.956 20.65V15.436H133.262V52H123.956V46.654C122.768 48.37 121.118 49.8 119.006 50.944C116.938 52.044 114.54 52.594 111.812 52.594C108.732 52.594 105.916 51.802 103.364 50.218C100.856 48.634 98.854 46.412 97.358 43.552C95.906 40.648 95.18 37.326 95.18 33.586ZM123.956 33.718C123.956 31.474 123.516 29.56 122.636 27.976C121.756 26.348 120.568 25.116 119.072 24.28C117.576 23.4 115.97 22.96 114.254 22.96C112.538 22.96 110.954 23.378 109.502 24.214C108.05 25.05 106.862 26.282 105.938 27.91C105.058 29.494 104.618 31.386 104.618 33.586C104.618 35.786 105.058 37.722 105.938 39.394C106.862 41.022 108.05 42.276 109.502 43.156C110.998 44.036 112.582 44.476 114.254 44.476C115.97 44.476 117.576 44.058 119.072 43.222C120.568 42.342 121.756 41.11 122.636 39.526C123.516 37.898 123.956 35.962 123.956 33.718ZM162.548 14.908C166.904 14.908 170.424 16.294 173.108 19.066C175.792 21.794 177.134 25.622 177.134 30.55V52H167.894V31.804C167.894 28.9 167.168 26.678 165.716 25.138C164.264 23.554 162.284 22.762 159.776 22.762C157.224 22.762 155.2 23.554 153.704 25.138C152.252 26.678 151.526 28.9 151.526 31.804V52H142.286V15.436H151.526V19.99C152.758 18.406 154.32 17.174 156.212 16.294C158.148 15.37 160.26 14.908 162.548 14.908ZM183.545 33.718C183.545 29.934 184.315 26.634 185.855 23.818C187.395 20.958 189.529 18.758 192.257 17.218C194.985 15.634 198.109 14.842 201.629 14.842C206.161 14.842 209.901 15.986 212.849 18.274C215.841 20.518 217.843 23.686 218.855 27.778H208.889C208.361 26.194 207.459 24.962 206.183 24.082C204.951 23.158 203.411 22.696 201.563 22.696C198.923 22.696 196.833 23.664 195.293 25.6C193.753 27.492 192.983 30.198 192.983 33.718C192.983 37.194 193.753 39.9 195.293 41.836C196.833 43.728 198.923 44.674 201.563 44.674C205.303 44.674 207.745 43.002 208.889 39.658H218.855C217.843 43.618 215.841 46.764 212.849 49.096C209.857 51.428 206.117 52.594 201.629 52.594C198.109 52.594 194.985 51.824 192.257 50.284C189.529 48.7 187.395 46.5 185.855 43.684C184.315 40.824 183.545 37.502 183.545 33.718ZM230.31 11.08C228.682 11.08 227.318 10.574 226.218 9.562C225.162 8.506 224.634 7.208 224.634 5.668C224.634 4.128 225.162 2.852 226.218 1.84C227.318 0.783997 228.682 0.255997 230.31 0.255997C231.938 0.255997 233.28 0.783997 234.336 1.84C235.436 2.852 235.986 4.128 235.986 5.668C235.986 7.208 235.436 8.506 234.336 9.562C233.28 10.574 231.938 11.08 230.31 11.08ZM234.864 15.436V52H225.624V15.436H234.864ZM241.617 33.586C241.617 29.89 242.343 26.612 243.795 23.752C245.291 20.892 247.293 18.692 249.801 17.152C252.353 15.612 255.191 14.842 258.315 14.842C261.043 14.842 263.419 15.392 265.443 16.492C267.511 17.592 269.161 18.978 270.393 20.65V15.436H279.699V52H270.393V46.654C269.205 48.37 267.555 49.8 265.443 50.944C263.375 52.044 260.977 52.594 258.249 52.594C255.169 52.594 252.353 51.802 249.801 50.218C247.293 48.634 245.291 46.412 243.795 43.552C242.343 40.648 241.617 37.326 241.617 33.586ZM270.393 33.718C270.393 31.474 269.953 29.56 269.073 27.976C268.193 26.348 267.005 25.116 265.509 24.28C264.013 23.4 262.407 22.96 260.691 22.96C258.975 22.96 257.391 23.378 255.939 24.214C254.487 25.05 253.299 26.282 252.375 27.91C251.495 29.494 251.055 31.386 251.055 33.586C251.055 35.786 251.495 37.722 252.375 39.394C253.299 41.022 254.487 42.276 255.939 43.156C257.435 44.036 259.019 44.476 260.691 44.476C262.407 44.476 264.013 44.058 265.509 43.222C267.005 42.342 268.193 41.11 269.073 39.526C269.953 37.898 270.393 35.962 270.393 33.718ZM297.964 3.16V52H288.724V3.16H297.964ZM338.726 52.462C335.514 52.462 332.61 51.912 330.014 50.812C327.462 49.712 325.438 48.128 323.942 46.06C322.446 43.992 321.676 41.55 321.632 38.734H331.532C331.664 40.626 332.324 42.122 333.512 43.222C334.744 44.322 336.416 44.872 338.528 44.872C340.684 44.872 342.378 44.366 343.61 43.354C344.842 42.298 345.458 40.934 345.458 39.262C345.458 37.898 345.04 36.776 344.204 35.896C343.368 35.016 342.312 34.334 341.036 33.85C339.804 33.322 338.088 32.75 335.888 32.134C332.896 31.254 330.454 30.396 328.562 29.56C326.714 28.68 325.108 27.382 323.744 25.666C322.424 23.906 321.764 21.574 321.764 18.67C321.764 15.942 322.446 13.566 323.81 11.542C325.174 9.518 327.088 7.978 329.552 6.922C332.016 5.822 334.832 5.272 338 5.272C342.752 5.272 346.602 6.438 349.55 8.77C352.542 11.058 354.192 14.27 354.5 18.406H344.336C344.248 16.822 343.566 15.524 342.29 14.512C341.058 13.456 339.408 12.928 337.34 12.928C335.536 12.928 334.084 13.39 332.984 14.314C331.928 15.238 331.4 16.58 331.4 18.34C331.4 19.572 331.796 20.606 332.588 21.442C333.424 22.234 334.436 22.894 335.624 23.422C336.856 23.906 338.572 24.478 340.772 25.138C343.764 26.018 346.206 26.898 348.098 27.778C349.99 28.658 351.618 29.978 352.982 31.738C354.346 33.498 355.028 35.808 355.028 38.668C355.028 41.132 354.39 43.42 353.114 45.532C351.838 47.644 349.968 49.338 347.504 50.614C345.04 51.846 342.114 52.462 338.726 52.462ZM397.556 15.436V52H388.25V47.38C387.062 48.964 385.5 50.218 383.564 51.142C381.672 52.022 379.604 52.462 377.36 52.462C374.5 52.462 371.97 51.868 369.77 50.68C367.57 49.448 365.832 47.666 364.556 45.334C363.324 42.958 362.708 40.142 362.708 36.886V15.436H371.948V35.566C371.948 38.47 372.674 40.714 374.126 42.298C375.578 43.838 377.558 44.608 380.066 44.608C382.618 44.608 384.62 43.838 386.072 42.298C387.524 40.714 388.25 38.47 388.25 35.566V15.436H397.556ZM452.081 14.908C456.569 14.908 460.177 16.294 462.905 19.066C465.677 21.794 467.063 25.622 467.063 30.55V52H457.823V31.804C457.823 28.944 457.097 26.766 455.645 25.27C454.193 23.73 452.213 22.96 449.705 22.96C447.197 22.96 445.195 23.73 443.699 25.27C442.247 26.766 441.521 28.944 441.521 31.804V52H432.281V31.804C432.281 28.944 431.555 26.766 430.103 25.27C428.651 23.73 426.671 22.96 424.163 22.96C421.611 22.96 419.587 23.73 418.091 25.27C416.639 26.766 415.913 28.944 415.913 31.804V52H406.673V15.436H415.913V19.858C417.101 18.318 418.619 17.108 420.467 16.228C422.359 15.348 424.427 14.908 426.671 14.908C429.531 14.908 432.083 15.524 434.327 16.756C436.571 17.944 438.309 19.66 439.541 21.904C440.729 19.792 442.445 18.098 444.689 16.822C446.977 15.546 449.441 14.908 452.081 14.908ZM521.239 14.908C525.727 14.908 529.335 16.294 532.063 19.066C534.835 21.794 536.221 25.622 536.221 30.55V52H526.981V31.804C526.981 28.944 526.255 26.766 524.803 25.27C523.351 23.73 521.371 22.96 518.863 22.96C516.355 22.96 514.353 23.73 512.857 25.27C511.405 26.766 510.679 28.944 510.679 31.804V52H501.439V31.804C501.439 28.944 500.713 26.766 499.261 25.27C497.809 23.73 495.829 22.96 493.321 22.96C490.769 22.96 488.745 23.73 487.249 25.27C485.797 26.766 485.071 28.944 485.071 31.804V52H475.831V15.436H485.071V19.858C486.259 18.318 487.777 17.108 489.625 16.228C491.517 15.348 493.585 14.908 495.829 14.908C498.689 14.908 501.241 15.524 503.485 16.756C505.729 17.944 507.467 19.66 508.699 21.904C509.887 19.792 511.603 18.098 513.847 16.822C516.135 15.546 518.599 14.908 521.239 14.908ZM542.614 33.586C542.614 29.89 543.34 26.612 544.792 23.752C546.288 20.892 548.29 18.692 550.798 17.152C553.35 15.612 556.188 14.842 559.312 14.842C562.04 14.842 564.416 15.392 566.44 16.492C568.508 17.592 570.158 18.978 571.39 20.65V15.436H580.696V52H571.39V46.654C570.202 48.37 568.552 49.8 566.44 50.944C564.372 52.044 561.974 52.594 559.246 52.594C556.166 52.594 553.35 51.802 550.798 50.218C548.29 48.634 546.288 46.412 544.792 43.552C543.34 40.648 542.614 37.326 542.614 33.586ZM571.39 33.718C571.39 31.474 570.95 29.56 570.07 27.976C569.19 26.348 568.002 25.116 566.506 24.28C565.01 23.4 563.404 22.96 561.688 22.96C559.972 22.96 558.388 23.378 556.936 24.214C555.484 25.05 554.296 26.282 553.372 27.91C552.492 29.494 552.052 31.386 552.052 33.586C552.052 35.786 552.492 37.722 553.372 39.394C554.296 41.022 555.484 42.276 556.936 43.156C558.432 44.036 560.016 44.476 561.688 44.476C563.404 44.476 565.01 44.058 566.506 43.222C568.002 42.342 569.19 41.11 570.07 39.526C570.95 37.898 571.39 35.962 571.39 33.718ZM598.96 21.112C600.148 19.176 601.688 17.658 603.58 16.558C605.516 15.458 607.716 14.908 610.18 14.908V24.61H607.738C604.834 24.61 602.634 25.292 601.138 26.656C599.686 28.02 598.96 30.396 598.96 33.784V52H589.72V15.436H598.96V21.112ZM651.384 15.436L628.746 69.292H618.912L626.832 51.076L612.18 15.436H622.542L631.98 40.978L641.55 15.436H651.384Z" fill="white"/>
</svg>
