<svg width="28" height="28" viewBox="0 0 28 28" fill="none" xmlns="http://www.w3.org/2000/svg">
<circle cx="14" cy="14" r="14" fill="#469BD3"/>
<path d="M13.6638 19.0723H11.3221C9.81853 19.0723 8.59481 18.9944 8.59481 17.7011V14.4394H7.72901C7.43351 14.4394 7.1682 14.2852 7.05525 14.0499C6.94267 13.8132 7.00549 13.5418 7.21316 13.3611L12.9695 8.37036C13.2445 8.13156 13.6108 8 13.9998 8C14.3889 8 14.7554 8.13157 15.0305 8.37036C15.9832 9.19633 16.6976 9.81577 17.174 10.2288C17.2085 10.2587 17.3042 10.3417 17.3248 10.3595C17.3385 10.3713 17.3453 10.2896 17.3453 10.1141C17.3809 9.67798 17.7946 9.33367 18.307 9.33367H18.3128C18.8478 9.33367 19.2807 9.70897 19.2807 10.1725V11.9152C19.2807 11.9616 19.2733 12.0018 19.2652 12.0429L20.7868 13.361C20.9953 13.5418 21.0573 13.8132 20.9443 14.0499C20.8317 14.2852 20.566 14.4394 20.2709 14.4394H19.2807V14.8564C20.3171 15.457 21 16.4833 21 17.6483C21 19.4994 19.2763 21 17.1502 21C15.6087 21 14.2789 20.2114 13.6639 19.0725L13.6638 19.0723ZM17.1501 20.695C19.0831 20.695 20.6502 19.3309 20.6502 17.6481C20.6502 15.9654 19.0832 14.6014 17.1501 14.6014C15.2171 14.6014 13.65 15.9654 13.65 17.6481C13.65 19.3308 15.217 20.695 17.1501 20.695ZM18.5975 18.2074C18.5975 18.4316 18.5052 18.6254 18.3206 18.7888C18.136 18.9522 17.8683 19.0568 17.5178 19.1027V19.3095C17.5178 19.4437 17.3927 19.5526 17.2385 19.5526C17.0843 19.5526 16.9593 19.4437 16.9593 19.3095V19.119C16.7265 19.1055 16.5062 19.071 16.2983 19.0157C16.169 18.9813 16.0534 18.9418 15.9517 18.8974C15.8538 18.8546 15.8117 18.7524 15.8563 18.6653C15.8577 18.6624 15.8592 18.6596 15.8606 18.6569L16.0119 18.361C16.0477 18.2911 16.1417 18.2597 16.222 18.2908C16.2255 18.2922 16.2291 18.2937 16.2326 18.2953C16.2406 18.2991 16.2482 18.3025 16.2552 18.3056C16.3581 18.3509 16.4702 18.3897 16.5915 18.4221C16.7839 18.4734 16.9732 18.4991 17.1593 18.4991C17.5131 18.4991 17.69 18.4221 17.69 18.2682C17.69 18.1871 17.6396 18.127 17.5387 18.0878C17.4378 18.0487 17.2757 18.0075 17.0523 17.9643C16.8072 17.9183 16.6024 17.8691 16.438 17.8163C16.2735 17.7637 16.1323 17.6793 16.0144 17.5632C15.8965 17.4471 15.8375 17.2904 15.8375 17.0932C15.8375 16.8609 15.9337 16.6617 16.1261 16.4955C16.3185 16.3294 16.5962 16.2275 16.9593 16.1897V15.9871C16.9593 15.8528 17.0843 15.744 17.2385 15.744C17.3927 15.744 17.5178 15.8528 17.5178 15.9871V16.1816C17.6946 16.1951 17.8645 16.2221 18.0273 16.2626C18.1421 16.2912 18.2482 16.3258 18.3452 16.3664C18.3534 16.3698 18.3625 16.3737 18.3727 16.3783C18.424 16.4013 18.4464 16.4546 18.4243 16.5009L18.2131 16.9441C18.1956 16.9807 18.1472 16.9981 18.1051 16.9829C18.1032 16.9822 18.1014 16.9815 18.0996 16.9807C18.0841 16.974 18.0709 16.9683 18.06 16.9638C17.7914 16.8529 17.5301 16.7974 17.2757 16.7974C17.0927 16.7974 16.9593 16.8211 16.8754 16.8684C16.7917 16.9155 16.7498 16.9771 16.7498 17.0527C16.7498 17.1283 16.7994 17.185 16.8987 17.2229C16.998 17.2607 17.1579 17.2998 17.3781 17.3404C17.6263 17.3863 17.8319 17.4356 17.9948 17.4882C18.1577 17.5409 18.2989 17.6246 18.4183 17.7395C18.5378 17.8542 18.5975 18.0102 18.5975 18.2074L18.5975 18.2074Z" fill="white"/>
</svg>
