<svg width="28" height="28" viewBox="0 0 28 28" fill="none" xmlns="http://www.w3.org/2000/svg">
<circle cx="14" cy="14" r="14" fill="#469BD3"/>
<path d="M9.35534 9.00057C9.15597 9.01075 8.99968 9.17194 9 9.3672V19.6334C9 19.8358 9.16783 20 9.37492 20H18.6233C18.7715 20.0006 18.9061 19.9159 18.9669 19.7838C19.0278 19.6517 19.0033 19.4969 18.9046 19.3889L9.65616 9.12274C9.58018 9.03937 9.46947 8.99441 9.35536 9.00056L9.35534 9.00057ZM9.74985 10.3373L17.7954 19.2666H9.74985V18.9H10.3748C10.4751 18.9013 10.5719 18.8633 10.6433 18.7945C10.7148 18.7255 10.7551 18.6315 10.7551 18.5333C10.7551 18.4352 10.7148 18.3411 10.6433 18.2722C10.5719 18.2033 10.4751 18.1653 10.3748 18.1666H9.74985V17.8H10.1248C10.2252 17.8014 10.3219 17.7634 10.3933 17.6945C10.4649 17.6256 10.5051 17.5316 10.5051 17.4334C10.5051 17.3353 10.4649 17.2412 10.3933 17.1723C10.3219 17.1033 10.2252 17.0653 10.1248 17.0668H9.74985V16.5779H10.1248C10.2252 16.5793 10.3219 16.5413 10.3933 16.4724C10.4649 16.4034 10.5051 16.3094 10.5051 16.2113C10.5051 16.1131 10.4649 16.0191 10.3933 15.9501C10.3219 15.8813 10.2252 15.8433 10.1248 15.8446H9.74985V15.4779H10.3748C10.4751 15.4794 10.5719 15.4414 10.6433 15.3724C10.7148 15.3035 10.7551 15.2095 10.7551 15.1113C10.7551 15.0132 10.7148 14.9192 10.6433 14.8502C10.5719 14.7813 10.4751 14.7433 10.3748 14.7447H9.74985V14.378H10.1248C10.2252 14.3795 10.3219 14.3415 10.3933 14.2725C10.4649 14.2037 10.5051 14.1096 10.5051 14.0114C10.5051 13.9132 10.4649 13.8192 10.3933 13.7503C10.3219 13.6814 10.2252 13.6434 10.1248 13.6448H9.74985V13.2782H10.1248C10.2252 13.2795 10.3219 13.2415 10.3933 13.1726C10.4649 13.1037 10.5051 13.0096 10.5051 12.9115C10.5051 12.8133 10.4649 12.7193 10.3933 12.6503C10.3219 12.5815 10.2252 12.5435 10.1248 12.5448H9.74985V12.1782H10.3748C10.4751 12.1796 10.5719 12.1416 10.6433 12.0726C10.7148 12.0038 10.7551 11.9097 10.7551 11.8115C10.7551 11.7134 10.7148 11.6194 10.6433 11.5504C10.5719 11.4816 10.4751 11.4435 10.3748 11.4449H9.74985V10.3373ZM11.726 14.5002C11.5282 14.5123 11.3742 14.6729 11.3746 14.8668V17.5556C11.3746 17.758 11.5424 17.9221 11.7495 17.9222H14.2491C14.3981 17.9227 14.5333 17.8368 14.5935 17.7035C14.6536 17.5701 14.6273 17.4146 14.5264 17.3073L12.0268 14.6185C11.95 14.5365 11.8395 14.493 11.726 14.5L11.726 14.5002ZM12.1245 15.814L13.4055 17.1889H12.1245V15.814Z" fill="white"/>
</svg>
