<svg width="611" height="53" viewBox="0 0 611 53" fill="none" xmlns="http://www.w3.org/2000/svg">
<path d="M9.794 44.674H24.974V52H0.554V5.932H9.794V44.674ZM47.083 52.594C43.563 52.594 40.395 51.824 37.579 50.284C34.763 48.7 32.541 46.478 30.913 43.618C29.329 40.758 28.537 37.458 28.537 33.718C28.537 29.978 29.351 26.678 30.979 23.818C32.651 20.958 34.917 18.758 37.777 17.218C40.637 15.634 43.827 14.842 47.347 14.842C50.867 14.842 54.057 15.634 56.917 17.218C59.777 18.758 62.021 20.958 63.649 23.818C65.321 26.678 66.157 29.978 66.157 33.718C66.157 37.458 65.299 40.758 63.583 43.618C61.911 46.478 59.623 48.7 56.719 50.284C53.859 51.824 50.647 52.594 47.083 52.594ZM47.083 44.542C48.755 44.542 50.317 44.146 51.769 43.354C53.265 42.518 54.453 41.286 55.333 39.658C56.213 38.03 56.653 36.05 56.653 33.718C56.653 30.242 55.729 27.58 53.881 25.732C52.077 23.84 49.855 22.894 47.215 22.894C44.575 22.894 42.353 23.84 40.549 25.732C38.789 27.58 37.909 30.242 37.909 33.718C37.909 37.194 38.767 39.878 40.483 41.77C42.243 43.618 44.443 44.542 47.083 44.542ZM70.5589 33.718C70.5589 29.934 71.3289 26.634 72.8689 23.818C74.4089 20.958 76.5429 18.758 79.2709 17.218C81.9989 15.634 85.1229 14.842 88.6429 14.842C93.1749 14.842 96.9149 15.986 99.8629 18.274C102.855 20.518 104.857 23.686 105.869 27.778H95.9029C95.3749 26.194 94.4729 24.962 93.1969 24.082C91.9649 23.158 90.4249 22.696 88.5769 22.696C85.9369 22.696 83.8469 23.664 82.3069 25.6C80.7669 27.492 79.9969 30.198 79.9969 33.718C79.9969 37.194 80.7669 39.9 82.3069 41.836C83.8469 43.728 85.9369 44.674 88.5769 44.674C92.3169 44.674 94.7589 43.002 95.9029 39.658H105.869C104.857 43.618 102.855 46.764 99.8629 49.096C96.8709 51.428 93.1309 52.594 88.6429 52.594C85.1229 52.594 81.9989 51.824 79.2709 50.284C76.5429 48.7 74.4089 46.5 72.8689 43.684C71.3289 40.824 70.5589 37.502 70.5589 33.718ZM110.262 33.586C110.262 29.89 110.988 26.612 112.44 23.752C113.936 20.892 115.938 18.692 118.446 17.152C120.998 15.612 123.836 14.842 126.96 14.842C129.688 14.842 132.064 15.392 134.088 16.492C136.156 17.592 137.806 18.978 139.038 20.65V15.436H148.344V52H139.038V46.654C137.85 48.37 136.2 49.8 134.088 50.944C132.02 52.044 129.622 52.594 126.894 52.594C123.814 52.594 120.998 51.802 118.446 50.218C115.938 48.634 113.936 46.412 112.44 43.552C110.988 40.648 110.262 37.326 110.262 33.586ZM139.038 33.718C139.038 31.474 138.598 29.56 137.718 27.976C136.838 26.348 135.65 25.116 134.154 24.28C132.658 23.4 131.052 22.96 129.336 22.96C127.62 22.96 126.036 23.378 124.584 24.214C123.132 25.05 121.944 26.282 121.02 27.91C120.14 29.494 119.7 31.386 119.7 33.586C119.7 35.786 120.14 37.722 121.02 39.394C121.944 41.022 123.132 42.276 124.584 43.156C126.08 44.036 127.664 44.476 129.336 44.476C131.052 44.476 132.658 44.058 134.154 43.222C135.65 42.342 136.838 41.11 137.718 39.526C138.598 37.898 139.038 35.962 139.038 33.718ZM168.126 23.026V40.714C168.126 41.946 168.412 42.848 168.984 43.42C169.6 43.948 170.612 44.212 172.02 44.212H176.31V52H170.502C162.714 52 158.82 48.216 158.82 40.648V23.026H154.464V15.436H158.82V6.394H168.126V15.436H176.31V23.026H168.126ZM187.642 11.08C186.014 11.08 184.65 10.574 183.55 9.562C182.494 8.506 181.966 7.208 181.966 5.668C181.966 4.128 182.494 2.852 183.55 1.84C184.65 0.783997 186.014 0.255997 187.642 0.255997C189.27 0.255997 190.612 0.783997 191.668 1.84C192.768 2.852 193.318 4.128 193.318 5.668C193.318 7.208 192.768 8.506 191.668 9.562C190.612 10.574 189.27 11.08 187.642 11.08ZM192.196 15.436V52H182.956V15.436H192.196ZM217.561 52.594C214.041 52.594 210.873 51.824 208.057 50.284C205.241 48.7 203.019 46.478 201.391 43.618C199.807 40.758 199.015 37.458 199.015 33.718C199.015 29.978 199.829 26.678 201.457 23.818C203.129 20.958 205.395 18.758 208.255 17.218C211.115 15.634 214.305 14.842 217.825 14.842C221.345 14.842 224.535 15.634 227.395 17.218C230.255 18.758 232.499 20.958 234.127 23.818C235.799 26.678 236.635 29.978 236.635 33.718C236.635 37.458 235.777 40.758 234.061 43.618C232.389 46.478 230.101 48.7 227.197 50.284C224.337 51.824 221.125 52.594 217.561 52.594ZM217.561 44.542C219.233 44.542 220.795 44.146 222.247 43.354C223.743 42.518 224.931 41.286 225.811 39.658C226.691 38.03 227.131 36.05 227.131 33.718C227.131 30.242 226.207 27.58 224.359 25.732C222.555 23.84 220.333 22.894 217.693 22.894C215.053 22.894 212.831 23.84 211.027 25.732C209.267 27.58 208.387 30.242 208.387 33.718C208.387 37.194 209.245 39.878 210.961 41.77C212.721 43.618 214.921 44.542 217.561 44.542ZM263.675 14.908C268.031 14.908 271.551 16.294 274.235 19.066C276.919 21.794 278.261 25.622 278.261 30.55V52H269.021V31.804C269.021 28.9 268.295 26.678 266.843 25.138C265.391 23.554 263.411 22.762 260.903 22.762C258.351 22.762 256.327 23.554 254.831 25.138C253.379 26.678 252.653 28.9 252.653 31.804V52H243.413V15.436H252.653V19.99C253.885 18.406 255.447 17.174 257.339 16.294C259.275 15.37 261.387 14.908 263.675 14.908ZM324.159 52.462C319.847 52.462 315.887 51.45 312.279 49.426C308.671 47.402 305.811 44.608 303.699 41.044C301.587 37.436 300.531 33.366 300.531 28.834C300.531 24.346 301.587 20.32 303.699 16.756C305.811 13.148 308.671 10.332 312.279 8.308C315.887 6.284 319.847 5.272 324.159 5.272C328.515 5.272 332.475 6.284 336.039 8.308C339.647 10.332 342.485 13.148 344.553 16.756C346.665 20.32 347.721 24.346 347.721 28.834C347.721 33.366 346.665 37.436 344.553 41.044C342.485 44.608 339.647 47.402 336.039 49.426C332.431 51.45 328.471 52.462 324.159 52.462ZM324.159 44.212C326.931 44.212 329.373 43.596 331.485 42.364C333.597 41.088 335.247 39.284 336.435 36.952C337.623 34.62 338.217 31.914 338.217 28.834C338.217 25.754 337.623 23.07 336.435 20.782C335.247 18.45 333.597 16.668 331.485 15.436C329.373 14.204 326.931 13.588 324.159 13.588C321.387 13.588 318.923 14.204 316.767 15.436C314.655 16.668 313.005 18.45 311.817 20.782C310.629 23.07 310.035 25.754 310.035 28.834C310.035 31.914 310.629 34.62 311.817 36.952C313.005 39.284 314.655 41.088 316.767 42.364C318.923 43.596 321.387 44.212 324.159 44.212ZM369.841 43.486L379.081 15.436H388.915L375.385 52H364.165L350.701 15.436H360.601L369.841 43.486ZM428.095 32.926C428.095 34.246 428.007 35.434 427.831 36.49H401.101C401.321 39.13 402.245 41.198 403.873 42.694C405.501 44.19 407.503 44.938 409.879 44.938C413.311 44.938 415.753 43.464 417.205 40.516H427.171C426.115 44.036 424.091 46.94 421.099 49.228C418.107 51.472 414.433 52.594 410.077 52.594C406.557 52.594 403.389 51.824 400.573 50.284C397.801 48.7 395.623 46.478 394.039 43.618C392.499 40.758 391.729 37.458 391.729 33.718C391.729 29.934 392.499 26.612 394.039 23.752C395.579 20.892 397.735 18.692 400.507 17.152C403.279 15.612 406.469 14.842 410.077 14.842C413.553 14.842 416.655 15.59 419.383 17.086C422.155 18.582 424.289 20.716 425.785 23.488C427.325 26.216 428.095 29.362 428.095 32.926ZM418.525 30.286C418.481 27.91 417.623 26.018 415.951 24.61C414.279 23.158 412.233 22.432 409.813 22.432C407.525 22.432 405.589 23.136 404.005 24.544C402.465 25.908 401.519 27.822 401.167 30.286H418.525ZM444.079 21.112C445.267 19.176 446.807 17.658 448.699 16.558C450.635 15.458 452.835 14.908 455.299 14.908V24.61H452.857C449.953 24.61 447.753 25.292 446.257 26.656C444.805 28.02 444.079 30.396 444.079 33.784V52H434.839V15.436H444.079V21.112ZM476.769 43.486L486.009 15.436H495.843L482.313 52H471.093L457.629 15.436H467.529L476.769 43.486ZM505.719 11.08C504.091 11.08 502.727 10.574 501.627 9.562C500.571 8.506 500.043 7.208 500.043 5.668C500.043 4.128 500.571 2.852 501.627 1.84C502.727 0.783997 504.091 0.255997 505.719 0.255997C507.347 0.255997 508.689 0.783997 509.745 1.84C510.845 2.852 511.395 4.128 511.395 5.668C511.395 7.208 510.845 8.506 509.745 9.562C508.689 10.574 507.347 11.08 505.719 11.08ZM510.273 15.436V52H501.033V15.436H510.273ZM553.392 32.926C553.392 34.246 553.304 35.434 553.128 36.49H526.398C526.618 39.13 527.542 41.198 529.17 42.694C530.798 44.19 532.8 44.938 535.176 44.938C538.608 44.938 541.05 43.464 542.502 40.516H552.468C551.412 44.036 549.388 46.94 546.396 49.228C543.404 51.472 539.73 52.594 535.374 52.594C531.854 52.594 528.686 51.824 525.87 50.284C523.098 48.7 520.92 46.478 519.336 43.618C517.796 40.758 517.026 37.458 517.026 33.718C517.026 29.934 517.796 26.612 519.336 23.752C520.876 20.892 523.032 18.692 525.804 17.152C528.576 15.612 531.766 14.842 535.374 14.842C538.85 14.842 541.952 15.59 544.68 17.086C547.452 18.582 549.586 20.716 551.082 23.488C552.622 26.216 553.392 29.362 553.392 32.926ZM543.822 30.286C543.778 27.91 542.92 26.018 541.248 24.61C539.576 23.158 537.53 22.432 535.11 22.432C532.822 22.432 530.886 23.136 529.302 24.544C527.762 25.908 526.816 27.822 526.464 30.286H543.822ZM610.824 15.436L600.132 52H590.166L583.5 26.458L576.834 52H566.802L556.044 15.436H565.416L571.884 43.288L578.88 15.436H588.648L595.512 43.222L601.98 15.436H610.824Z" fill="white"/>
</svg>
