<svg width="14" height="14" viewBox="0 0 14 14" fill="none" xmlns="http://www.w3.org/2000/svg">
<path fill-rule="evenodd" clip-rule="evenodd" d="M6.99825 0C5.84399 0 4.90093 1.76838 4.90093 3.93323C4.90093 4.44076 4.95611 4.92405 5.05034 5.37084C5.03482 5.38055 5.02016 5.39187 5.00477 5.4018C4.81643 5.13567 4.59705 4.92637 4.3549 4.7589C4.40023 4.47914 4.43152 4.18807 4.43152 3.88198C4.43152 2.20065 3.69567 0.820345 2.79906 0.820345C1.90258 0.820345 1.16575 2.20065 1.16575 3.88198C1.16575 4.18668 1.1974 4.47686 1.24224 4.75565C0.99552 4.92821 0.771706 5.14028 0.582382 5.40499C0.255227 5.86263 0.000504527 6.5261 0 7.32146V7.32308V10.4496C0 10.6818 0.0491473 10.9042 0.136601 11.0685C0.224177 11.2325 0.342921 11.3249 0.466593 11.3249H3.2676V13.1282C3.26809 13.3592 3.31712 13.5805 3.4042 13.7436C3.49129 13.9069 3.60929 13.9991 3.73233 14H10.2675C10.3907 13.9991 10.5087 13.9069 10.5957 13.7436C10.6828 13.5805 10.7319 13.3592 10.7324 13.1282V11.3778H13.5333C13.6572 11.3778 13.7761 11.2854 13.8636 11.1209C13.9512 10.9564 14.0002 10.7332 14 10.5009V7.37435V7.37251C13.999 6.57803 13.7435 5.91343 13.4166 5.45628C13.2273 5.19154 13.0036 4.98062 12.7568 4.80853C12.8019 4.529 12.8343 4.23862 12.8343 3.93321C12.8343 2.25188 12.0974 0.871571 11.2009 0.871571C10.3043 0.871571 9.56849 2.25188 9.56849 3.93321C9.56849 4.23861 9.5999 4.52898 9.64498 4.80853C9.41218 4.96932 9.1997 5.16867 9.01618 5.4205C8.99352 5.40595 8.97159 5.39024 8.94868 5.37615C9.04389 4.92798 9.09994 4.44263 9.09994 3.93327C9.09994 1.76848 8.15247 3.60957e-05 6.99821 3.60957e-05L6.99825 0ZM6.99825 1.7504C7.64798 1.7504 8.16582 2.71443 8.16582 3.93323C8.16582 4.49667 8.05188 5.00187 7.8686 5.38794C7.82758 5.4748 7.78274 5.55311 7.73556 5.62565C7.71881 5.65129 7.70292 5.67878 7.68543 5.70257C7.63616 5.7698 7.58357 5.82686 7.52962 5.87861C7.51213 5.89524 7.49562 5.91488 7.47764 5.92989C7.41716 5.98095 7.35434 6.01837 7.2898 6.04956C7.27551 6.05649 7.26245 6.06781 7.24792 6.07358C7.17734 6.10223 7.10429 6.11401 7.031 6.11794C7.02103 6.1184 7.01179 6.12463 7.00181 6.12487C6.91694 6.12463 6.83269 6.10685 6.75115 6.07358C6.74746 6.07196 6.74401 6.06988 6.74019 6.0685C6.5824 6.00058 6.43434 5.87168 6.30453 5.69056C6.29689 5.67994 6.29024 5.66746 6.28273 5.65637C6.2257 5.57252 6.17248 5.4785 6.12408 5.37431C5.94535 4.98967 5.83425 4.49047 5.83425 3.93326C5.83425 2.71446 6.34839 1.75044 6.99825 1.75044L6.99825 1.7504ZM2.79901 2.57096C3.19121 2.57096 3.49815 3.14664 3.49815 3.88196C3.49815 4.21739 3.4325 4.5177 3.32583 4.7487C3.29553 4.81362 3.2624 4.87299 3.22655 4.92473C3.22458 4.92751 3.22298 4.93051 3.22101 4.93328C3.18258 4.9878 3.14132 5.03354 3.09796 5.07165C3.09624 5.07327 3.09513 5.0772 3.0934 5.07858C3.04832 5.11763 3.0009 5.1472 2.95212 5.16752C2.90297 5.18809 2.85222 5.19825 2.80086 5.19825C2.5954 5.19756 2.40055 5.02892 2.26764 4.73507C2.2653 4.72976 2.26283 4.72468 2.26037 4.71959C2.16121 4.49227 2.1 4.20397 2.1 3.88195C2.1 3.14661 2.40695 2.57095 2.79902 2.57095L2.79901 2.57096ZM11.201 2.62224C11.593 2.62224 11.901 3.19793 11.901 3.93324C11.901 4.2555 11.8388 4.54521 11.7396 4.77272C11.7374 4.77711 11.7353 4.78173 11.7332 4.78635C11.6003 5.07974 11.4062 5.24907 11.2009 5.24953C10.9954 5.24884 10.8006 5.0802 10.6677 4.78635C10.6642 4.77942 10.6605 4.77249 10.6568 4.76579C10.5587 4.5394 10.4981 4.25202 10.4981 3.93323C10.4981 3.19789 10.8088 2.62223 11.201 2.62223L11.201 2.62224ZM1.80919 6.30088C2.08522 6.70215 2.42616 6.95212 2.79904 6.95212C3.16759 6.95212 3.50544 6.70909 3.77977 6.31614C3.8421 6.35795 3.89211 6.40415 3.942 6.4529C3.59933 6.96944 3.33978 7.63615 3.28129 8.41212C3.2718 8.52116 3.26675 8.63343 3.26663 8.7487V8.75055V9.57436H0.933317V7.32317C0.93344 7.23192 0.96448 7.05381 1.14111 6.80685C1.27882 6.61419 1.53578 6.44624 1.80923 6.30094L1.80919 6.30088ZM12.1908 6.35216C12.464 6.49747 12.7212 6.66703 12.8589 6.85993C13.0358 7.10734 13.0666 7.28499 13.0667 7.37601V9.62561H10.7334V8.75053V8.74706C10.733 8.63363 10.7281 8.52437 10.7187 8.41718C10.6617 7.65505 10.4107 7.00014 10.078 6.48705C10.1226 6.44477 10.1668 6.40273 10.2211 6.36577C10.4954 6.75872 10.8324 7.00335 11.201 7.00335C11.5738 7.00335 11.9148 6.75339 12.1908 6.3521L12.1908 6.35216ZM5.6335 6.8992C5.95129 7.41644 6.34952 7.75211 6.78925 7.83597C6.85724 7.8593 6.92622 7.87501 6.99803 7.87524H7.0016C7.07501 7.87524 7.14547 7.85861 7.21494 7.83412C7.65183 7.74772 8.0476 7.41344 8.36429 6.89919C8.61606 7.0207 8.84233 7.16716 9.03597 7.33326C9.12577 7.41342 9.2131 7.49428 9.28478 7.57767C9.31065 7.60701 9.3359 7.63519 9.35955 7.66499C9.56328 7.92581 9.69273 8.19263 9.75333 8.42387C9.7537 8.42548 9.75383 8.42756 9.7542 8.42918C9.78437 8.54584 9.79792 8.65511 9.79891 8.74867V12.2496H4.20055V8.74701C4.20055 8.74447 4.20141 8.741 4.20141 8.73846C4.20265 8.64767 4.21681 8.54303 4.24514 8.43076C4.24736 8.42175 4.24933 8.41251 4.25154 8.4035C4.314 8.17318 4.44284 7.91052 4.64533 7.65296C4.67083 7.62131 4.69669 7.5899 4.72465 7.55894C4.79043 7.48317 4.87197 7.41132 4.95253 7.33855C5.14776 7.17061 5.3775 7.0223 5.63333 6.89917L5.6335 6.8992Z" fill="#469BD3"/>
</svg>
