<svg width="14" height="14" viewBox="0 0 14 14" fill="none" xmlns="http://www.w3.org/2000/svg">
<path d="M0.53125 8.89111V9.95238C0.53125 11.1789 1.43263 12.1987 2.60771 12.3844V13.169H3.3794V12.4147H9.82276V13.169H10.5944V12.3844C11.7695 12.1987 12.6709 11.1789 12.6709 9.95238V8.89111H0.53125Z" fill="#469BD3"/>
<path d="M1.30214 6.57555V2.12351C1.30214 1.37811 1.90859 0.771686 2.65398 0.771686C3.34431 0.771686 3.91503 1.29189 3.99567 1.96082C3.19211 2.1418 2.58994 2.86075 2.58994 3.71817V4.23271H6.19338V3.71817C6.19338 2.85458 5.58254 2.13133 4.77037 1.95683C4.68494 0.863617 3.76872 0 2.65398 0C1.48307 0 0.530451 0.952589 0.530451 2.12351V6.57555H0.015625V8.12013H13.185V6.57555H1.30214Z" fill="#469BD3"/>
</svg>
