<svg width="678" height="70" viewBox="0 0 678 70" fill="none" xmlns="http://www.w3.org/2000/svg">
<path d="M34.148 20.188C34.148 22.652 33.554 24.962 32.366 27.118C31.222 29.274 29.396 31.012 26.888 32.332C24.424 33.652 21.3 34.312 17.516 34.312H9.794V52H0.554V5.932H17.516C21.08 5.932 24.116 6.548 26.624 7.78C29.132 9.012 31.002 10.706 32.234 12.862C33.51 15.018 34.148 17.46 34.148 20.188ZM17.12 26.854C19.672 26.854 21.564 26.282 22.796 25.138C24.028 23.95 24.644 22.3 24.644 20.188C24.644 15.7 22.136 13.456 17.12 13.456H9.794V26.854H17.12ZM49.9483 21.112C51.1363 19.176 52.6763 17.658 54.5683 16.558C56.5043 15.458 58.7043 14.908 61.1683 14.908V24.61H58.7263C55.8223 24.61 53.6223 25.292 52.1263 26.656C50.6743 28.02 49.9483 30.396 49.9483 33.784V52H40.7083V15.436H49.9483V21.112ZM83.6279 52.594C80.1079 52.594 76.9399 51.824 74.1239 50.284C71.3079 48.7 69.0859 46.478 67.4579 43.618C65.8739 40.758 65.0819 37.458 65.0819 33.718C65.0819 29.978 65.8959 26.678 67.5239 23.818C69.1959 20.958 71.4619 18.758 74.3219 17.218C77.1819 15.634 80.3719 14.842 83.8919 14.842C87.4119 14.842 90.6019 15.634 93.4619 17.218C96.3219 18.758 98.5659 20.958 100.194 23.818C101.866 26.678 102.702 29.978 102.702 33.718C102.702 37.458 101.844 40.758 100.128 43.618C98.4559 46.478 96.1679 48.7 93.2639 50.284C90.4039 51.824 87.1919 52.594 83.6279 52.594ZM83.6279 44.542C85.2999 44.542 86.8619 44.146 88.3139 43.354C89.8099 42.518 90.9979 41.286 91.8779 39.658C92.7579 38.03 93.1979 36.05 93.1979 33.718C93.1979 30.242 92.2739 27.58 90.4259 25.732C88.6219 23.84 86.3999 22.894 83.7599 22.894C81.1199 22.894 78.8979 23.84 77.0939 25.732C75.3339 27.58 74.4539 30.242 74.4539 33.718C74.4539 37.194 75.3119 39.878 77.0279 41.77C78.7879 43.618 80.9879 44.542 83.6279 44.542ZM118.72 20.716C119.908 19.044 121.536 17.658 123.604 16.558C125.716 15.414 128.114 14.842 130.798 14.842C133.922 14.842 136.738 15.612 139.246 17.152C141.798 18.692 143.8 20.892 145.252 23.752C146.748 26.568 147.496 29.846 147.496 33.586C147.496 37.326 146.748 40.648 145.252 43.552C143.8 46.412 141.798 48.634 139.246 50.218C136.738 51.802 133.922 52.594 130.798 52.594C128.114 52.594 125.738 52.044 123.67 50.944C121.646 49.844 119.996 48.458 118.72 46.786V69.424H109.48V15.436H118.72V20.716ZM138.058 33.586C138.058 31.386 137.596 29.494 136.672 27.91C135.792 26.282 134.604 25.05 133.108 24.214C131.656 23.378 130.072 22.96 128.356 22.96C126.684 22.96 125.1 23.4 123.604 24.28C122.152 25.116 120.964 26.348 120.04 27.976C119.16 29.604 118.72 31.518 118.72 33.718C118.72 35.918 119.16 37.832 120.04 39.46C120.964 41.088 122.152 42.342 123.604 43.222C125.1 44.058 126.684 44.476 128.356 44.476C130.072 44.476 131.656 44.036 133.108 43.156C134.604 42.276 135.792 41.022 136.672 39.394C137.596 37.766 138.058 35.83 138.058 33.586ZM188.2 32.926C188.2 34.246 188.112 35.434 187.936 36.49H161.206C161.426 39.13 162.35 41.198 163.978 42.694C165.606 44.19 167.608 44.938 169.984 44.938C173.416 44.938 175.858 43.464 177.31 40.516H187.276C186.22 44.036 184.196 46.94 181.204 49.228C178.212 51.472 174.538 52.594 170.182 52.594C166.662 52.594 163.494 51.824 160.678 50.284C157.906 48.7 155.728 46.478 154.144 43.618C152.604 40.758 151.834 37.458 151.834 33.718C151.834 29.934 152.604 26.612 154.144 23.752C155.684 20.892 157.84 18.692 160.612 17.152C163.384 15.612 166.574 14.842 170.182 14.842C173.658 14.842 176.76 15.59 179.488 17.086C182.26 18.582 184.394 20.716 185.89 23.488C187.43 26.216 188.2 29.362 188.2 32.926ZM178.63 30.286C178.586 27.91 177.728 26.018 176.056 24.61C174.384 23.158 172.338 22.432 169.918 22.432C167.63 22.432 165.694 23.136 164.11 24.544C162.57 25.908 161.624 27.822 161.272 30.286H178.63ZM204.185 21.112C205.373 19.176 206.913 17.658 208.805 16.558C210.741 15.458 212.941 14.908 215.405 14.908V24.61H212.963C210.059 24.61 207.859 25.292 206.363 26.656C204.911 28.02 204.185 30.396 204.185 33.784V52H194.945V15.436H204.185V21.112ZM232.386 23.026V40.714C232.386 41.946 232.672 42.848 233.244 43.42C233.86 43.948 234.872 44.212 236.28 44.212H240.57V52H234.762C226.974 52 223.08 48.216 223.08 40.648V23.026H218.724V15.436H223.08V6.394H232.386V15.436H240.57V23.026H232.386ZM282.196 15.436L259.558 69.292H249.724L257.644 51.076L242.992 15.436H253.354L262.792 40.978L272.362 15.436H282.196ZM319.008 5.932C323.848 5.932 328.094 6.878 331.746 8.77C335.442 10.662 338.28 13.368 340.26 16.888C342.284 20.364 343.296 24.412 343.296 29.032C343.296 33.652 342.284 37.7 340.26 41.176C338.28 44.608 335.442 47.27 331.746 49.162C328.094 51.054 323.848 52 319.008 52H302.904V5.932H319.008ZM318.678 44.146C323.518 44.146 327.258 42.826 329.898 40.186C332.538 37.546 333.858 33.828 333.858 29.032C333.858 24.236 332.538 20.496 329.898 17.812C327.258 15.084 323.518 13.72 318.678 13.72H312.144V44.146H318.678ZM384.202 32.926C384.202 34.246 384.114 35.434 383.938 36.49H357.208C357.428 39.13 358.352 41.198 359.98 42.694C361.608 44.19 363.61 44.938 365.986 44.938C369.418 44.938 371.86 43.464 373.312 40.516H383.278C382.222 44.036 380.198 46.94 377.206 49.228C374.214 51.472 370.54 52.594 366.184 52.594C362.664 52.594 359.496 51.824 356.68 50.284C353.908 48.7 351.73 46.478 350.146 43.618C348.606 40.758 347.836 37.458 347.836 33.718C347.836 29.934 348.606 26.612 350.146 23.752C351.686 20.892 353.842 18.692 356.614 17.152C359.386 15.612 362.576 14.842 366.184 14.842C369.66 14.842 372.762 15.59 375.49 17.086C378.262 18.582 380.396 20.716 381.892 23.488C383.432 26.216 384.202 29.362 384.202 32.926ZM374.632 30.286C374.588 27.91 373.73 26.018 372.058 24.61C370.386 23.158 368.34 22.432 365.92 22.432C363.632 22.432 361.696 23.136 360.112 24.544C358.572 25.908 357.626 27.822 357.274 30.286H374.632ZM404.939 52.594C401.947 52.594 399.263 52.066 396.887 51.01C394.511 49.91 392.619 48.436 391.211 46.588C389.847 44.74 389.099 42.694 388.967 40.45H398.273C398.449 41.858 399.131 43.024 400.319 43.948C401.551 44.872 403.069 45.334 404.873 45.334C406.633 45.334 407.997 44.982 408.965 44.278C409.977 43.574 410.483 42.672 410.483 41.572C410.483 40.384 409.867 39.504 408.635 38.932C407.447 38.316 405.533 37.656 402.893 36.952C400.165 36.292 397.921 35.61 396.161 34.906C394.445 34.202 392.949 33.124 391.673 31.672C390.441 30.22 389.825 28.262 389.825 25.798C389.825 23.774 390.397 21.926 391.541 20.254C392.729 18.582 394.401 17.262 396.557 16.294C398.757 15.326 401.331 14.842 404.279 14.842C408.635 14.842 412.111 15.942 414.707 18.142C417.303 20.298 418.733 23.224 418.997 26.92H410.153C410.021 25.468 409.405 24.324 408.305 23.488C407.249 22.608 405.819 22.168 404.015 22.168C402.343 22.168 401.045 22.476 400.121 23.092C399.241 23.708 398.801 24.566 398.801 25.666C398.801 26.898 399.417 27.844 400.649 28.504C401.881 29.12 403.795 29.758 406.391 30.418C409.031 31.078 411.209 31.76 412.925 32.464C414.641 33.168 416.115 34.268 417.347 35.764C418.623 37.216 419.283 39.152 419.327 41.572C419.327 43.684 418.733 45.576 417.545 47.248C416.401 48.92 414.729 50.24 412.529 51.208C410.373 52.132 407.843 52.594 404.939 52.594ZM424.535 33.718C424.535 29.934 425.305 26.634 426.845 23.818C428.385 20.958 430.519 18.758 433.247 17.218C435.975 15.634 439.099 14.842 442.619 14.842C447.151 14.842 450.891 15.986 453.839 18.274C456.831 20.518 458.833 23.686 459.845 27.778H449.879C449.351 26.194 448.449 24.962 447.173 24.082C445.941 23.158 444.401 22.696 442.553 22.696C439.913 22.696 437.823 23.664 436.283 25.6C434.743 27.492 433.973 30.198 433.973 33.718C433.973 37.194 434.743 39.9 436.283 41.836C437.823 43.728 439.913 44.674 442.553 44.674C446.293 44.674 448.735 43.002 449.879 39.658H459.845C458.833 43.618 456.831 46.764 453.839 49.096C450.847 51.428 447.107 52.594 442.619 52.594C439.099 52.594 435.975 51.824 433.247 50.284C430.519 48.7 428.385 46.5 426.845 43.684C425.305 40.824 424.535 37.502 424.535 33.718ZM475.855 21.112C477.043 19.176 478.583 17.658 480.475 16.558C482.411 15.458 484.611 14.908 487.075 14.908V24.61H484.633C481.729 24.61 479.529 25.292 478.033 26.656C476.581 28.02 475.855 30.396 475.855 33.784V52H466.615V15.436H475.855V21.112ZM497.984 11.08C496.356 11.08 494.992 10.574 493.892 9.562C492.836 8.506 492.308 7.208 492.308 5.668C492.308 4.128 492.836 2.852 493.892 1.84C494.992 0.783997 496.356 0.255997 497.984 0.255997C499.612 0.255997 500.954 0.783997 502.01 1.84C503.11 2.852 503.66 4.128 503.66 5.668C503.66 7.208 503.11 8.506 502.01 9.562C500.954 10.574 499.612 11.08 497.984 11.08ZM502.538 15.436V52H493.298V15.436H502.538ZM520.907 20.716C522.095 19.044 523.723 17.658 525.791 16.558C527.903 15.414 530.301 14.842 532.985 14.842C536.109 14.842 538.925 15.612 541.433 17.152C543.985 18.692 545.987 20.892 547.439 23.752C548.935 26.568 549.683 29.846 549.683 33.586C549.683 37.326 548.935 40.648 547.439 43.552C545.987 46.412 543.985 48.634 541.433 50.218C538.925 51.802 536.109 52.594 532.985 52.594C530.301 52.594 527.925 52.044 525.857 50.944C523.833 49.844 522.183 48.458 520.907 46.786V69.424H511.667V15.436H520.907V20.716ZM540.245 33.586C540.245 31.386 539.783 29.494 538.859 27.91C537.979 26.282 536.791 25.05 535.295 24.214C533.843 23.378 532.259 22.96 530.543 22.96C528.871 22.96 527.287 23.4 525.791 24.28C524.339 25.116 523.151 26.348 522.227 27.976C521.347 29.604 520.907 31.518 520.907 33.718C520.907 35.918 521.347 37.832 522.227 39.46C523.151 41.088 524.339 42.342 525.791 43.222C527.287 44.058 528.871 44.476 530.543 44.476C532.259 44.476 533.843 44.036 535.295 43.156C536.791 42.276 537.979 41.022 538.859 39.394C539.783 37.766 540.245 35.83 540.245 33.586ZM567.156 23.026V40.714C567.156 41.946 567.442 42.848 568.014 43.42C568.63 43.948 569.642 44.212 571.05 44.212H575.34V52H569.532C561.744 52 557.85 48.216 557.85 40.648V23.026H553.494V15.436H557.85V6.394H567.156V15.436H575.34V23.026H567.156ZM586.672 11.08C585.044 11.08 583.68 10.574 582.58 9.562C581.524 8.506 580.996 7.208 580.996 5.668C580.996 4.128 581.524 2.852 582.58 1.84C583.68 0.783997 585.044 0.255997 586.672 0.255997C588.3 0.255997 589.642 0.783997 590.698 1.84C591.798 2.852 592.348 4.128 592.348 5.668C592.348 7.208 591.798 8.506 590.698 9.562C589.642 10.574 588.3 11.08 586.672 11.08ZM591.226 15.436V52H581.986V15.436H591.226ZM616.591 52.594C613.071 52.594 609.903 51.824 607.087 50.284C604.271 48.7 602.049 46.478 600.421 43.618C598.837 40.758 598.045 37.458 598.045 33.718C598.045 29.978 598.859 26.678 600.487 23.818C602.159 20.958 604.425 18.758 607.285 17.218C610.145 15.634 613.335 14.842 616.855 14.842C620.375 14.842 623.565 15.634 626.425 17.218C629.285 18.758 631.529 20.958 633.157 23.818C634.829 26.678 635.665 29.978 635.665 33.718C635.665 37.458 634.807 40.758 633.091 43.618C631.419 46.478 629.131 48.7 626.227 50.284C623.367 51.824 620.155 52.594 616.591 52.594ZM616.591 44.542C618.263 44.542 619.825 44.146 621.277 43.354C622.773 42.518 623.961 41.286 624.841 39.658C625.721 38.03 626.161 36.05 626.161 33.718C626.161 30.242 625.237 27.58 623.389 25.732C621.585 23.84 619.363 22.894 616.723 22.894C614.083 22.894 611.861 23.84 610.057 25.732C608.297 27.58 607.417 30.242 607.417 33.718C607.417 37.194 608.275 39.878 609.991 41.77C611.751 43.618 613.951 44.542 616.591 44.542ZM662.705 14.908C667.061 14.908 670.581 16.294 673.265 19.066C675.949 21.794 677.291 25.622 677.291 30.55V52H668.051V31.804C668.051 28.9 667.325 26.678 665.873 25.138C664.421 23.554 662.441 22.762 659.933 22.762C657.381 22.762 655.357 23.554 653.861 25.138C652.409 26.678 651.683 28.9 651.683 31.804V52H642.443V15.436H651.683V19.99C652.915 18.406 654.477 17.174 656.369 16.294C658.305 15.37 660.417 14.908 662.705 14.908Z" fill="white"/>
</svg>
