<svg width="24" height="24" viewBox="0 0 24 24" fill="none" xmlns="http://www.w3.org/2000/svg">
<path d="M0.256619 0.00136736C0.105804 0.0302779 -0.00255375 0.163634 4.68418e-05 0.317304V3.4748C4.68418e-05 3.64931 0.141485 3.79073 0.316005 3.79073H1.57903V20.2106H0.316005C0.296209 20.2088 0.276413 20.2088 0.256618 20.2106C0.105803 20.2395 -0.00255477 20.3726 4.58243e-05 20.5263V23.6841C4.58243e-05 23.8583 0.141484 23.9997 0.316004 23.9997H3.47372C3.64824 23.9997 3.78968 23.8583 3.78968 23.6841V22.4209H18.0102C18.0949 22.4222 18.1764 22.3894 18.2366 22.3302C18.2968 22.2708 18.3306 22.1898 18.3306 22.1052C18.3306 22.0208 18.2968 21.9398 18.2366 21.8804C18.1764 21.821 18.0949 21.7882 18.0102 21.7895H3.78968V20.5263C3.78968 20.3521 3.64824 20.2106 3.47372 20.2106H2.2107V3.79075H3.47372C3.64824 3.79075 3.78968 3.64932 3.78968 3.47481V2.21188H18.0102C18.0949 2.21318 18.1764 2.18036 18.2366 2.12098C18.2968 2.06159 18.3306 1.98059 18.3306 1.8962C18.3306 1.81156 18.2968 1.73055 18.2366 1.67117C18.1764 1.61178 18.0949 1.57923 18.0102 1.58027H3.78968V0.317337C3.78968 0.14283 3.64824 0.00140094 3.47372 0.00140094H0.316004C0.296207 -0.000422213 0.276411 -0.000422213 0.256615 0.00140094L0.256619 0.00136736ZM20.4672 0.00136736C20.3161 0.0302779 20.208 0.163634 20.2106 0.317304V3.4748C20.2106 3.64931 20.3521 3.79073 20.5263 3.79073H21.7896V17.9216C21.7883 18.0063 21.8211 18.0878 21.8805 18.1479C21.9399 18.2081 22.0209 18.242 22.1053 18.242C22.19 18.242 22.271 18.2081 22.3304 18.1479C22.3895 18.0878 22.4223 18.0063 22.421 17.9216V3.79073H23.6843C23.8586 3.79073 24 3.64931 24 3.4748V0.317304C24 0.142797 23.8586 0.00136736 23.6843 0.00136736H20.5263C20.5068 -0.000455788 20.487 -0.000455788 20.4672 0.00136736H20.4672ZM0.63137 0.63298H3.15774V3.15918H0.63137V0.63298ZM20.842 0.63298H23.3683V3.15918H20.842V0.63298ZM9.45337 9.15898C9.30073 9.16731 9.17623 9.28374 9.15721 9.43532C9.15643 9.44835 9.15643 9.46163 9.15721 9.47465V14.527C9.15721 14.7015 9.29865 14.8429 9.47291 14.8429H14.5256C14.7001 14.8429 14.8415 14.7015 14.8415 14.527V9.47465C14.8415 9.3004 14.7001 9.15898 14.5256 9.15898H9.47291C9.4664 9.15871 9.45989 9.15871 9.45337 9.15898L9.45337 9.15898ZM9.78886 9.79059H14.2099V14.2114H9.78886V9.79059ZM20.4666 20.2109C20.3155 20.2398 20.2074 20.3729 20.21 20.5266V23.6843C20.21 23.8586 20.3515 24 20.5257 24H23.6837C23.858 24 23.9994 23.8586 23.9994 23.6843V20.5266C23.9994 20.3523 23.858 20.2109 23.6837 20.2109H20.5257C20.5062 20.2091 20.4864 20.2091 20.4666 20.2109ZM0.630784 20.8425H3.15716V23.3687H0.630784V20.8425ZM20.8414 20.8425H23.3677V23.3687H20.8414V20.8425Z" fill="black"/>
</svg>
