<svg width="259" height="150" viewBox="0 0 259 150" fill="none" xmlns="http://www.w3.org/2000/svg">
<path d="M302.961 181.373C297.44 172.374 289.157 166.145 279.492 161.992C277.421 123.922 261.544 87.9281 233.931 61.625C205.629 33.9375 167.662 18.0173 127.624 18.0173C117.96 18.0173 107.605 18.7095 97.9411 20.786C93.7991 15.2485 88.2768 10.4032 82.7545 6.94234C75.161 2.78915 66.8774 0.0205078 57.9033 0.0205078C44.0973 0.0205078 31.6717 5.55805 22.0074 14.5564C13.0336 24.247 7.51099 36.7063 7.51099 49.8578C7.51099 56.7796 8.89164 63.7016 11.6529 69.9311C-9.7465 94.8499 -22.172 125.306 -24.9332 157.839C-27.6945 190.371 -19.4108 222.904 -2.15317 250.592C-7.67561 258.898 -10.4368 268.588 -10.4368 278.279C-10.4368 288.661 -6.98528 298.353 -1.46284 306.659C4.74995 314.963 13.0336 321.194 22.6979 324.656C28.2202 326.731 33.7428 327.423 39.9554 327.423C44.0973 327.423 48.9294 326.731 53.0711 326.039C61.355 323.964 68.9482 319.117 75.161 313.58C106.915 324.656 141.43 325.348 173.184 315.658C204.938 305.273 232.551 285.201 251.879 257.513C254.639 258.205 257.402 258.205 260.162 258.205C260.162 258.205 260.162 258.205 260.854 258.205C272.587 258.205 284.323 254.052 293.298 246.438C302.271 238.824 308.484 227.749 309.865 215.982C311.936 203.523 309.173 191.063 302.961 181.373ZM87.5866 288.661C88.2768 285.201 88.967 281.048 88.967 277.587C88.967 264.435 83.4446 251.976 74.4708 242.285C64.8065 232.595 52.3809 227.749 39.2652 227.749C31.6717 227.749 24.7687 229.134 18.5559 232.595C6.1306 211.137 0.608004 185.526 1.98865 160.607C4.0595 135.689 13.7238 111.462 28.9107 92.081C35.1232 96.2343 42.0265 99.0029 49.6196 99.6952C59.2839 101.08 68.9482 99.6952 77.2319 95.542C86.206 91.389 93.1089 85.1592 98.6313 77.5453C103.463 68.5468 106.225 59.5483 106.225 49.8578C106.225 48.4734 106.225 47.7812 106.225 46.3969C113.128 45.0125 119.341 45.0125 126.934 45.0125C159.378 45.0125 190.442 57.4718 213.222 79.6216C235.312 100.387 248.427 128.767 251.19 158.531C242.906 159.915 235.312 163.376 229.099 168.914C227.719 170.298 226.338 170.99 224.957 172.374L224.267 173.067C218.744 178.604 214.603 186.218 212.532 193.832C209.771 204.215 209.771 214.598 213.222 224.288C215.983 231.902 220.816 238.824 226.338 244.362C210.461 265.127 189.061 281.048 164.21 288.661C139.359 296.967 112.438 296.967 87.5866 288.661ZM79.9932 54.7031C79.303 58.8563 77.2319 63.0093 73.7804 66.4702C70.3289 69.9311 66.8774 72.0077 62.0452 72.6998C57.9033 73.3921 53.0711 73.3921 48.9294 71.3155C44.7875 69.2388 41.336 66.4702 38.575 62.3172C36.5039 58.8563 35.1232 54.7031 35.1232 49.8578C35.1232 47.0891 35.8137 43.6281 36.5039 41.5516C37.8845 38.7828 39.2652 36.0141 41.336 33.9375C43.4071 31.861 46.1681 30.4766 48.9294 29.0922C51.6907 27.7079 54.4518 27.7079 57.2131 27.7079C62.0452 27.7079 66.1872 29.0922 70.3289 31.861C73.7804 34.6297 77.2319 38.0907 78.6125 42.2437C79.9932 45.7047 80.6834 49.8578 79.9932 54.7031ZM19.2464 269.28C20.627 266.512 22.0074 263.743 24.0785 261.666C26.1494 259.59 28.9107 258.205 31.6717 256.821C34.433 255.437 37.1943 255.437 39.9554 255.437H40.6458C44.0973 255.437 46.8586 256.129 49.6196 256.821C52.3809 258.205 55.1422 259.59 57.2131 261.666C59.2839 263.743 60.6646 266.512 62.0452 269.28C63.4259 272.049 63.4259 274.818 63.4259 278.279C63.4259 284.509 60.6646 290.046 56.5229 294.2C52.3809 298.353 46.8586 301.12 40.6458 301.12C37.8845 301.12 34.433 300.428 31.6717 299.737C28.9107 298.353 26.1494 296.967 24.0785 294.892C22.0074 292.814 19.9366 290.046 19.2464 287.277C17.8657 284.509 17.1753 281.74 17.1753 278.279C17.1753 274.818 17.8657 272.049 19.2464 269.28ZM239.454 198.678C240.835 195.909 242.214 193.14 244.285 191.063C246.356 188.987 249.119 187.603 251.879 186.218C254.639 184.834 257.402 184.834 260.162 184.834C260.162 184.834 260.162 184.834 260.854 184.834H263.615C268.446 185.526 273.279 187.602 276.729 191.063C280.871 195.217 283.634 200.754 283.634 206.984C283.634 213.213 281.563 218.751 276.729 222.904C272.587 227.057 266.375 229.826 260.854 229.826C254.639 229.134 249.119 227.057 244.977 222.904C240.835 218.751 238.073 213.213 238.073 207.676C237.383 204.907 238.072 201.446 239.454 198.678Z" fill="#E7F5FF"/>
</svg>
